<?xml version="1.0" encoding="UTF-8"?>
<svg version="1.1" xmlns="http://www.w3.org/2000/svg" width="1080" height="787">
<path d="M0 0 C2.625 2 2.625 2 4 5 C3.48363012 12.43047507 1.62979934 19.67199488 0.0625 26.9375 C-6.87695082 59.81249473 -9.94791888 98.21959165 9 128 C14.94856213 136.09359159 22.07559194 142.32471319 31 147 C31.8765625 147.47050781 32.753125 147.94101562 33.65625 148.42578125 C63.93111075 162.8403568 107.68003892 154.77349015 138.6394043 146.82348633 C144.77248537 145.32062527 150.96385171 144.08738947 157.14743042 142.81164551 C171.10832998 139.92621299 185.03897674 136.92232111 198.9375 133.75 C199.64431915 133.58964264 200.35113831 133.42928528 201.07937622 133.2640686 C208.07835111 131.67360204 215.04217524 130.01107958 221.96484375 128.109375 C231.68067965 125.4824749 241.50946195 123.36624452 251.34033203 121.21826172 C254.5990351 120.50567777 257.85621511 119.78643068 261.11328125 119.06640625 C272.05493198 116.65992675 282.99540019 114.33135871 294.03359985 112.40588379 C297.81108869 111.72304732 301.36688142 110.92619733 304.9765625 109.61303711 C311.57061418 107.31745333 318.46972181 106.1710979 325.30876541 104.84193611 C327.90229316 104.33779501 330.49428595 103.82632717 333.08602905 103.31309509 C338.59774401 102.22303266 344.11127761 101.14235488 349.625 100.0625 C356.00195684 98.81279872 362.37809073 97.55909111 368.75272751 96.29760551 C371.27906556 95.7994515 373.80653417 95.30737868 376.33413696 94.81568909 C384.90864076 93.13117989 393.33679127 91.19571892 401.76174927 88.87586975 C405.78637036 87.78730553 409.82298074 86.90025764 413.9140625 86.10546875 C414.68037491 85.95256378 415.44668732 85.79965881 416.23622131 85.64212036 C418.69821401 85.15238769 421.16154632 84.66982422 423.625 84.1875 C425.37351264 83.84103588 427.12196531 83.49426898 428.87036133 83.1472168 C441.58065081 80.63288586 454.31341706 78.24411955 467.05093384 75.87243652 C476.49424882 74.10953629 485.85855154 72.18549881 495.17749023 69.84301758 C506.36757896 67.08302898 517.74891976 65.18165803 529.08042908 63.10014343 C538.45514785 61.37187496 547.7945541 59.46937134 557.13671875 57.57470703 C560.0264016 56.99470077 562.91877412 56.43055395 565.8125 55.87109375 C566.7312793 55.6920752 567.65005859 55.51305664 568.59667969 55.32861328 C570.30492347 54.99633252 572.0138629 54.66759825 573.72363281 54.34326172 C574.47999023 54.19518066 575.23634766 54.04709961 576.015625 53.89453125 C576.99450684 53.70661011 576.99450684 53.70661011 577.99316406 53.51489258 C580.08145537 53.03112347 580.08145537 53.03112347 582.28344727 52.04101562 C585.60826514 50.76690549 588.96291218 50.1008431 592.44921875 49.44921875 C593.17124481 49.31003021 593.89327087 49.17084167 594.63717651 49.0274353 C596.98635816 48.57578424 599.33682555 48.13131072 601.6875 47.6875 C603.31313577 47.37786968 604.938705 47.06788982 606.56420898 46.75756836 C609.02185836 46.28845198 611.47957684 45.81974027 613.93769836 45.35310364 C618.89003655 44.41122919 623.83374614 43.43580072 628.7734375 42.4296875 C629.93141846 42.19677002 631.08939941 41.96385254 632.2824707 41.72387695 C634.39458809 41.29799485 636.50525238 40.86480787 638.61401367 40.42260742 C645.00620855 39.15086467 651.48346066 38.19258018 658 39 C661.18083963 41.22658774 662.47694661 42.79043904 664 46.3125 C664 50.40643248 663.13145735 53.49916328 661 57 C654.26516057 61.04592966 646.70332451 63.40829805 639.31665039 66.00146484 C637.17257508 66.75524708 635.03249587 67.51966119 632.89257812 68.28515625 C631.52626586 68.76886289 630.15973697 69.25195821 628.79296875 69.734375 C627.5608667 70.16975586 626.32876465 70.60513672 625.05932617 71.05371094 C622 72 622 72 619 72 C619 72.66 619 73.32 619 74 C618.14128044 74.30281136 618.14128044 74.30281136 617.26521301 74.61174011 C611.24479668 76.73513522 605.22529804 78.86111673 599.20629883 80.98852539 C596.96726996 81.77953832 594.72801681 82.56991673 592.48852539 83.35961914 C580.93463146 87.43428037 569.40629576 91.52664551 558 96 C554.08787313 97.4912739 550.16959609 98.96598262 546.25 100.4375 C545.20996826 100.82800537 544.16993652 101.21851074 543.09838867 101.62084961 C536.51604279 104.08307249 529.91226356 106.46610175 523.27319336 108.77026367 C518.76833191 110.34469 514.31484683 112.02606399 509.86767578 113.75634766 C498.91463624 118.01574675 487.83394827 121.79443314 476.65551758 125.41113281 C471.20575512 127.18978635 465.84815119 129.00491515 460.58984375 131.29296875 C449.63757069 135.98028248 438.16352443 139.43623552 426.87402344 143.21240234 C423.72992019 144.26567217 420.58758893 145.32410759 417.4453125 146.3828125 C416.48585724 146.70162384 415.52640198 147.02043518 414.53787231 147.34890747 C409.811443 148.94204853 405.44717028 150.72278261 401 153 C398.74134435 153.82177337 396.46623964 154.59922501 394.1796875 155.33984375 C393.53401825 155.55076157 392.888349 155.76167938 392.22311401 155.97898865 C390.85063356 156.42717596 389.4775411 156.87349294 388.10388184 157.3180542 C382.48257513 159.1401273 376.87445924 161.00301602 371.26367188 162.85717773 C369.82766879 163.33076368 368.3911363 163.8027471 366.95410156 164.27319336 C364.82470986 164.97074443 362.69737358 165.67428498 360.5703125 166.37890625 C359.33039551 166.7869751 358.09047852 167.19504395 356.81298828 167.61547852 C354.01661676 168.58450143 351.34287955 169.71982425 348.65039062 170.94750977 C343.87302263 173.11073537 338.99698675 174.80885198 334.0234375 176.4609375 C332.63096298 176.93051376 332.63096298 176.93051376 331.21035767 177.40957642 C328.26659798 178.40215089 325.32105771 179.38926894 322.375 180.375 C311.01004301 184.17779504 299.74226106 188.01722006 288.65185547 192.56591797 C282.41935308 195.01341891 276.05443053 197.05309467 269.68835449 199.12228394 C259.28945388 202.50586374 248.91143631 205.88604406 238.75 209.9375 C226.72894128 214.71806053 214.35228511 218.50855726 202.03222656 222.43334961 C194.7539863 224.75816589 187.54929108 227.07398081 180.49438477 230.02099609 C174.71111699 232.29083105 168.73285006 234.0607713 162.8125 235.9375 C160.17270807 236.7784813 157.53350801 237.62130822 154.89453125 238.46484375 C153.91638962 238.7774968 153.91638962 238.7774968 152.91848755 239.09646606 C143.35897656 242.15867121 133.8181998 245.25581103 124.43432617 248.8269043 C110.65473625 254.05212037 96.54752579 258.03512198 82.37890625 262.03515625 C78.94302397 263.01626946 75.52598433 264.04646295 72.11157227 265.09912109 C28.97775025 278.28939023 -30.685912 290.25395749 -73.1237793 268.34301758 C-93.7352042 257.15570301 -108.25001166 240.94500206 -115.2746582 218.41650391 C-123.75313909 189.42470752 -117.86081559 156.29885799 -104.37573242 129.73657227 C-102.94856066 126.89767816 -101.57350725 124.03839531 -100.2109375 121.16796875 C-99.74429688 120.18505859 -99.27765625 119.20214844 -98.796875 118.18945312 C-97.83997078 116.16917594 -96.88426316 114.14833159 -95.9296875 112.12695312 C-95.465625 111.15048828 -95.0015625 110.17402344 -94.5234375 109.16796875 C-94.11013184 108.29422607 -93.69682617 107.4204834 -93.27099609 106.52026367 C-91.95739265 103.9155137 -90.63135293 101.4204283 -89 99 C-88.34 99 -87.68 99 -87 99 C-86.73316406 98.28972656 -86.46632812 97.57945312 -86.19140625 96.84765625 C-82.34507418 87.65429207 -76.43888605 79.6799248 -70.39404297 71.8359375 C-68.1662783 68.90199875 -66.00424359 65.92041982 -63.83227539 62.94506836 C-58.84984775 56.12634561 -53.84460235 49.36593264 -48.41796875 42.890625 C-46.43747656 40.52299298 -44.48866393 38.13670024 -42.55078125 35.734375 C-41.93460937 34.97463379 -41.3184375 34.21489258 -40.68359375 33.43212891 C-39.46734172 31.93244445 -38.25488193 30.42967371 -37.046875 28.92333984 C-34.47020459 25.76339694 -31.96689034 22.83375619 -28.7890625 20.265625 C-26.22751593 18.18481686 -24.48402673 16.27967782 -22.5625 13.625 C-16.54256014 5.62955881 -10.83177005 -1.85408677 0 0 Z M-18 31 C-19.61524235 32.87547584 -21.1911463 34.76596502 -22.75 36.6875 C-25.99157726 40.68123964 -29.35494946 44.36082858 -33 48 C-36.72720806 52.46979358 -40.12837392 57.18787001 -43.5859375 61.8671875 C-45.27734597 64.06218685 -46.9645992 66.11145838 -48.796875 68.17578125 C-52.90810612 72.92142125 -56.35728779 78.12114759 -59.875 83.3125 C-60.56335938 84.31345703 -61.25171875 85.31441406 -61.9609375 86.34570312 C-62.610625 87.30025391 -63.2603125 88.25480469 -63.9296875 89.23828125 C-64.51991699 90.10493408 -65.11014648 90.97158691 -65.71826172 91.86450195 C-67.17154183 93.87070112 -67.17154183 93.87070112 -67 96 C-67.66 96 -68.32 96 -69 96 C-70.2134605 97.59618683 -70.2134605 97.59618683 -71.35546875 99.69921875 C-71.80962158 100.48989746 -72.26377441 101.28057617 -72.73168945 102.09521484 C-73.21210693 102.95066895 -73.69252441 103.80612305 -74.1875 104.6875 C-74.92842896 105.99001709 -74.92842896 105.99001709 -75.68432617 107.31884766 C-77.1325803 109.87392262 -78.56863705 112.43543166 -80 115 C-80.36383789 115.64888184 -80.72767578 116.29776367 -81.10253906 116.96630859 C-83.13741724 120.60999308 -85.09517122 124.28678947 -87 128 C-87.74830078 129.45792969 -87.74830078 129.45792969 -88.51171875 130.9453125 C-101.41335925 157.42584496 -108.78982479 189.43107359 -99.07006836 218.16088867 C-93.71650836 232.9241542 -83.54113588 246.56894996 -69.21484375 253.66015625 C-25.83065037 271.74129638 21.92017968 262.6588579 66 251.375 C66.73670929 251.1872702 67.47341858 250.99954041 68.23245239 250.80612183 C75.60338027 248.91148009 82.77468965 246.87048742 89.79882812 243.89794922 C93.36762397 242.44208951 97.04609325 241.42641371 100.75 240.375 C109.71060562 237.75504716 118.58056246 234.88477256 127.4375 231.9375 C129.30196777 231.32044189 129.30196777 231.32044189 131.20410156 230.69091797 C136.99384389 228.75509334 142.72599703 226.74570004 148.40625 224.5078125 C155.84528703 221.60525713 163.43091562 219.27064869 171.0625 216.9375 C187.39791573 212.25641053 187.39791573 212.25641053 203.18359375 206.10546875 C209.47239988 203.2073949 216.11327779 201.22391225 222.68844604 199.08544922 C233.86022417 195.44811943 244.98124937 191.75043083 255.9375 187.5 C267.7957956 182.90760359 279.88753301 179.06926456 292.01147461 175.24804688 C301.4189045 172.27471293 301.4189045 172.27471293 310.59375 168.66015625 C320.55471475 164.35173897 330.97283994 161.14883521 341.25 157.6875 C343.45976511 156.93983633 345.66940169 156.19179268 347.87890625 155.44335938 C353.25112916 153.62451964 358.62492355 151.81038837 364 150 C364 149.34 364 148.68 364 148 C365.27705811 147.73807861 366.55411621 147.47615723 367.86987305 147.20629883 C373.06990706 146.04793851 378.04833504 144.43050321 383.08203125 142.69921875 C384.01746262 142.38096634 384.95289398 142.06271393 385.91667175 141.7348175 C387.88477738 141.063902 389.85207829 140.39062168 391.81860352 139.71508789 C394.79155956 138.69468734 397.76760113 137.68372106 400.74414062 136.67382812 C409.28202952 133.76249528 417.71237253 130.79445305 425.99633789 127.21362305 C433.55356456 124.16014229 441.39762533 121.8198848 449.14672852 119.30493164 C458.41373596 116.28991724 467.51925134 113.08846888 476.5402832 109.3996582 C481.70539976 107.31006585 486.93873297 105.42969766 492.1875 103.5625 C493.78960327 102.98846436 493.78960327 102.98846436 495.42407227 102.40283203 C501.25942928 100.31651051 507.1053016 98.26271202 512.96069336 96.23339844 C520.44908366 93.63811206 527.85209735 90.91155995 535.21508789 87.98046875 C544.96189045 84.15515022 554.87857572 80.78001737 564.77001953 77.35083008 C578.91419388 72.78384163 578.91419388 72.78384163 592 66 C584.85322163 66.67886934 577.90915003 67.89097951 570.875 69.3125 C569.84890625 69.51294922 568.8228125 69.71339844 567.765625 69.91992188 C562.10599005 71.05395543 556.54272183 72.3698751 550.97900391 73.90869141 C543.61810536 75.90432266 536.2089892 77.4711477 528.71875 78.91015625 C527.40839831 79.16583636 526.09813832 79.42198685 524.78796387 79.67857361 C521.38186669 80.34440428 517.974632 81.00420982 514.56707764 81.66253662 C511.13387466 82.32683458 507.70173106 82.99655731 504.26953125 83.66601562 C500.38507161 84.4235226 496.50045942 85.18017544 492.6151123 85.93312073 C489.07614869 86.61907096 485.53803309 87.30926803 482 88 C480.74501709 88.24241425 479.49003418 88.48482849 478.19702148 88.73458862 C471.42837226 90.05936438 464.74293074 91.53494903 458.06338501 93.24975586 C452.12920357 94.70307787 446.12923637 95.84715126 440.13671875 97.03125 C438.73243691 97.31098226 437.32820723 97.59097652 435.92402649 97.87121582 C432.25613309 98.6025265 428.58756188 99.33037725 424.91882324 100.05743408 C421.22476621 100.79012207 417.53135222 101.52603615 413.83789062 102.26171875 C408.38536112 103.34747964 402.93247098 104.43139901 397.47924805 105.51367188 C396.24969391 105.7583168 395.02013977 106.00296173 393.75332642 106.25502014 C391.15912455 106.7699309 388.56448232 107.28196328 385.96908569 107.79075623 C384.64548294 108.05180609 383.32188458 108.31287818 381.99829102 108.57397461 C380.82774673 108.80362411 379.65720245 109.03327362 378.45118713 109.2698822 C374.85890761 110.02984888 371.31727646 110.91727344 367.765625 111.84765625 C354.69187123 115.21497676 341.37431324 117.56311407 328.12841797 120.14282227 C314.03582353 122.89350561 300.06696009 125.8435152 286.16741943 129.44644165 C280.2839511 130.94907791 274.35790989 132.27701977 268.4375 133.625 C267.39018707 133.86479584 267.39018707 133.86479584 266.32171631 134.10943604 C256.08956477 136.44974296 245.83771058 138.69200598 235.57421875 140.890625 C233.8456086 141.26125565 233.8456086 141.26125565 232.08207703 141.63937378 C226.32241694 142.87307489 220.5614839 144.10037055 214.79858398 145.31884766 C212.67039033 145.77236791 210.54221562 146.22597707 208.4140625 146.6796875 C207.4353569 146.88458801 206.45665131 147.08948853 205.44828796 147.30059814 C201.08553118 148.23436803 197.13899041 149.32837398 193 151 C189.77082675 151.83218964 186.51208177 152.51693316 183.25 153.20703125 C182.29179352 153.41285324 181.33358704 153.61867523 180.34634399 153.83073425 C177.23208935 154.49707896 174.11625806 155.1555923 171 155.8125 C169.41115997 156.14906616 169.41115997 156.14906616 167.79022217 156.49243164 C146.66326759 160.95992517 125.47877288 165.3776899 103.96875 167.54296875 C100.58581139 167.93253944 97.28087469 168.46100869 93.92578125 169.03125 C86.82582133 170.13746595 79.8639529 170.34543484 72.6875 170.3125 C71.41366455 170.30758545 70.1398291 170.3026709 68.82739258 170.29760742 C59.52986985 170.18195922 51.00405936 169.45385354 42 167 C41.34290039 166.83371094 40.68580078 166.66742188 40.00878906 166.49609375 C19.92681138 161.36392719 4.63856199 149.832877 -6 132 C-10.96106746 123.40611978 -14.61006112 114.62614271 -17 105 C-17.2990625 103.87851562 -17.598125 102.75703125 -17.90625 101.6015625 C-22.93872323 79.00202992 -20.86628862 53.59937753 -17 31 C-17.33 31 -17.66 31 -18 31 Z " fill="#4D4F4F" transform="translate(319,294)"/>
<path d="M0 0 C-2.72870404 2.72870404 -5.1208197 2.88749276 -8.875 3.6875 C-10.72738281 4.09548828 -10.72738281 4.09548828 -12.6171875 4.51171875 C-17.28760264 5.18585488 -17.28760264 5.18585488 -20 4 C-20.33 3.34 -20.66 2.68 -21 2 C-13.90961228 0.49025965 -7.24997422 -0.28307925 0 0 Z " fill="#616261" transform="translate(785,372)"/>
<path d="M0 0 C0 0.66 0 1.32 0 2 C-2.8928729 3.00935129 -5.78878515 4.00768744 -8.6875 5 C-9.50412109 5.28617187 -10.32074219 5.57234375 -11.16210938 5.8671875 C-18.67644333 8.42266949 -18.67644333 8.42266949 -23 8 C-20.41741077 5.41741077 -18.27124388 5.27012534 -14.77734375 4.5625 C-13.89755859 4.2840625 -13.89755859 4.2840625 -13 4 C-12.67 3.34 -12.34 2.68 -12 2 C-10.0390625 1.11328125 -10.0390625 1.11328125 -7.625 0.3125 C-6.83351563 0.04050781 -6.04203125 -0.23148437 -5.2265625 -0.51171875 C-3 -1 -3 -1 0 0 Z " fill="#5B5C5C" transform="translate(640,473)"/>
<path d="M0 0 C0.33 0.99 0.66 1.98 1 3 C-2.31371 5.20914 -3.3446021 5.22481553 -7.1875 5.125 C-8.08855469 5.10695313 -8.98960937 5.08890625 -9.91796875 5.0703125 C-10.60503906 5.04710937 -11.29210937 5.02390625 -12 5 C-12 3.68 -12 2.36 -12 1 C-7.93631321 0.22596442 -4.13574827 -0.0984702 0 0 Z " fill="#464947" transform="translate(930,341)"/>
<path d="M0 0 C0 0.99 0 1.98 0 3 C-2.12292296 3.52923572 -4.24842051 4.04815377 -6.375 4.5625 C-7.55835938 4.85253906 -8.74171875 5.14257812 -9.9609375 5.44140625 C-13 6 -13 6 -15 5 C-15 4.01 -15 3.02 -15 2 C-13.9790625 2.0928125 -13.9790625 2.0928125 -12.9375 2.1875 C-9.7939459 2.15227741 -9.7939459 2.15227741 -6.375 0.4375 C-3 -1 -3 -1 0 0 Z " fill="#535655" transform="translate(497,446)"/>
<path d="M0 0 C0 0.99 0 1.98 0 3 C-1.6037331 3.64690922 -3.20800306 4.29248764 -4.8125 4.9375 C-6.15248047 5.47697266 -6.15248047 5.47697266 -7.51953125 6.02734375 C-9.3270909 6.73613486 -11.15807409 7.3860247 -13 8 C-13 7.34 -13 6.68 -13 6 C-12.34 6 -11.68 6 -11 6 C-10.67 5.01 -10.34 4.02 -10 3 C-8.22265625 2.05078125 -8.22265625 2.05078125 -6.0625 1.3125 C-5.35222656 1.06113281 -4.64195312 0.80976563 -3.91015625 0.55078125 C-2 0 -2 0 0 0 Z " fill="#575A5A" transform="translate(643,457)"/>
<path d="M0 0 C1.8125 1.5 1.8125 1.5 3 3 C-0.47325181 4.1577506 -3.36067448 4.06866652 -7 4 C-7 3.34 -7 2.68 -7 2 C-7.99 1.67 -8.98 1.34 -10 1 C-6.60647414 0.22433695 -3.47914854 -0.36622616 0 0 Z " fill="#414342" transform="translate(350,553)"/>
<path d="M0 0 C0 0.66 0 1.32 0 2 C-1.11375 2.309375 -2.2275 2.61875 -3.375 2.9375 C-6.7945155 3.82326483 -6.7945155 3.82326483 -9 5 C-9.99 4.67 -10.98 4.34 -12 4 C-12 3.01 -12 2.02 -12 1 C-10.37681021 0.63762737 -8.7513642 0.28534843 -7.125 -0.0625 C-6.22007812 -0.25972656 -5.31515625 -0.45695312 -4.3828125 -0.66015625 C-2 -1 -2 -1 0 0 Z " fill="#575958" transform="translate(829,362)"/>
<path d="M0 0 C0 0.99 0 1.98 0 3 C-1.62171239 3.38897161 -3.24754925 3.76078298 -4.875 4.125 C-5.77992188 4.33382813 -6.68484375 4.54265625 -7.6171875 4.7578125 C-8.40351562 4.83773438 -9.18984375 4.91765625 -10 5 C-10.66 4.34 -11.32 3.68 -12 3 C-10.75823305 2.29773859 -9.50614401 1.61370891 -8.25 0.9375 C-7.20585938 0.36322266 -7.20585938 0.36322266 -6.140625 -0.22265625 C-3.63859372 -1.1312406 -2.4667645 -0.88336837 0 0 Z " fill="#5E605F" transform="translate(628,416)"/>
<path d="M0 0 C0.33 0.99 0.66 1.98 1 3 C0 4 0 4 -2.06640625 4.09765625 C-2.89011719 4.08605469 -3.71382813 4.07445312 -4.5625 4.0625 C-5.38878906 4.05347656 -6.21507812 4.04445313 -7.06640625 4.03515625 C-7.70449219 4.02355469 -8.34257812 4.01195312 -9 4 C-9 3.01 -9 2.02 -9 1 C-2.25 0 -2.25 0 0 0 Z " fill="#424444" transform="translate(324,556)"/>
<path d="M0 0 C0.66 0.66 1.32 1.32 2 2 C-4.5 5 -4.5 5 -9 5 C-9 4.01 -9 3.02 -9 2 C-7.54536519 1.61090015 -6.08608793 1.23911971 -4.625 0.875 C-3.40683594 0.56175781 -3.40683594 0.56175781 -2.1640625 0.2421875 C-1.44992187 0.16226562 -0.73578125 0.08234375 0 0 Z " fill="#5D5E5D" transform="translate(586,412)"/>
<path d="M0 0 C0.495 0.391875 0.99 0.78375 1.5 1.1875 C0.25336669 1.69583591 -0.99749387 2.19381145 -2.25 2.6875 C-2.94609375 2.9659375 -3.6421875 3.244375 -4.359375 3.53125 C-6.5 4.1875 -6.5 4.1875 -10.5 4.1875 C-10.5 3.5275 -10.5 2.8675 -10.5 2.1875 C-3.28774617 -1.06851751 -3.28774617 -1.06851751 0 0 Z " fill="#595959" transform="translate(883.5,385.8125)"/>
<path d="M0 0 C0 0.66 0 1.32 0 2 C-4.455 2.495 -4.455 2.495 -9 3 C-9 2.34 -9 1.68 -9 1 C-3.375 -1.125 -3.375 -1.125 0 0 Z " fill="#545454" transform="translate(586,492)"/>
<path d="M0 0 C1.32 0.99 2.64 1.98 4 3 C3.67 3.99 3.34 4.98 3 6 C0.9375 6.6875 0.9375 6.6875 -1 7 C-1.33 5.35 -1.66 3.7 -2 2 C-1.34 2 -0.68 2 0 2 C0 1.34 0 0.68 0 0 Z " fill="#3C3E3D" transform="translate(308,410)"/>
<path d="M0 0 C2.31 0.33 4.62 0.66 7 1 C7.33 2.32 7.66 3.64 8 5 C4.62537285 4.45276317 2.91765 3.9451 0 2 C0 1.34 0 0.68 0 0 Z " fill="#3E403F" transform="translate(242,558)"/>
<path d="M0 0 C1.32 0.66 2.64 1.32 4 2 C3.34 3.65 2.68 5.3 2 7 C1.01 6.67 0.02 6.34 -1 6 C-0.67 4.02 -0.34 2.04 0 0 Z " fill="#474848" transform="translate(207,442)"/>
<path d="M0 0 C1.22589844 0.01353516 1.22589844 0.01353516 2.4765625 0.02734375 C3.41628906 0.04474609 3.41628906 0.04474609 4.375 0.0625 C0.68765242 2.52073172 -2.32199971 3.07492616 -6.625 4.0625 C-6.625 3.0725 -6.625 2.0825 -6.625 1.0625 C-4.21954362 -0.14022819 -2.67503047 -0.03821472 0 0 Z " fill="#787979" transform="translate(751.625,432.9375)"/>
<path d="M0 0 C2.0625 0.4375 2.0625 0.4375 4 1 C2.515 3.475 2.515 3.475 1 6 C0.01 5.67 -0.98 5.34 -2 5 C-1.125 1.125 -1.125 1.125 0 0 Z " fill="#464749" transform="translate(235,410)"/>
<path d="M0 0 C0 0.66 0 1.32 0 2 C-2.64 2.33 -5.28 2.66 -8 3 C-8.33 2.01 -8.66 1.02 -9 0 C-3.375 -1.125 -3.375 -1.125 0 0 Z " fill="#636666" transform="translate(743,380)"/>
<path d="M0 0 C0 0.66 0 1.32 0 2 C-2.97 2 -5.94 2 -9 2 C-9 1.34 -9 0.68 -9 0 C-5.67465243 -1.10844919 -3.37817425 -0.84454356 0 0 Z " fill="#5F6060" transform="translate(750,392)"/>
<path d="M0 0 C0 1.32 0 2.64 0 4 C-1.65 4 -3.3 4 -5 4 C-5 3.34 -5 2.68 -5 2 C-5.99 1.67 -6.98 1.34 -8 1 C-5.10765685 0.17361624 -3.11257569 0 0 0 Z " fill="#474948" transform="translate(599,410)"/>
<path d="M0 0 C0.66 0.33 1.32 0.66 2 1 C0.71034824 2.37562854 -0.62689293 3.70766393 -2 5 C-2.66 5 -3.32 5 -4 5 C-3.6875 3.0625 -3.6875 3.0625 -3 1 C-2.01 0.67 -1.02 0.34 0 0 Z M-6 5 C-5.01 5.495 -5.01 5.495 -4 6 C-4.99 6.495 -4.99 6.495 -6 7 C-6 6.34 -6 5.68 -6 5 Z " fill="#424242" transform="translate(411,536)"/>
<path d="M0 0 C1.98 0 3.96 0 6 0 C6.33 0.66 6.66 1.32 7 2 C4.36 2.33 1.72 2.66 -1 3 C-0.67 2.01 -0.34 1.02 0 0 Z " fill="#474949" transform="translate(389,462)"/>
<path d="M0 0 C0 0.99 0 1.98 0 3 C-1.98 3 -3.96 3 -6 3 C-6.33 2.34 -6.66 1.68 -7 1 C-4.53721199 -0.231394 -2.7204945 -0.07159196 0 0 Z " fill="#575758" transform="translate(595,424)"/>
<path d="M0 0 C1.65 0.33 3.3 0.66 5 1 C4.67 1.66 4.34 2.32 4 3 C1.36 3 -1.28 3 -4 3 C-4 2.34 -4 1.68 -4 1 C-2.68 1.33 -1.36 1.66 0 2 C0 1.34 0 0.68 0 0 Z " fill="#585859" transform="translate(644,412)"/>
<path d="M0 0 C0.66 0.99 1.32 1.98 2 3 C-0.64 3.33 -3.28 3.66 -6 4 C-5.67 3.01 -5.34 2.02 -5 1 C-3.35 0.67 -1.7 0.34 0 0 Z " fill="#575757" transform="translate(720,383)"/>
<path d="M0 0 C0 0.99 0 1.98 0 3 C-2.31 3.66 -4.62 4.32 -7 5 C-5.22678182 1.07358831 -4.52021524 0 0 0 Z " fill="#565656" transform="translate(921,371)"/>
<path d="M0 0 C0 3 0 3 -1.1875 4.5625 C-3.32699313 6.25933938 -5.43483454 7.09872565 -8 8 C-5.33333333 5.33333333 -2.66666667 2.66666667 0 0 Z " fill="#323334" transform="translate(293,312)"/>
<path d="M0 0 C1.32 0.33 2.64 0.66 4 1 C4 2.98 4 4.96 4 7 C3.34 7 2.68 7 2 7 C1.34 4.69 0.68 2.38 0 0 Z " fill="#535756" transform="translate(216,508)"/>
<path d="M0 0 C0 0.66 0 1.32 0 2 C-2.31 2.66 -4.62 3.32 -7 4 C-7 3.01 -7 2.02 -7 1 C-4 0 -4 0 0 0 Z " fill="#636564" transform="translate(849,398)"/>
</svg>
