<svg xmlns="http://www.w3.org/2000/svg" width="1080" height="787"><path d="M308.436 295.671c-10.751 6.201-62.78 70.21-72.407 89.079-2.077 4.073-4.674 7.96-5.769 8.637-2.893 1.788-20.801 40.579-25.192 54.57-5.32 16.95-6.545 42.939-2.728 57.843 4.58 17.882 9.641 26.808 22.545 39.76 33.838 33.965 84.2 37.327 172.015 11.485 39.319-11.572 178.015-58.714 256.5-87.184 11.385-4.13 32.04-11.467 45.9-16.305 13.86-4.838 38.97-13.739 55.8-19.78 16.83-6.04 39.51-14.089 50.4-17.886 10.89-3.797 34.38-12.308 52.2-18.914 17.82-6.606 42.93-15.731 55.8-20.279 12.87-4.548 23.805-8.787 24.3-9.42.495-.634 4.545-2.203 9-3.487 4.455-1.284 13.976-4.765 21.159-7.734 14.169-5.858 17.209-10.127 13.308-18.689-1.61-3.533-3.327-4.367-8.988-4.367-8.156 0-49.062 7.461-68.837 12.555-7.512 1.935-30.597 6.77-51.3 10.745-59.055 11.337-229.033 46.496-231.168 47.816-.681.421-11.616 2.831-24.3 5.354-12.684 2.524-34.877 7.445-49.318 10.936-37.192 8.991-112.286 25.476-126.156 27.695-35.523 5.683-66.12-.519-84.506-17.13-21.055-19.022-27.817-58.455-18.237-106.346 4.9-24.495 4.595-30.158-1.657-30.754-2.475-.235-6.239.575-8.364 1.8m-8.253 40.479c-2.64 16.344-.602 57.129 3.44 68.85 7.522 21.811 20.523 38.789 36.266 47.357 12.136 6.605 34.199 12.043 48.863 12.043 21.945 0 78.255-8.654 112.548-17.297 36.081-9.094 142.2-32.45 228.6-50.314 100.612-20.802 142.552-29.527 153.9-32.015 6.435-1.412 14.94-3.071 18.9-3.688 7.146-1.114 7.164-1.102 2.409 1.57-2.635 1.481-14.785 6.27-27 10.642s-35.979 12.969-52.809 19.105c-57.841 21.087-95.441 34.511-117.9 42.094-12.375 4.178-24.12 8.471-26.1 9.541-1.98 1.069-12.915 4.912-24.3 8.539-11.385 3.628-23.535 7.917-27 9.532-3.465 1.615-14.4 5.544-24.3 8.732-9.9 3.187-35.415 11.968-56.7 19.512-41.482 14.702-96.916 33.458-137.7 46.588-22.014 7.088-34.862 10.255-71.1 17.528-16.616 3.335-45.389 3.881-60.3 1.145-31.839-5.842-45.255-14.62-56.2-36.772-6.798-13.759-6.8-13.77-6.709-36.353.08-19.823.699-24.353 5.049-36.989 4.274-12.414 24.544-52.283 27.912-54.9.637-.495 4.279-5.674 8.094-11.51 9.772-14.948 40.284-52.919 42.732-53.177.592-.062.325 4.545-.595 10.237" fill="#4D4F4F" fill-rule="evenodd"/></svg>