<?xml version="1.0" encoding="UTF-8"?>
<svg version="1.1" xmlns="http://www.w3.org/2000/svg" width="1080" height="787">
<path d="M0 0 C4.30810661 2.38782653 7.70632366 5.65036687 11.2890625 8.99609375 C20.53012951 17.35887753 30.85641661 25.66217585 41.8125 31.625 C48.75527325 35.68586737 53.29851443 40.59350811 57.4375 47.4375 C57.86611328 48.10652344 58.29472656 48.77554688 58.73632812 49.46484375 C63.72948417 57.55048489 64.47218784 65.62824958 65.46484375 74.9765625 C66.77541423 82.09551932 70.27392213 86.15161152 75.3125 91 C76.18479248 91.85585693 76.18479248 91.85585693 77.07470703 92.72900391 C80.73024973 96.29110122 84.47644822 99.718751 88.3671875 103.0234375 C90.20427024 104.6319055 91.91407787 106.32088868 93.625 108.0625 C97.28765799 111.77443142 101.15916505 115.17910615 105.125 118.5625 C105.86508301 119.19792725 105.86508301 119.19792725 106.62011719 119.84619141 C110.42979172 123.11572244 114.26726571 126.34987177 118.125 129.5625 C118.81335938 130.14257812 119.50171875 130.72265625 120.2109375 131.3203125 C137.44778878 145.09473951 162.06679122 155.26296995 184.125 153.5625 C202.89778141 151.35744314 221.4287145 142.21388802 233.7578125 127.671875 C239.73656335 119.81859831 245.15631342 111.55616041 250.60351562 103.32958984 C256.78956434 93.99704125 263.21034705 85.50150573 271.125 77.5625 C271.77726563 76.88703125 272.42953125 76.2115625 273.1015625 75.515625 C279.42037011 69.43881427 288.77574784 64.02372767 297.5 62.4375 C304.23962497 62.66990086 308.43312939 64.46060203 313.25 69.25 C318.4247251 75.51040271 320.751497 82.92640537 323.125 90.5625 C323.516875 91.80644531 323.90875 93.05039063 324.3125 94.33203125 C326.15421245 100.69000181 327.40764342 106.88661067 328.1171875 113.46484375 C328.19993927 114.19802826 328.28269104 114.93121277 328.36795044 115.68661499 C328.62525044 117.9780604 328.87600575 120.27013837 329.125 122.5625 C329.28122415 123.99048134 329.4374736 125.41845992 329.59375 126.84643555 C329.82478202 128.96259651 330.05560937 131.07877926 330.286026 133.19500732 C332.36002856 152.18880376 334.47106043 171.18909296 339.41983032 189.69190979 C341.86233499 199.63480751 342.44474483 209.55360706 342.5390625 219.75390625 C342.55785555 221.11827528 342.57734665 222.48263485 342.59747314 223.84698486 C342.64893241 227.51016479 342.68839983 231.17338489 342.72548676 234.83673477 C342.75858265 237.9261739 342.79980615 241.01548631 342.84067726 244.10483074 C343.05744164 260.69036949 343.15544928 277.27256697 343.078125 293.859375 C343.0748243 294.59463598 343.07152359 295.32989697 343.06812286 296.08743858 C343.05821721 298.29356307 343.04815978 300.49968682 343.03808594 302.70581055 C342.91631553 329.45089413 343.33086142 355.93525053 345.93499756 382.5791626 C346.34382929 386.84674601 346.69514681 391.11936329 347.05126953 395.39160156 C347.21530076 397.34341986 347.38586452 399.29471167 347.56591797 401.24511719 C348.39199277 410.4580719 348.22868911 419.48188576 347.375 428.6875 C347.313125 429.52925781 347.25125 430.37101562 347.1875 431.23828125 C346.24141663 441.4086775 342.34485137 446.9867853 334.62890625 453.5234375 C333.80261719 454.19632813 332.97632813 454.86921875 332.125 455.5625 C331.53589844 456.07039063 330.94679688 456.57828125 330.33984375 457.1015625 C322.45615164 463.41626429 312.40826047 464.868552 302.6875 466.25 C301.8617749 466.36939941 301.0360498 466.48879883 300.18530273 466.61181641 C281.39065091 469.03320252 262.28674551 468.70137317 243.37866211 468.66015625 C240.75733468 468.65823207 238.13600688 468.65677064 235.51467896 468.6557312 C229.90679716 468.65286928 224.29892887 468.64646971 218.69105339 468.63766479 C210.53554109 468.6249595 202.38003359 468.61899856 194.224513 468.61473143 C180.92286482 468.60768941 167.62122278 468.59691591 154.31958008 468.58300781 C153.52655944 468.58218 152.73353879 468.58135219 151.91648722 468.58049929 C145.49805849 468.5737697 139.07962996 468.56685544 132.66120148 468.55989647 C127.08378609 468.55385013 121.50637065 468.54786595 115.92895508 468.54199219 C115.14390022 468.54116406 114.35884536 468.54033593 113.55000096 468.53948271 C100.3189403 468.52565292 87.08787953 468.5159701 73.85681349 468.50908184 C66.4691148 468.50506178 59.08142993 468.49893797 51.69373894 468.48733521 C10.20948472 468.42301899 -31.25946571 468.53177659 -72.69799805 470.69995117 C-76.02680966 470.8731431 -79.35605326 471.03388169 -82.68554688 471.19335938 C-85.03392615 471.31107254 -87.38223099 471.43027799 -89.73046875 471.55078125 C-91.62600243 471.64698509 -91.62600243 471.64698509 -93.55982971 471.74513245 C-100.69711054 472.12700405 -107.81211147 472.62747777 -114.93018913 473.27821732 C-162.26972128 477.59356326 -209.63524556 477.14102968 -257.12833971 477.02023345 C-266.41961539 476.99827085 -275.71074036 477.00203517 -285.00202912 477.0124411 C-295.26159677 477.02338262 -305.52108753 477.01691152 -315.78064919 477.00288582 C-320.05487806 476.99727432 -324.32904785 476.99708592 -328.60327721 477.00195122 C-356.94040725 477.02598824 -385.02721592 475.89311352 -413.28273165 473.75562811 C-417.74311936 473.42332214 -422.20503055 473.11302632 -426.66699219 472.8026886 C-427.4744521 472.74649764 -428.28191201 472.69030668 -429.1138404 472.63241297 C-430.59289467 472.52950769 -432.07195088 472.42663029 -433.55100948 472.32378721 C-437.61147652 472.03985062 -441.67100354 471.74316461 -445.73046875 471.4453125 C-453.16775072 470.90189869 -460.60561721 470.3671771 -468.04399872 469.83904839 C-474.03469835 469.41346017 -480.02508527 468.98361335 -486.01531219 468.55142403 C-489.73628715 468.2830995 -493.45736057 468.01641912 -497.17877197 467.75421143 C-561.06573488 463.24660335 -561.06573488 463.24660335 -588.1875 455.125 C-589.57437012 454.71072754 -589.57437012 454.71072754 -590.98925781 454.28808594 C-600.57057288 451.26845665 -608.81677086 447.87338922 -615.25 439.9375 C-616.01340698 439.02315186 -616.01340698 439.02315186 -616.79223633 438.09033203 C-620.8645305 433.01172342 -623.35604675 427.91840365 -624.875 421.5625 C-625.05933594 420.93988281 -625.24367188 420.31726563 -625.43359375 419.67578125 C-630.22741866 396.72481419 -620.06856301 371.52125495 -609.8125 351.5390625 C-608.06651489 348.07672893 -606.6851967 344.54745578 -605.33886719 340.9140625 C-601.965538 331.87953406 -597.87188495 323.45653608 -593.125 315.0625 C-592.57013916 314.07757568 -592.01527832 313.09265137 -591.44360352 312.07788086 C-585.13023599 301.14851331 -585.13023599 301.14851331 -578.49609375 298.52734375 C-577.24626709 298.02775146 -577.24626709 298.02775146 -575.97119141 297.51806641 C-575.09382324 297.18210449 -574.21645508 296.84614258 -573.3125 296.5 C-571.95777588 295.972854 -571.95777588 295.972854 -570.57568359 295.43505859 C-560.96005786 291.746328 -551.92857962 289.51077111 -541.71582031 288.18115234 C-538.00593066 287.58358939 -534.52749567 286.72166688 -530.9140625 285.69921875 C-523.70446956 283.71309443 -516.43295833 282.1682977 -509.09680176 280.72622681 C-496.37236217 278.21552605 -483.72695956 275.44104077 -471.125 272.375 C-470.45438538 272.21277954 -469.78377075 272.05055908 -469.09283447 271.88342285 C-459.95219251 269.66598909 -450.8996062 267.21125013 -441.875 264.5625 C-440.52414307 264.16792603 -440.52414307 264.16792603 -439.14599609 263.76538086 C-436.74101298 263.05890821 -434.33865938 262.34435354 -431.9375 261.625 C-431.08833008 261.37121582 -430.23916016 261.11743164 -429.36425781 260.85595703 C-423.03188001 258.94814053 -416.78405691 256.85371852 -410.53125 254.69921875 C-407.25858503 253.6817556 -404.04486468 252.91403518 -400.70019531 252.20068359 C-393.55500965 250.64891739 -388.51692409 248.35731635 -382.78515625 243.71484375 C-377.53673918 239.83312857 -371.57881297 237.23117627 -365.70214844 234.43359375 C-349.22154983 226.57646176 -333.70191322 217.22596821 -318.58618164 207.01660156 C-313.16034637 203.3694708 -307.63306459 199.9592746 -301.99829102 196.64672852 C-298.4868196 194.57002126 -295.11960114 192.3875657 -291.8125 190 C-281.65610001 182.70162618 -270.19881339 177.00914932 -259.125 171.25 C-258.51025818 170.92923492 -257.89551636 170.60846985 -257.262146 170.27798462 C-248.34285555 165.64014237 -239.32295464 161.52940975 -230 157.75 C-220.69545008 153.96499242 -212.62153764 149.70493231 -204.54736328 143.7578125 C-201.64075527 141.68033033 -198.59206461 139.82868523 -195.5625 137.9375 C-190.52702119 134.75177471 -185.88493861 131.26090651 -181.30078125 127.45703125 C-178.75568365 125.46931412 -176.13287092 123.80286552 -173.375 122.125 C-169.55025848 119.76265965 -166.28538968 117.25492694 -163 114.1875 C-157.3991881 108.96007556 -151.21417522 104.81467179 -144.875 100.5625 C-143.14246443 99.35900206 -141.41301182 98.15104677 -139.6875 96.9375 C-138.47900391 96.09251953 -138.47900391 96.09251953 -137.24609375 95.23046875 C-135.69115231 94.13663021 -134.14144873 93.03529935 -132.59765625 91.92578125 C-127.47822795 88.27148052 -122.23383253 84.9113937 -116.875 81.625 C-111.23192002 78.15663776 -105.9945803 74.47616996 -100.8984375 70.2265625 C-98.35269421 68.13295895 -95.61649622 66.39016415 -92.875 64.5625 C-86.41410679 59.80769483 -86.41410679 59.80769483 -80.8828125 54.0625 C-78.75707915 51.41567248 -76.5577782 49.57196709 -73.875 47.5 C-69.61735963 44.10066379 -65.78143949 40.54140164 -62 36.625 C-57.05052489 31.52661982 -51.80089212 27.21575152 -46.078125 23.01171875 C-43.62338735 21.1881222 -41.34000804 19.23124922 -39.05859375 17.1953125 C-34.79857346 13.42573836 -30.30469326 10.06679348 -25.6875 6.75 C-24.51670898 5.89245117 -24.51670898 5.89245117 -23.32226562 5.01757812 C-15.98040125 -0.28176588 -8.945454 -3.95768571 0 0 Z " fill="#E8E8E8" transform="translate(674.875,155.4375)"/>
<path d="M0 0 C5.65258975 -0.30281731 10.67008978 1.38290232 15.96875 3.20703125 C15.96875 3.86703125 15.96875 4.52703125 15.96875 5.20703125 C16.67 5.47515625 17.37125 5.74328125 18.09375 6.01953125 C23.43154453 8.22427247 26.98663536 9.91057177 30.5859375 14.5625 C32.08609417 16.34658462 33.68690949 17.76726823 35.46875 19.26953125 C43.72264053 26.31744537 51.40643634 34.18046493 58.4296875 42.44921875 C60.54564445 44.86592085 62.83489206 47.08558178 65.12744141 49.33325195 C66.90341341 51.14054247 68.55639253 53.00464444 70.203125 54.9296875 C73.88653295 59.16307576 77.7492041 63.17981977 81.71875 67.14453125 C82.41830811 67.84328369 83.11786621 68.54203613 83.83862305 69.26196289 C89.28419181 74.64375304 94.93655858 79.489784 100.96875 84.20703125 C102.73987386 85.70668821 104.5107004 87.20669635 106.28125 88.70703125 C121.34818963 100.99566996 139.21061512 111.01861096 157.96875 116.20703125 C158.29875 116.53703125 158.62875 116.86703125 158.96875 117.20703125 C160.77393926 117.57792086 162.58836428 117.90444429 164.40625 118.20703125 C169.75348581 119.09939916 169.75348581 119.09939916 171.96875 120.20703125 C176.44074155 120.44576897 180.91715239 120.43561652 185.39477539 120.44726562 C187.60278556 120.45680038 189.80979358 120.4877324 192.01757812 120.51953125 C206.57368133 120.62862169 219.54858389 118.09024475 232.96875 112.20703125 C233.70174316 111.88959961 234.43473633 111.57216797 235.18994141 111.24511719 C245.78638119 106.61201369 255.10772019 101.72707435 263.96875 94.20703125 C264.83757813 93.5109375 265.70640625 92.81484375 266.6015625 92.09765625 C278.08211584 82.47786538 284.81893599 69.38568495 291.55834961 56.26757812 C302.31642586 35.39145492 302.31642586 35.39145492 308.96875 29.20703125 C309.62875 29.53703125 310.28875 29.86703125 310.96875 30.20703125 C310.53304687 30.81289062 310.09734375 31.41875 309.6484375 32.04296875 C303.72413836 40.37802165 298.21958643 48.45452196 294.96875 58.20703125 C294.30875 58.20703125 293.64875 58.20703125 292.96875 58.20703125 C292.85321777 58.944375 292.73768555 59.68171875 292.61865234 60.44140625 C291.96149504 63.23790435 291.08729792 65.03791828 289.5703125 67.45703125 C289.09078125 68.23046875 288.61125 69.00390625 288.1171875 69.80078125 C287.61445312 70.59484375 287.11171875 71.38890625 286.59375 72.20703125 C285.60674648 73.7903494 284.61976666 75.37368233 283.6328125 76.95703125 C283.16584961 77.69727539 282.69888672 78.43751953 282.21777344 79.20019531 C281.2216444 80.80069974 280.27076484 82.42934018 279.3359375 84.06640625 C277.90917388 86.30031043 276.4939492 87.75792344 274.46875 89.45703125 C273.41880859 90.34068359 273.41880859 90.34068359 272.34765625 91.2421875 C271.56261719 91.89058594 270.77757812 92.53898437 269.96875 93.20703125 C269.07027344 93.96886719 268.17179688 94.73070312 267.24609375 95.515625 C262.35628014 99.61176873 257.65501635 103.30071734 251.96875 106.20703125 C253.54022294 110.06428302 255.94479104 112.38466955 258.96875 115.20703125 C259.48566406 115.70589844 260.00257813 116.20476562 260.53515625 116.71875 C266.66227914 122.36252677 273.31085051 125.0236694 281.39453125 126.66015625 C294.73991876 129.49529168 305.92208544 133.83014433 315.96875 143.20703125 C315.63875 143.86703125 315.30875 144.52703125 314.96875 145.20703125 C314.51886719 144.83191406 314.06898438 144.45679688 313.60546875 144.0703125 C305.14556041 137.33968402 296.25270972 134.12621473 285.87963867 131.64477539 C271.52852316 128.20657608 258.97823799 122.30548655 249.96875 110.20703125 C246.29469521 110.80194048 243.41021299 111.85096809 240.09375 113.51953125 C234.3100186 116.23851367 228.53189715 117.79644714 222.3515625 119.3125 C219.08957623 120.07497937 219.08957623 120.07497937 216.6484375 121.2578125 C198.25859929 127.77199717 169.96202904 124.59683082 151.96875 118.20703125 C150.31166016 117.63082031 150.31166016 117.63082031 148.62109375 117.04296875 C145.65386629 115.89360792 142.82524885 114.60825974 139.96875 113.20703125 C138.84984375 112.66691406 137.7309375 112.12679687 136.578125 111.5703125 C120.69352366 103.63336884 106.0767116 93.14867021 92.96875 81.20703125 C92.30681641 80.60536133 91.64488281 80.00369141 90.96289062 79.38378906 C88.81035213 77.41735751 86.66823739 75.44034709 84.53125 73.45703125 C83.86843018 72.8429541 83.20561035 72.22887695 82.52270508 71.59619141 C78.87833344 68.16766271 75.51469683 64.64896723 72.35107422 60.77026367 C70.86255389 59.086937 69.26778489 57.69253931 67.53125 56.26953125 C62.57108928 52.15411406 58.59158215 47.18647301 54.515625 42.21484375 C53.64647879 41.19085805 52.7766904 40.16741705 51.90625 39.14453125 C51.11089844 38.18417969 50.31554687 37.22382813 49.49609375 36.234375 C47.13914625 33.87293607 47.13914625 33.87293607 44.14379883 34.41015625 C40.92345485 35.21839945 38.52157204 36.29639261 35.640625 37.9296875 C34.67640625 38.46787109 33.7121875 39.00605469 32.71875 39.56054688 C31.23375 40.40649414 31.23375 40.40649414 29.71875 41.26953125 C27.73641739 42.38904088 25.75213859 43.50511369 23.765625 44.6171875 C22.89260742 45.11355713 22.01958984 45.60992676 21.12011719 46.12133789 C18.96875 47.20703125 18.96875 47.20703125 16.96875 47.20703125 C16.96875 47.86703125 16.96875 48.52703125 16.96875 49.20703125 C16.01484375 49.58472656 15.0609375 49.96242188 14.078125 50.3515625 C8.30189371 52.82522046 3.01815349 56.2102164 -2.35546875 59.44335938 C-3.17144531 59.92611328 -3.98742187 60.40886719 -4.828125 60.90625 C-5.93172363 61.56886841 -5.93172363 61.56886841 -7.05761719 62.24487305 C-9.03125 63.20703125 -9.03125 63.20703125 -12.03125 63.20703125 C-12.03125 63.86703125 -12.03125 64.52703125 -12.03125 65.20703125 C-18.5799373 68.63566334 -25.06514073 71.77194557 -32.0703125 74.15234375 C-34.6677956 75.0775686 -37.18817405 76.09702684 -39.734375 77.15234375 C-43.95523627 78.85401317 -48.16239454 80.14236271 -52.5637207 81.28344727 C-70.86652876 86.03883359 -83.80514259 93.91515758 -98.03125 106.20703125 C-108.60296664 115.20293485 -119.49657208 122.72885149 -133.015625 126.375 C-138.21750389 127.81023342 -143.30776473 129.78339122 -148.09375 132.28515625 C-150.03125 133.20703125 -150.03125 133.20703125 -153.46875 133.83203125 C-163.65904207 136.31838717 -171.94691382 143.78922438 -179.55981445 150.62231445 C-184.6409498 155.09192996 -190.11664888 158.61293184 -195.96606445 161.99755859 C-200.00167071 164.21565073 -200.00167071 164.21565073 -202.03125 168.20703125 C-201.37125 168.20703125 -200.71125 168.20703125 -200.03125 168.20703125 C-199.64195312 169.06683594 -199.25265625 169.92664063 -198.8515625 170.8125 C-190.02529885 189.46154094 -176.22314592 204.57402248 -160.03125 217.20703125 C-158.0890063 218.78270627 -156.15506595 220.36827679 -154.22070312 221.95361328 C-148.64855594 226.51755503 -143.03236478 230.9959842 -137.28125 235.33203125 C-130.82464549 240.25859673 -124.90841655 245.61592148 -119.03125 251.20703125 C-118.36351562 251.82191406 -117.69578125 252.43679688 -117.0078125 253.0703125 C-109.13118528 260.53706998 -103.44136096 269.86389753 -97.90234375 279.1171875 C-96.79512561 280.94559992 -95.65376745 282.75516929 -94.44140625 284.515625 C-90.5579099 290.29451479 -88.36496778 296.4619647 -86.15625 303.01953125 C-85.84550537 303.93992187 -85.53476074 304.8603125 -85.21459961 305.80859375 C-83.8197356 310.12063728 -82.86017571 313.6371207 -83.03125 318.20703125 C-83.69125 318.20703125 -84.35125 318.20703125 -85.03125 318.20703125 C-85.25039063 317.44261719 -85.46953125 316.67820312 -85.6953125 315.890625 C-91.63073336 295.84048379 -99.85825927 276.85221644 -114.03125 261.20703125 C-114.7840625 260.34722656 -115.536875 259.48742187 -116.3125 258.6015625 C-118.51911516 256.10400664 -120.76215199 253.64784479 -123.03125 251.20703125 C-123.96517578 250.19189453 -123.96517578 250.19189453 -124.91796875 249.15625 C-130.70532646 243.10197013 -137.34998635 238.2117542 -144.03125 233.20703125 C-169.51824478 213.85826558 -169.51824478 213.85826558 -179.43359375 202.6171875 C-181.9931147 199.76977935 -181.9931147 199.76977935 -185.65625 199.08203125 C-186.44 199.12328125 -187.22375 199.16453125 -188.03125 199.20703125 C-189.84375 197.83203125 -189.84375 197.83203125 -191.03125 196.20703125 C-191.03125 195.54703125 -191.03125 194.88703125 -191.03125 194.20703125 C-190.37125 193.87703125 -189.71125 193.54703125 -189.03125 193.20703125 C-189.41458496 192.59182617 -189.79791992 191.97662109 -190.19287109 191.34277344 C-191.93247847 188.54865095 -193.66939025 185.75286244 -195.40625 182.95703125 C-196.00953125 181.98894531 -196.6128125 181.02085937 -197.234375 180.0234375 C-197.81445312 179.08886719 -198.39453125 178.15429688 -198.9921875 177.19140625 C-199.52634277 176.33256836 -200.06049805 175.47373047 -200.61083984 174.58886719 C-201.857541 172.49831777 -202.97896369 170.40040441 -204.03125 168.20703125 C-209.43463581 167.82351017 -213.43214971 169.18962523 -218.40625 171.01953125 C-224.3087259 173.09966972 -230.04096077 174.76205054 -236.21875 175.76953125 C-242.76727032 176.85048784 -248.82555528 178.67152047 -255.08203125 180.87890625 C-260.26124559 182.67553317 -265.56151322 184.04840486 -270.86669922 185.41943359 C-275.25140141 186.58546226 -278.9638139 188.15995106 -283.03125 190.20703125 C-285.69497481 191.02852835 -288.34234626 191.79545402 -291.03125 192.51953125 C-297.87484824 194.4443858 -304.2117144 196.84007405 -310.7109375 199.734375 C-316.07359624 202.11287188 -321.51927588 204.20267702 -327.03125 206.20703125 C-328.26488281 206.67625 -329.49851562 207.14546875 -330.76953125 207.62890625 C-341.75929681 211.60273083 -354.89728167 214.10160994 -366.15625 209.64453125 C-371.46231925 206.72462332 -375.77877198 202.45950927 -380.03125 198.20703125 C-380.03125 197.21703125 -380.03125 196.22703125 -380.03125 195.20703125 C-379.37125 195.20703125 -378.71125 195.20703125 -378.03125 195.20703125 C-377.01269374 196.40376062 -376.04146385 197.64095376 -375.09375 198.89453125 C-369.92583215 204.86894141 -364.23918182 207.73948327 -356.375 208.61328125 C-344.91330234 208.89283485 -335.82491786 206.09206484 -325.43359375 201.61328125 C-321.32035521 199.91320562 -317.16129818 198.38617056 -312.96875 196.89453125 C-311.86055908 196.49463989 -311.86055908 196.49463989 -310.72998047 196.08666992 C-307.70780373 195.02201562 -305.25973753 194.20703125 -302.03125 194.20703125 C-302.03125 193.54703125 -302.03125 192.88703125 -302.03125 192.20703125 C-301.1134375 191.95308594 -300.195625 191.69914063 -299.25 191.4375 C-293.48974423 189.82196608 -287.78615607 188.20674107 -282.20703125 186.03515625 C-261.83699313 178.28210763 -240.36644668 172.72070276 -219.22265625 167.515625 C-205.28674403 163.97602465 -194.86340331 159.00285476 -183.92480469 149.78369141 C-168.71852332 137.12224671 -154.60826893 129.48620229 -135.62890625 123.91015625 C-120.19031986 119.24970288 -106.01363148 111.18941273 -94.53125 99.70703125 C-83.42933886 88.60512011 -70.25283016 83.27553923 -55.59375 78.64453125 C-43.0960729 74.65549059 -30.93310626 70.37812329 -19.21875 64.39453125 C-18.21110596 63.8847876 -18.21110596 63.8847876 -17.18310547 63.36474609 C-7.0394275 58.20859417 2.95790907 52.79167208 12.90625 47.26953125 C13.65592041 46.85340576 14.40559082 46.43728027 15.17797852 46.00854492 C18.9647198 43.90008802 22.73762315 41.77074771 26.4921875 39.60546875 C27.21414307 39.19159912 27.93609863 38.77772949 28.67993164 38.35131836 C30.04197278 37.56909815 31.40076726 36.78118633 32.75561523 35.98657227 C36.13962363 34.04707159 39.08004438 32.68849004 42.96875 32.20703125 C36.1536179 20.07948251 21.44700747 8.15513348 8.25390625 3.6171875 C1.95635272 2.48685738 -3.62356051 3.25138332 -9.65625 5.20703125 C-10.34936279 5.43068359 -11.04247559 5.65433594 -11.7565918 5.88476562 C-23.94855292 10.03924912 -34.31790416 17.58303963 -44.72387695 24.99023438 C-45.49948975 25.53615234 -46.27510254 26.08207031 -47.07421875 26.64453125 C-47.76539795 27.13824219 -48.45657715 27.63195312 -49.16870117 28.140625 C-51.03125 29.20703125 -51.03125 29.20703125 -54.03125 29.20703125 C-52.78358487 25.46403586 -51.6666493 25.09032367 -48.34375 23.08203125 C-44.53731653 20.75206231 -40.77732216 18.38328744 -37.06420898 15.90698242 C-25.53899856 8.28729243 -13.92835604 1.4196209 0 0 Z " fill="#8C8C8C" transform="translate(676.03125,206.79296875)"/>
<path d="M0 0 C12.03227974 10.0678259 21.39996967 21.25104232 29.375 34.75 C29.98178589 35.77649658 29.98178589 35.77649658 30.60083008 36.82373047 C34.56440828 43.70449562 37.75569413 50.83269416 40.25 58.375 C40.58515625 59.37273437 40.9203125 60.37046875 41.265625 61.3984375 C42.10936994 64.38744883 42.41002571 66.17994859 41 69 C40.01 69 39.02 69 38 69 C37.3299166 66.87607494 36.66403203 64.75082476 36 62.625 C35.62875 61.44164062 35.2575 60.25828125 34.875 59.0390625 C34 56 34 56 34 54 C33.34 54 32.68 54 32 54 C31.67 55.98 31.34 57.96 31 60 C30.01 59.67 29.02 59.34 28 59 C27.61866701 57.0085944 27.28674418 55.00720923 27 53 C27.33 52.67 27.66 52.34 28 52 C27.01 52 26.02 52 25 52 C23.23537317 48.91190305 23 47.76687864 23 44 C21.515 43.505 21.515 43.505 20 43 C18.96708324 41.01679982 17.9662501 39.01652194 17 37 C16.34 36.67 15.68 36.34 15 36 C13.6250851 33.09740189 13 31.23861295 13 28 C12.38125 27.71125 11.7625 27.4225 11.125 27.125 C9 26 9 26 7 24 C7 23.01 7 22.02 7 21 C6.01 21 5.02 21 4 21 C3.67 20.01 3.34 19.02 3 18 C2.01 17.67 1.02 17.34 0 17 C0 16.01 0 15.02 0 14 C-0.66 14 -1.32 14 -2 14 C-5 10.53846154 -5 10.53846154 -5 8 C-3.35 8 -1.7 8 0 8 C-0.185625 7.05125 -0.37125 6.1025 -0.5625 5.125 C-1 2 -1 2 0 0 Z " fill="#D9D9D9" transform="translate(547,452)"/>
<path d="M0 0 C2.39704993 2.63335653 4.03124611 5.64576859 5.75 8.75 C6.23082031 9.575 6.71164062 10.4 7.20703125 11.25 C8.50142061 13.48543566 9.76920791 15.72898329 11 18 C11.39993164 18.70801758 11.79986328 19.41603516 12.21191406 20.14550781 C12.47198242 20.75749023 12.73205078 21.36947266 13 22 C12.67 22.66 12.34 23.32 12 24 C10.35 24 8.7 24 7 24 C8.18854293 26.57517635 9.5205702 28.76554442 11.125 31.125 C13 34 13 34 13 36 C13.61875 36.2475 14.2375 36.495 14.875 36.75 C17 38 17 38 17.9375 40 C18.85535534 42.26045461 18.85535534 42.26045461 21.5 42.9375 C24 44 24 44 25.3125 46.625 C25.539375 47.40875 25.76625 48.1925 26 49 C26.66 49 27.32 49 28 49 C29.68933922 50.6436814 31.35259924 52.3142876 33 54 C33.928125 54.721875 34.85625 55.44375 35.8125 56.1875 C36.534375 56.785625 37.25625 57.38375 38 58 C38 58.66 38 59.32 38 60 C30.39582625 57.86132613 24.76412357 50.89953281 19.4453125 45.3828125 C18.02890223 43.89145515 18.02890223 43.89145515 16 43 C15.67 42.01 15.34 41.02 15 40 C13.7934375 39.0409375 13.7934375 39.0409375 12.5625 38.0625 C10.00932795 36.00750786 9.37495546 34.84157463 8 32 C7.37480469 31.55785156 6.74960937 31.11570312 6.10546875 30.66015625 C3.73755358 28.79306173 2.7512645 27.16373775 1.375 24.5 C0.00361036 21.87951023 -1.35400178 19.46899733 -3 17 C-3 15.68 -3 14.36 -3 13 C-3.99 13 -4.98 13 -6 13 C-6.12375 12.030625 -6.2475 11.06125 -6.375 10.0625 C-6.684375 8.5465625 -6.684375 8.5465625 -7 7 C-7.66 6.67 -8.32 6.34 -9 6 C-9 5.01 -9 4.02 -9 3 C-9.99 2.67 -10.98 2.34 -12 2 C-7.8186099 0.40708948 -4.44030731 -0.85941432 0 0 Z " fill="#DBDCDC" transform="translate(472,374)"/>
<path d="M0 0 C1.61068359 0.93199219 1.61068359 0.93199219 3.25390625 1.8828125 C11.89032498 7.08362378 19.50989809 13.28466032 27 20 C27.5986084 20.53157715 28.1972168 21.0631543 28.81396484 21.61083984 C30.63422161 23.23166895 32.44425886 24.86302438 34.25 26.5 C35.09220093 27.2566394 35.09220093 27.2566394 35.95141602 28.02856445 C38.44896775 30.32808961 39.90825429 31.72476288 41 35 C37.993182 33.66000502 36.00237391 32.20154709 33.75 29.8125 C22.99328885 18.78346705 8.88618936 5.96206312 -6 1 C-6 0.34 -6 -0.32 -6 -1 C-17.24548623 -1.54472215 -26.54318105 -1.2222335 -37.09375 2.90625 C-40 4 -40 4 -43 4 C-43 4.66 -43 5.32 -43 6 C-43.76957031 6.24169922 -43.76957031 6.24169922 -44.5546875 6.48828125 C-56.74020487 10.81680678 -67.94803817 18.66379673 -78.46875 26.07421875 C-80 27 -80 27 -82 27 C-82.28875 26.030625 -82.5775 25.06125 -82.875 24.0625 C-85.33187396 18.20195675 -91.36210946 12.81894527 -97 10 C-97 9.34 -97 8.68 -97 8 C-93.06292271 9.34707759 -90.48906988 11.06224864 -87.4375 13.875 C-86.32181641 14.89207031 -86.32181641 14.89207031 -85.18359375 15.9296875 C-83.08555317 17.91888519 -81.04033268 19.9519155 -79 22 C-77.88927124 21.35768433 -77.88927124 21.35768433 -76.75610352 20.70239258 C-73.96641285 19.0896469 -71.17632726 17.47758708 -68.38598633 15.8659668 C-67.18628732 15.17287519 -65.98673882 14.479523 -64.78735352 13.78588867 C-60.86261457 11.51625884 -56.93356045 9.25432297 -53 7 C-52.1438208 6.50910889 -51.2876416 6.01821777 -50.40551758 5.51245117 C-35.11267113 -3.13331788 -16.46616961 -9.62477529 0 0 Z " fill="#979797" transform="translate(696,201)"/>
<path d="M0 0 C1.32 0 2.64 0 4 0 C4.33 0.66 4.66 1.32 5 2 C6.84982472 3.25827123 6.84982472 3.25827123 9 4 C9.99 3.67 10.98 3.34 12 3 C12 2.34 12 1.68 12 1 C13.79516602 0.36669922 13.79516602 0.36669922 16 0 C18.49492455 1.62363385 20.6669822 3.23011054 22.9375 5.125 C23.54529297 5.61226563 24.15308594 6.09953125 24.77929688 6.6015625 C28.40696894 9.54439896 31.75666526 12.63973289 35 16 C34.01 16 33.02 16 32 16 C32 16.66 32 17.32 32 18 C31.34 18.33 30.68 18.66 30 19 C29.34786708 21.02463255 29.34786708 21.02463255 29 23 C26.03824877 22.38722388 24.61941217 21.74627478 22 20 C22 19.34 22 18.68 22 18 C21.34 18 20.68 18 20 18 C20 17.34 20 16.68 20 16 C18.68 15.67 17.36 15.34 16 15 C15.67 13.68 15.34 12.36 15 11 C16.32 10.34 17.64 9.68 19 9 C19 8.01 19 7.02 19 6 C16.69 6 14.38 6 12 6 C12.66 7.65 13.32 9.3 14 11 C9.25 9.125 9.25 9.125 7 8 C7 7.01 7 6.02 7 5 C6.401875 4.87625 5.80375 4.7525 5.1875 4.625 C3 4 3 4 0 2 C0 1.34 0 0.68 0 0 Z " fill="#D6D6D6" transform="translate(512,436)"/>
<path d="M0 0 C-3.06537696 2.04358464 -5.41679919 2.80963371 -8.9375 3.8125 C-15.50808784 5.7763757 -21.71285298 8.27934831 -28 11 C-31.30644234 12.41475004 -34.63173591 13.7392531 -38 15 C-39.17046875 15.44859375 -40.3409375 15.8971875 -41.546875 16.359375 C-52.60062897 20.35552891 -65.79152982 22.92407167 -77.125 18.4375 C-82.43106925 15.51759207 -86.74752198 11.25247802 -91 7 C-91 6.01 -91 5.02 -91 4 C-90.34 4 -89.68 4 -89 4 C-87.98144374 5.19672937 -87.01021385 6.43392251 -86.0625 7.6875 C-80.89458215 13.66191016 -75.20793182 16.53245202 -67.34375 17.40625 C-55.88205234 17.6858036 -46.79366786 14.88503359 -36.40234375 10.40625 C-32.28910521 8.70617437 -28.13004818 7.17913931 -23.9375 5.6875 C-23.19870605 5.42090576 -22.45991211 5.15431152 -21.69873047 4.87963867 C-18.67655373 3.81498437 -16.22848753 3 -13 3 C-13 2.34 -13 1.68 -13 1 C-11.59054634 0.43983252 -10.1719969 -0.09748502 -8.75 -0.625 C-7.96109375 -0.92664063 -7.1721875 -1.22828125 -6.359375 -1.5390625 C-3.50082285 -2.09752136 -2.41040161 -1.53690745 0 0 Z " fill="#959595" transform="translate(387,398)"/>
<path d="M0 0 C0.99 0.495 0.99 0.495 2 1 C0.68 1.33 -0.64 1.66 -2 2 C-1.505 3.485 -1.505 3.485 -1 5 C-1.72703125 5.17015625 -2.4540625 5.3403125 -3.203125 5.515625 C-8.48609803 6.78895696 -13.63056129 8.17162903 -18.75 10 C-23.386825 11.6020321 -27.98584461 12.62089524 -32.8125 13.4375 C-39.48175272 14.57831405 -45.65806297 16.41642073 -52.05078125 18.671875 C-57.22999559 20.46850192 -62.53026322 21.84137361 -67.83544922 23.21240234 C-72.21598012 24.37732173 -75.93414002 25.95849225 -80 28 C-82.5546875 28.51171875 -82.5546875 28.51171875 -84.875 28.6875 C-85.65617187 28.75324219 -86.43734375 28.81898438 -87.2421875 28.88671875 C-87.82226562 28.92410156 -88.40234375 28.96148437 -89 29 C-87.61803503 26.23607006 -86.26962574 26.19079948 -83.375 25.1875 C-82.36050781 24.83558594 -81.34601563 24.48367188 -80.30078125 24.12109375 C-79.21152344 23.75113281 -78.12226563 23.38117188 -77 23 C-75.47439453 22.46052734 -75.47439453 22.46052734 -73.91796875 21.91015625 C-54.92297943 15.34262211 -35.38344317 10.2739417 -15.9453125 5.203125 C-11.67735446 4.06962937 -7.54558955 2.87703905 -3.4375 1.25 C-2.303125 0.8375 -1.16875 0.425 0 0 Z " fill="#929292" transform="translate(473,369)"/>
<path d="M0 0 C-0.33 0.99 -0.66 1.98 -1 3 C-3.31 3.33 -5.62 3.66 -8 4 C-9.15811388 6.94729537 -9.15811388 6.94729537 -9 10 C-17.415 10.495 -17.415 10.495 -26 11 C-25.67 10.01 -25.34 9.02 -25 8 C-23.35 8 -21.7 8 -20 8 C-20 7.34 -20 6.68 -20 6 C-21.98 6 -23.96 6 -26 6 C-26 4.68 -26 3.36 -26 2 C-22.97961911 1.66205529 -19.95880244 1.32951567 -16.9375 1 C-16.08994141 0.90460938 -15.24238281 0.80921875 -14.36914062 0.7109375 C-9.54527411 0.18943842 -4.85163736 -0.10532727 0 0 Z " fill="#D2D2D2" transform="translate(398,469)"/>
<path d="M0 0 C0.99 0.33 1.98 0.66 3 1 C2.34 1.33 1.68 1.66 1 2 C1 2.66 1 3.32 1 4 C0.04609375 4.37769531 -0.9078125 4.75539063 -1.890625 5.14453125 C-7.66685629 7.61818921 -12.95059651 11.00318515 -18.32421875 14.23632812 C-19.14019531 14.71908203 -19.95617187 15.20183594 -20.796875 15.69921875 C-21.53260742 16.14096436 -22.26833984 16.58270996 -23.02636719 17.0378418 C-25 18 -25 18 -28 18 C-28 18.66 -28 19.32 -28 20 C-47.1 30 -47.1 30 -54 30 C-54 29.01 -54 28.02 -54 27 C-53.2471875 26.731875 -52.494375 26.46375 -51.71875 26.1875 C-33.88488321 19.60801517 -15.79935728 10.53290485 0 0 Z " fill="#949494" transform="translate(692,252)"/>
<path d="M0 0 C0.66 0.33 1.32 0.66 2 1 C2 1.66 2 2.32 2 3 C2.86238281 3.36738281 2.86238281 3.36738281 3.7421875 3.7421875 C6.38118711 5.21235683 8.05225424 6.9298781 10.125 9.125 C14.09088566 13.19559552 18.27896365 16.71492496 22.7578125 20.203125 C25.3871333 22.3102462 27.69823815 24.54478736 30 27 C29.67 27.66 29.34 28.32 29 29 C26.83125748 28.49396008 25.00032373 28.00016187 23 27 C23 25.35 23 23.7 23 22 C22.4225 22.20625 21.845 22.4125 21.25 22.625 C18.48032433 23.08661261 17.35438733 22.42944945 15 21 C15 20.01 15 19.02 15 18 C14.1028125 17.566875 14.1028125 17.566875 13.1875 17.125 C11 16 11 16 8 14 C8 13.01 8 12.02 8 11 C5.03 10.505 5.03 10.505 2 10 C2 8.35 2 6.7 2 5 C1.360625 4.896875 0.72125 4.79375 0.0625 4.6875 C-0.618125 4.460625 -1.29875 4.23375 -2 4 C-2.33 3.01 -2.66 2.02 -3 1 C-2.01 0.67 -1.02 0.34 0 0 Z " fill="#C7C7C7" transform="translate(494,407)"/>
<path d="M0 0 C0.99 0 1.98 0 3 0 C0.68266543 5.02089157 -1.28767181 9.1438359 -6.375 11.6875 C-7.57125 12.120625 -8.7675 12.55375 -10 13 C-11.0725 13.556875 -12.145 14.11375 -13.25 14.6875 C-16 16 -16 16 -19 16 C-18.67 14.35 -18.34 12.7 -18 11 C-18.99 10.67 -19.98 10.34 -21 10 C-21 9.01 -21 8.02 -21 7 C-19.96875 6.7525 -18.9375 6.505 -17.875 6.25 C-14.0683297 5.18444117 -11.23955984 3.26015803 -8 1 C-7.34 1 -6.68 1 -6 1 C-6.66 2.65 -7.32 4.3 -8 6 C-4.83622331 6 -3.31144724 4.01510785 -1 2 C-0.67 1.34 -0.34 0.68 0 0 Z " fill="#D5D5D5" transform="translate(421,460)"/>
<path d="M0 0 C-1.48886719 0.87398438 -1.48886719 0.87398438 -3.0078125 1.765625 C-10.8442254 6.46125337 -17.91229323 11.37898735 -24.67675781 17.52294922 C-29.68099437 21.97004553 -35.1297685 25.36619401 -41.0234375 28.52734375 C-43.24767243 29.7307466 -43.24767243 29.7307466 -46 32 C-46.59641127 35.1969377 -46.59641127 35.1969377 -46 38 C-48.54106009 35.79038253 -49.30621489 34.26011642 -50 31 C-49.51273437 30.76667969 -49.02546875 30.53335937 -48.5234375 30.29296875 C-43.44701579 27.68091903 -38.95650392 24.55218498 -34.5 21 C-33.91637695 20.53489014 -33.33275391 20.06978027 -32.73144531 19.59057617 C-31.48652938 18.59520719 -30.24241606 17.59883371 -28.99902344 16.6015625 C-25.39183252 13.71158053 -21.76776198 10.84500672 -18.125 8 C-17.43599609 7.44828125 -16.74699219 6.8965625 -16.03710938 6.328125 C-4.80833333 -2.40416667 -4.80833333 -2.40416667 0 0 Z " fill="#8B8B8B" transform="translate(521,340)"/>
<path d="M0 0 C-3.05209871 1.64784672 -6.05176517 2.65079143 -9.375 3.625 C-21.71305376 7.71784051 -32.19173197 15.30700069 -42.69165039 22.78295898 C-43.46758545 23.32895752 -44.24352051 23.87495605 -45.04296875 24.4375 C-45.73414795 24.93121094 -46.42532715 25.42492187 -47.13745117 25.93359375 C-49 27 -49 27 -52 27 C-50.75233487 23.25700461 -49.6353993 22.88329242 -46.3125 20.875 C-42.50563833 18.54476895 -38.74566707 16.17491031 -35.03125 13.69970703 C-11.40000814 -1.93585044 -11.40000814 -1.93585044 0 0 Z " fill="#949494" transform="translate(674,209)"/>
<path d="M0 0 C1.32 1.32 2.64 2.64 4 4 C3.01 4.33 2.02 4.66 1 5 C2.15684329 7.0995533 2.15684329 7.0995533 4 9 C6.62625139 9.33425735 6.62625139 9.33425735 9 9 C9.33 9.99 9.66 10.98 10 12 C9.01 12 8.02 12 7 12 C8.72226496 15.24849977 8.72226496 15.24849977 12 16 C11.67 17.32 11.34 18.64 11 20 C9.68 20 8.36 20 7 20 C5 17.75 5 17.75 3 15 C2.360625 14.38125 1.72125 13.7625 1.0625 13.125 C-0.71852462 11.29000494 -2.26960932 9.4705355 -3.8125 7.4375 C-4.25207031 6.85871094 -4.69164062 6.27992188 -5.14453125 5.68359375 C-5.42683594 5.12800781 -5.70914062 4.57242187 -6 4 C-5.67 3.01 -5.34 2.02 -5 1 C-3.35 1.33 -1.7 1.66 0 2 C0 1.34 0 0.68 0 0 Z " fill="#E0E0E0" transform="translate(484,396)"/>
<path d="M0 0 C2.15212489 2.70395179 3.6646035 5.28558888 5.0625 8.4375 C9.5191168 17.5810147 16.50491825 25.25229534 23 33 C22.34 33.66 21.68 34.32 21 35 C20.608125 34.34 20.21625 33.68 19.8125 33 C19.214375 32.34 18.61625 31.68 18 31 C16.33385392 30.95834635 14.66614608 30.95834635 13 31 C11.1875 29.625 11.1875 29.625 10 28 C10 27.34 10 26.68 10 26 C10.66 25.67 11.32 25.34 12 25 C11.60095459 24.38479492 11.20190918 23.76958984 10.79077148 23.13574219 C8.99326904 20.34868036 7.21527853 17.54968012 5.4375 14.75 C4.80908203 13.78191406 4.18066406 12.81382812 3.53320312 11.81640625 C2.94345703 10.88183594 2.35371094 9.94726562 1.74609375 8.984375 C1.19622803 8.12553711 0.6463623 7.26669922 0.07983398 6.38183594 C-1 4 -1 4 -0.67163086 1.68847656 C-0.44999268 1.1312793 -0.22835449 0.57408203 0 0 Z " fill="#929393" transform="translate(475,375)"/>
<path d="M0 0 C1.875 0.6875 1.875 0.6875 4 2 C4.66666667 3.66666667 5.33333333 5.33333333 6 7 C7.31647119 7.69937532 8.65022151 8.36729133 10 9 C10.309375 9.66 10.61875 10.32 10.9375 11 C11.85535534 13.26045461 11.85535534 13.26045461 14.5 13.9375 C17 15 17 15 18.3125 17.625 C18.539375 18.40875 18.76625 19.1925 19 20 C19.66 20 20.32 20 21 20 C22.68933922 21.6436814 24.35259924 23.3142876 26 25 C26.928125 25.721875 27.85625 26.44375 28.8125 27.1875 C29.534375 27.785625 30.25625 28.38375 31 29 C31 29.66 31 30.32 31 31 C23.39582625 28.86132613 17.76412357 21.89953281 12.4453125 16.3828125 C11.02890223 14.89145515 11.02890223 14.89145515 9 14 C8.67 13.01 8.34 12.02 8 11 C7.21625 10.38125 6.4325 9.7625 5.625 9.125 C2.91560649 6.93168145 1.54816921 5.09633841 0 2 C0 1.34 0 0.68 0 0 Z " fill="#C2C2C2" transform="translate(479,403)"/>
<path d="M0 0 C0.57331055 0.36367676 1.14662109 0.72735352 1.73730469 1.10205078 C-4.80644792 5.46455252 -11.36169179 7.88912658 -18.86816406 10.08251953 C-23.20510286 11.38509839 -27.45097496 12.91296968 -31.70410156 14.46533203 C-34.37468707 15.12992049 -35.71064185 15.03279969 -38.26269531 14.10205078 C-38.26269531 13.44205078 -38.26269531 12.78205078 -38.26269531 12.10205078 C-37.33972656 11.91771484 -36.41675781 11.73337891 -35.46582031 11.54345703 C-25.98178995 9.48439168 -17.59909817 6.27998038 -8.91601562 1.92456055 C-7.70316895 1.3356604 -7.70316895 1.3356604 -6.46582031 0.73486328 C-5.75071289 0.37279785 -5.03560547 0.01073242 -4.29882812 -0.36230469 C-2.26269531 -0.89794922 -2.26269531 -0.89794922 0 0 Z " fill="#9C9C9C" transform="translate(924.2626953125,313.89794921875)"/>
<path d="M0 0 C-3.19170321 2.7214281 -6.10599636 3.80927368 -10.125 4.9375 C-16.56530852 6.82829924 -23.09667962 8.81352468 -28.98046875 12.109375 C-31.38744463 13.17086533 -33.13274377 13.20197812 -35.75 13.125 C-36.54921875 13.10695313 -37.3484375 13.08890625 -38.171875 13.0703125 C-38.77515625 13.04710937 -39.3784375 13.02390625 -40 13 C-38.31295751 9.62591503 -34.72523318 9.26953691 -31.30078125 8.0703125 C-26.71987242 6.58490538 -22.09062956 5.30115294 -17.44921875 4.01953125 C-13.27095679 2.78450705 -9.24590646 1.26559046 -5.20703125 -0.36328125 C-3 -1 -3 -1 0 0 Z " fill="#8D8D8D" transform="translate(557,327)"/>
<path d="M0 0 C0.66 0.33 1.32 0.66 2 1 C0.68 1.33 -0.64 1.66 -2 2 C-1.505 3.485 -1.505 3.485 -1 5 C-1.72703125 5.17015625 -2.4540625 5.3403125 -3.203125 5.515625 C-8.61651785 6.82039148 -13.87683173 8.25746999 -19.125 10.125 C-24.26981872 11.88506956 -29.51263731 13.32793004 -35 13 C-35.66 12.34 -36.32 11.68 -37 11 C-29.26125725 8.5087609 -21.52502329 6.34057808 -13.62451172 4.44165039 C-10.02276625 3.55994098 -6.56889385 2.56255744 -3.125 1.1875 C-1.578125 0.5996875 -1.578125 0.5996875 0 0 Z " fill="#9E9E9E" transform="translate(473,369)"/>
<path d="M0 0 C0.66 0.33 1.32 0.66 2 1 C1.56429687 1.60585937 1.12859375 2.21171875 0.6796875 2.8359375 C-5.24461164 11.1709904 -10.74916357 19.24749071 -14 29 C-14.66 29 -15.32 29 -16 29 C-16.495 31.475 -16.495 31.475 -17 34 C-18.49038102 30.12500936 -17.44834009 27.78553688 -16 24 C-14.81708174 21.68039247 -13.61579628 19.43564715 -12.3125 17.1875 C-11.9630835 16.57946533 -11.61366699 15.97143066 -11.25366211 15.3449707 C-8.05047578 9.88198737 -4.49742411 4.49742411 0 0 Z " fill="#8D8D8D" transform="translate(985,236)"/>
<path d="M0 0 C-1.98 1.32 -3.96 2.64 -6 4 C-2.76420562 11.94240438 6.34288098 18.63833799 14 22 C11.28990459 23.08656506 10.25557464 23.10786457 7.51953125 21.953125 C0.26200167 17.38706021 -5.20179931 12.14398769 -10 5 C-10 4.34 -10 3.68 -10 3 C-3.375 -1.125 -3.375 -1.125 0 0 Z " fill="#868686" transform="translate(934,309)"/>
<path d="M0 0 C4.22831222 0.51713171 6.8559348 3.11126043 9.9375 5.8125 C10.49727539 6.29589844 11.05705078 6.77929688 11.63378906 7.27734375 C13.43251722 8.84058382 15.21809291 10.41762068 17 12 C17.61311035 12.54317871 18.2262207 13.08635742 18.85791016 13.64599609 C20.66398855 15.25463154 22.45930918 16.87426432 24.25 18.5 C24.81066162 19.00378174 25.37132324 19.50756348 25.94897461 20.02661133 C28.4475362 22.32659626 29.90791412 23.72374237 31 27 C27.993182 25.66000502 26.00237391 24.20154709 23.75 21.8125 C19.05703874 16.99055672 14.00911786 12.65373755 8.82421875 8.37109375 C8.27531982 7.91710205 7.7264209 7.46311035 7.16088867 6.99536133 C6.06331924 6.08978185 4.96325777 5.18721337 3.8605957 4.2878418 C2.55563641 3.21350303 1.27523702 2.10945621 0 1 C0 0.67 0 0.34 0 0 Z " fill="#909090" transform="translate(706,209)"/>
<path d="M0 0 C0.99 0 1.98 0 3 0 C5.93542578 5.21853472 7.94686294 10.49923985 9.75 16.1875 C9.97260498 16.87650391 10.19520996 17.56550781 10.42456055 18.27539062 C11.55651214 21.94524076 12.26875517 25.15530798 12 29 C11.34 29 10.68 29 10 29 C9.78085937 28.2471875 9.56171875 27.494375 9.3359375 26.71875 C6.62706766 17.64513721 3.4016708 8.83300518 0 0 Z " fill="#959595" transform="translate(581,496)"/>
<path d="M0 0 C1.32 0 2.64 0 4 0 C4.33 0.66 4.66 1.32 5 2 C6.84982472 3.25827123 6.84982472 3.25827123 9 4 C9.99 3.67 10.98 3.34 12 3 C12 2.34 12 1.68 12 1 C13.8125 0.3125 13.8125 0.3125 16 0 C17.75 1.4375 17.75 1.4375 19 3 C18.34 3 17.68 3 17 3 C17 3.66 17 4.32 17 5 C15.35 5.33 13.7 5.66 12 6 C12.66 7.65 13.32 9.3 14 11 C9.25 9.125 9.25 9.125 7 8 C7 7.01 7 6.02 7 5 C6.401875 4.87625 5.80375 4.7525 5.1875 4.625 C3 4 3 4 0 2 C0 1.34 0 0.68 0 0 Z " fill="#C2C2C2" transform="translate(512,436)"/>
<path d="M0 0 C0.66666667 1.33333333 1.33333333 2.66666667 2 4 C2.37640625 4.7321875 2.7528125 5.464375 3.140625 6.21875 C3.50671875 6.9715625 3.8728125 7.724375 4.25 8.5 C4.62640625 9.2528125 5.0028125 10.005625 5.390625 10.78125 C6 13 6 13 5.109375 15.28125 C4.56023438 16.13203125 4.56023438 16.13203125 4 17 C3.01 17 2.02 17 1 17 C0.30178583 14.89936424 -0.38324472 12.79434263 -1.0625 10.6875 C-1.44535156 9.51574219 -1.82820312 8.34398437 -2.22265625 7.13671875 C-3 4 -3 4 -2 1 C-1.34 1.33 -0.68 1.66 0 2 C0 1.34 0 0.68 0 0 Z " fill="#CDCDCD" transform="translate(584,504)"/>
<path d="M0 0 C-1.29162007 2.58324013 -2.27331625 2.69721131 -4.9296875 3.7265625 C-5.72503906 4.0359375 -6.52039063 4.3453125 -7.33984375 4.6640625 C-8.17644531 4.98117187 -9.01304687 5.29828125 -9.875 5.625 C-10.70386719 5.94984375 -11.53273438 6.2746875 -12.38671875 6.609375 C-18.60435268 9 -18.60435268 9 -22 9 C-22 8.01 -22 7.02 -22 6 C-20.66195312 5.49339844 -20.66195312 5.49339844 -19.296875 4.9765625 C-18.12640625 4.53054688 -16.9559375 4.08453125 -15.75 3.625 C-14.00976562 2.96371094 -14.00976562 2.96371094 -12.234375 2.2890625 C-9.11931448 1.11387311 -9.11931448 1.11387311 -6.75 -0.1875 C-4.26610355 -1.34073764 -2.57037765 -0.71399379 0 0 Z " fill="#9B9B9B" transform="translate(660,273)"/>
<path d="M0 0 C0.66 0 1.32 0 2 0 C3.01855626 1.19672937 3.98978615 2.43392251 4.9375 3.6875 C9.11115359 8.66581986 14.01533638 10.74898728 20 13 C20 13.66 20 14.32 20 15 C20.99 15.33 21.98 15.66 23 16 C13.70763107 15.22563592 7.99455385 11.44069722 1.46875 4.90234375 C0 3 0 3 0 0 Z " fill="#A9A9A9" transform="translate(296,402)"/>
<path d="M0 0 C0 1.32 0 2.64 0 4 C-0.56847656 3.98839844 -1.13695312 3.97679687 -1.72265625 3.96484375 C-6.60670484 3.90776806 -11.18503965 4.18043228 -16 5 C-16 3.68 -16 2.36 -16 1 C-10.62915894 0.31798844 -5.41499441 -0.11521265 0 0 Z " fill="#C4C4C4" transform="translate(388,470)"/>
<path d="M0 0 C1.9375 1 1.9375 1 3.1875 3.5625 C3.435 4.366875 3.6825 5.17125 3.9375 6 C2.9475 6 1.9575 6 0.9375 6 C0.9375 5.34 0.9375 4.68 0.9375 4 C-0.3825 4 -1.7025 4 -3.0625 4 C-2.78632467 5.94074861 -2.78632467 5.94074861 -2.0625 8 C-1.0725 8.66 -0.0825 9.32 0.9375 10 C0.9375 10.66 0.9375 11.32 0.9375 12 C-0.3825 11.67 -1.7025 11.34 -3.0625 11 C-3.0625 10.34 -3.0625 9.68 -3.0625 9 C-4.7125 9 -6.3625 9 -8.0625 9 C-3.8625 0 -3.8625 0 0 0 Z " fill="#D0D0D0" transform="translate(94.0625,456)"/>
<path d="M0 0 C3.34252724 -0.07427838 5.8035914 -0.06546953 9 1 C10.39439664 1.06665376 11.79169875 1.08538199 13.1875 1.0625 C14.445625 1.041875 15.70375 1.02125 17 1 C17 1.99 17 2.98 17 4 C11.39 4 5.78 4 0 4 C0 2.68 0 1.36 0 0 Z " fill="#C7C7C7" transform="translate(207,482)"/>
<path d="M0 0 C3.97192487 1.35678141 6.59363485 3.11677744 9.6875 5.9375 C10.83798828 6.97197266 10.83798828 6.97197266 12.01171875 8.02734375 C14 10 14 10 16 13 C16 13.99 16 14.98 16 16 C16.66 16 17.32 16 18 16 C17.67 16.99 17.34 17.98 17 19 C16.34 19 15.68 19 15 19 C14.71125 18.030625 14.4225 17.06125 14.125 16.0625 C11.66812604 10.20195675 5.63789054 4.81894527 0 2 C0 1.34 0 0.68 0 0 Z " fill="#8B8B8B" transform="translate(599,209)"/>
<path d="M0 0 C1.98 0 3.96 0 6 0 C6 2.97 6 5.94 6 9 C4.02 9 2.04 9 0 9 C0 6.03 0 3.06 0 0 Z " fill="#C7C7C7" transform="translate(305,474)"/>
<path d="M0 0 C0.66 0.33 1.32 0.66 2 1 C2 1.66 2 2.32 2 3 C2.61875 3.268125 3.2375 3.53625 3.875 3.8125 C6 5 6 5 8 8 C7.67 8.66 7.34 9.32 7 10 C5.35 10 3.7 10 2 10 C2 8.35 2 6.7 2 5 C1.360625 4.896875 0.72125 4.79375 0.0625 4.6875 C-0.618125 4.460625 -1.29875 4.23375 -2 4 C-2.33 3.01 -2.66 2.02 -3 1 C-2.01 0.67 -1.02 0.34 0 0 Z " fill="#C0C0C0" transform="translate(494,407)"/>
<path d="M0 0 C0.66 0.33 1.32 0.66 2 1 C-0.82531078 3.97643205 -3.74628572 6.36274286 -7.125 8.6875 C-7.99382813 9.28949219 -8.86265625 9.89148438 -9.7578125 10.51171875 C-12 12 -12 12 -14 13 C-14.66 12.34 -15.32 11.68 -16 11 C-4.57780533 2.1599504 -4.57780533 2.1599504 0 0 Z " fill="#959595" transform="translate(601,292)"/>
<path d="M0 0 C5.625 -0.25 5.625 -0.25 9 2 C9 1.34 9 0.68 9 0 C11.64 0 14.28 0 17 0 C17 0.99 17 1.98 17 3 C11.39 3 5.78 3 0 3 C0 2.01 0 1.02 0 0 Z " fill="#C6C6C6" transform="translate(188,482)"/>
<path d="M0 0 C-4.32549732 1.96613515 -8.70551517 3.6700592 -13.1875 5.25 C-14.19167969 5.60578125 -15.19585938 5.9615625 -16.23046875 6.328125 C-19.01581553 7.00383677 -20.35469415 6.98488714 -23 6 C-23 5.34 -23 4.68 -23 4 C-21.87980469 3.72285156 -20.75960937 3.44570313 -19.60546875 3.16015625 C-18.13279698 2.79433333 -16.66014158 2.42844447 -15.1875 2.0625 C-14.08051758 1.78889648 -14.08051758 1.78889648 -12.95117188 1.50976562 C-3.06390381 -0.9508667 -3.06390381 -0.9508667 0 0 Z " fill="#909090" transform="translate(909,322)"/>
<path d="M0 0 C0.99 0 1.98 0 3 0 C1.32665098 3.62558955 -0.4577938 6.90812759 -3 10 C-6.75 10.875 -6.75 10.875 -10 11 C-10 10.34 -10 9.68 -10 9 C-9.0925 8.401875 -8.185 7.80375 -7.25 7.1875 C-3.920616 5.18397214 -3.920616 5.18397214 -1.8125 2.25 C-1.214375 1.5075 -0.61625 0.765 0 0 Z " fill="#C9C9C9" transform="translate(421,460)"/>
<path d="M0 0 C5.44994056 4.62419199 8.76507648 10.68863625 12 17 C12 17.66 12 18.32 12 19 C8.59055395 17.86351798 8.39306229 17.46011714 6.73828125 14.47265625 C6.34189453 13.76302734 5.94550781 13.05339844 5.53710938 12.32226562 C5.13298828 11.57654297 4.72886719 10.83082031 4.3125 10.0625 C3.68891602 8.9497168 3.68891602 8.9497168 3.05273438 7.81445312 C0 2.28544489 0 2.28544489 0 0 Z " fill="#8E8E8E" transform="translate(571,477)"/>
<path d="M0 0 C-1.7261939 3.45238779 -5.88693547 3.89126265 -9.375 5.0625 C-10.15617188 5.33126953 -10.93734375 5.60003906 -11.7421875 5.87695312 C-14.82270299 6.93456161 -17.91013418 7.97004473 -21 9 C-20.42578125 7.171875 -20.42578125 7.171875 -19 5 C-15.91796875 3.515625 -15.91796875 3.515625 -12.1875 2.25 C-10.96417969 1.82203125 -9.74085938 1.3940625 -8.48046875 0.953125 C-5.42555357 0.11653768 -3.13161777 -0.2147395 0 0 Z " fill="#8E8E8E" transform="translate(623,286)"/>
<path d="M0 0 C4.82075105 0.53563901 8.19943577 1.93152167 12.375 4.375 C13.43460938 4.98085937 14.49421875 5.58671875 15.5859375 6.2109375 C16.38257813 6.80132812 17.17921875 7.39171875 18 8 C18 8.99 18 9.98 18 11 C17.26394531 10.59007812 16.52789063 10.18015625 15.76953125 9.7578125 C14.30580078 8.94957031 14.30580078 8.94957031 12.8125 8.125 C11.84957031 7.59132812 10.88664063 7.05765625 9.89453125 6.5078125 C7.30260482 5.1576322 4.73238902 4.02901671 2 3 C2 2.34 2 1.68 2 1 C1.34 0.67 0.68 0.34 0 0 Z " fill="#979797" transform="translate(688,199)"/>
<path d="M0 0 C0.99 0.33 1.98 0.66 3 1 C1.37615858 2.14747465 -0.24911056 3.2929291 -1.875 4.4375 C-3.23238281 5.39462891 -3.23238281 5.39462891 -4.6171875 6.37109375 C-7 8 -7 8 -9 9 C-9 10.98 -9 12.96 -9 15 C-11.54106009 12.79038253 -12.30621489 11.26011642 -13 8 C-12.39671875 7.67386719 -11.7934375 7.34773438 -11.171875 7.01171875 C-10.37265625 6.57472656 -9.5734375 6.13773437 -8.75 5.6875 C-7.96109375 5.25824219 -7.1721875 4.82898438 -6.359375 4.38671875 C-3.96061009 3.05888023 -3.96061009 3.05888023 -1.890625 1.26953125 C-1.26671875 0.85058594 -0.6428125 0.43164062 0 0 Z " fill="#808080" transform="translate(484,363)"/>
<path d="M0 0 C0.9075 0.78375 1.815 1.5675 2.75 2.375 C8.11567038 6.97730697 13.56295401 11.48252008 19 16 C18.34 16.66 17.68 17.32 17 18 C14.91570199 16.0843735 12.83253697 14.16753939 10.75 12.25 C10.16347656 11.71117187 9.57695312 11.17234375 8.97265625 10.6171875 C1.97142102 4.16661122 1.97142102 4.16661122 0 2 C0 1.34 0 0.68 0 0 Z " fill="#8C8C8C" transform="translate(497,408)"/>
<path d="M0 0 C2.25723277 2.84122613 3.92922127 5.67007886 5.5 8.9375 C7.19135238 12.39685215 8.93703915 15.7426934 11 19 C10.34 19.33 9.68 19.66 9 20 C7.29197433 17.42970046 5.61241665 14.84197275 3.9375 12.25 C3.45216797 11.52039063 2.96683594 10.79078125 2.46679688 10.0390625 C2.01240234 9.33007812 1.55800781 8.62109375 1.08984375 7.890625 C0.66566162 7.24125977 0.24147949 6.59189453 -0.19555664 5.92285156 C-1.19178282 3.54158376 -0.85650956 2.38615672 0 0 Z " fill="#959595" transform="translate(475,375)"/>
<path d="M0 0 C0 0.66 0 1.32 0 2 C-5.5522888 4.8352113 -9.80112515 5.37952295 -16 5 C-14.54987453 2.09974906 -12.68687091 1.91293145 -9.6875 0.8125 C-8.72199219 0.44769531 -7.75648438 0.08289063 -6.76171875 -0.29296875 C-3.9652203 -1.008904 -2.66140462 -0.99249531 0 0 Z " fill="#A2A2A2" transform="translate(533,335)"/>
<path d="M0 0 C5.15171623 -0.09038099 9.91913204 0.15318867 15 1 C15 1.99 15 2.98 15 4 C12.69 4 10.38 4 8 4 C8 3.34 8 2.68 8 2 C6.02 2.33 4.04 2.66 2 3 C1.34 2.01 0.68 1.02 0 0 Z " fill="#C7C7C7" transform="translate(124,470)"/>
<path d="M0 0 C0 0.66 0 1.32 0 2 C-0.66386719 2.32613281 -1.32773437 2.65226563 -2.01171875 2.98828125 C-7.5889783 5.74661537 -7.5889783 5.74661537 -13 8.8125 C-15 10 -15 10 -17 10 C-17 9.34 -17 8.68 -17 8 C-14.94241228 6.51925046 -12.91211348 5.18523151 -10.75 3.875 C-10.16347656 3.50246094 -9.57695313 3.12992188 -8.97265625 2.74609375 C-5.61330674 0.68518944 -4.04528996 0 0 0 Z " fill="#8C8C8C" transform="translate(648,207)"/>
<path d="M0 0 C4.875 0.875 4.875 0.875 6 2 C7.84599688 2.39454223 9.70225822 2.74176866 11.5625 3.0625 C13.08037109 3.32740234 13.08037109 3.32740234 14.62890625 3.59765625 C15.41136719 3.73042969 16.19382812 3.86320312 17 4 C13.52810765 6.19968593 11.41054966 6.05001544 7.4375 5.25 C6.48746094 5.06953125 5.53742187 4.8890625 4.55859375 4.703125 C2 4 2 4 -1 2 C-0.67 1.34 -0.34 0.68 0 0 Z " fill="#9F9F9F" transform="translate(829,322)"/>
<path d="M0 0 C3.76428019 3.31087949 4.80132193 7.24690847 6 12 C6.1875 15.0625 6.1875 15.0625 6 17 C5.34 17 4.68 17 4 17 C3.32635339 14.91891315 2.66133202 12.8350329 2 10.75 C1.62875 9.58984375 1.2575 8.4296875 0.875 7.234375 C0 4 0 4 0 0 Z " fill="#929292" transform="translate(587,508)"/>
<path d="M0 0 C-3.01490557 2.00993705 -5.2149927 2.72623341 -8.6875 3.625 C-9.68136719 3.88539063 -10.67523438 4.14578125 -11.69921875 4.4140625 C-12.45847656 4.60742188 -13.21773438 4.80078125 -14 5 C-14.66 4.34 -15.32 3.68 -16 3 C-15.01 3 -14.02 3 -13 3 C-13 2.34 -13 1.68 -13 1 C-11.59054634 0.43983252 -10.1719969 -0.09748502 -8.75 -0.625 C-7.96109375 -0.92664063 -7.1721875 -1.22828125 -6.359375 -1.5390625 C-3.50082285 -2.09752136 -2.41040161 -1.53690745 0 0 Z " fill="#A4A4A4" transform="translate(387,398)"/>
<path d="M0 0 C0.99 0.33 1.98 0.66 3 1 C-0.49359465 4.59634744 -4.11098131 7.83451967 -8 11 C-8.99 10.34 -9.98 9.68 -11 9 C-9.93458984 8.15115234 -9.93458984 8.15115234 -8.84765625 7.28515625 C-7.92855469 6.55167969 -7.00945312 5.81820313 -6.0625 5.0625 C-5.14597656 4.33160156 -4.22945313 3.60070312 -3.28515625 2.84765625 C-1.59148731 1.48061289 -1.59148731 1.48061289 0 0 Z " fill="#969696" transform="translate(496,353)"/>
<path d="M0 0 C1.19961999 1.43287943 2.39501028 2.86973679 3.55859375 4.33203125 C5.7814031 6.90422526 8.33703093 8.89439655 11 11 C10.34 11.66 9.68 12.32 9 13 C7.39490066 11.56354149 5.79095576 10.12579294 4.1875 8.6875 C3.29417969 7.88699219 2.40085937 7.08648437 1.48046875 6.26171875 C-0.39926786 4.54775419 -2.22592747 2.82122396 -4 1 C-2 0 -2 0 0 0 Z " fill="#939393" transform="translate(703,217)"/>
<path d="M0 0 C1.98 1.65 3.96 3.3 6 5 C5.67 6.32 5.34 7.64 5 9 C2.13275314 8.42655063 1.1385485 8.1385485 -1 6 C-0.625 2.875 -0.625 2.875 0 0 Z " fill="#C7C7C7" transform="translate(547,452)"/>
<path d="M0 0 C0.56332031 0.22171875 1.12664063 0.4434375 1.70703125 0.671875 C-0.05727844 2.01382872 -1.82964785 3.34519168 -3.60546875 4.671875 C-4.59160156 5.414375 -5.57773437 6.156875 -6.59375 6.921875 C-9.29296875 8.671875 -9.29296875 8.671875 -12.29296875 8.671875 C-11.10001742 5.09302101 -10.04829813 4.49052591 -6.98046875 2.421875 C-5.81064453 1.60976562 -5.81064453 1.60976562 -4.6171875 0.78125 C-2.29296875 -0.328125 -2.29296875 -0.328125 0 0 Z " fill="#939393" transform="translate(634.29296875,227.328125)"/>
<path d="M0 0 C3.9252025 3.70090521 6.94580156 7.54959656 10 12 C9.34 12.66 8.68 13.32 8 14 C6.68527053 12.37680325 5.37328338 10.751385 4.0625 9.125 C3.33160156 8.22007812 2.60070312 7.31515625 1.84765625 6.3828125 C0 4 0 4 -1 2 C-0.67 1.34 -0.34 0.68 0 0 Z " fill="#959595" transform="translate(562,464)"/>
<path d="M0 0 C-0.33 1.65 -0.66 3.3 -1 5 C-2.98 5 -4.96 5 -7 5 C-7.33 3.68 -7.66 2.36 -8 1 C-5.29120665 -0.35439668 -2.99066732 -0.06501451 0 0 Z " fill="#B7B7B7" transform="translate(284,407)"/>
<path d="M0 0 C6.93 0.495 6.93 0.495 14 1 C14 1.66 14 2.32 14 3 C9.38 3 4.76 3 0 3 C0 2.01 0 1.02 0 0 Z " fill="#B8B8B8" transform="translate(161,474)"/>
<path d="M0 0 C1.65 0 3.3 0 5 0 C5.33 1.65 5.66 3.3 6 5 C4.34385343 5.38218767 2.67542976 5.71395102 1 6 C0 5 0 5 -0.0625 2.4375 C-0.041875 1.633125 -0.02125 0.82875 0 0 Z " fill="#7E7E7E" transform="translate(286,448)"/>
<path d="M0 0 C2.25245881 2.68841859 3.88213958 4.64641875 5 8 C4.67 8.99 4.34 9.98 4 11 C2 11 2 11 0.3125 9.4375 C-1.52326619 6.02821993 -0.78222319 3.69778233 0 0 Z " fill="#C2C2C2" transform="translate(474,379)"/>
<path d="M0 0 C2.475 0.495 2.475 0.495 5 1 C5.33 2.32 5.66 3.64 6 5 C4.34385343 5.38218767 2.67542976 5.71395102 1 6 C0 5 0 5 -0.0625 2.4375 C-0.041875 1.633125 -0.02125 0.82875 0 0 Z " fill="#767676" transform="translate(347,441)"/>
<path d="M0 0 C1.875 0.6875 1.875 0.6875 4 2 C4.66666667 3.66666667 5.33333333 5.33333333 6 7 C8.01735205 8.34410262 8.01735205 8.34410262 10 9 C9.67 9.99 9.34 10.98 9 12 C5.09843342 8.96544821 2.20424008 6.53093795 0 2 C0 1.34 0 0.68 0 0 Z " fill="#B5B6B6" transform="translate(479,403)"/>
<path d="M0 0 C1.65 1.65 3.3 3.3 5 5 C4.01 5.33 3.02 5.66 2 6 C2 6.66 2 7.32 2 8 C1.01 8 0.02 8 -1 8 C-1.33 6.02 -1.66 4.04 -2 2 C-1.34 2 -0.68 2 0 2 C0 1.34 0 0.68 0 0 Z " fill="#C8C8C8" transform="translate(563,469)"/>
<path d="M0 0 C2.97 1.98 2.97 1.98 6 4 C5.01 4.33 4.02 4.66 3 5 C3 5.66 3 6.32 3 7 C1.0625 6.25 1.0625 6.25 -1 5 C-1.75 2.875 -1.75 2.875 -2 1 C-1.34 0.67 -0.68 0.34 0 0 Z " fill="#C1C1C1" transform="translate(541,447)"/>
<path d="M0 0 C1.32 0.66 2.64 1.32 4 2 C4 2.66 4 3.32 4 4 C2.35 4 0.7 4 -1 4 C-0.67 2.68 -0.34 1.36 0 0 Z M-5 4 C-3.68 4 -2.36 4 -1 4 C-0.67 5.32 -0.34 6.64 0 8 C-1.65 7.67 -3.3 7.34 -5 7 C-5 6.01 -5 5.02 -5 4 Z " fill="#BCBCBC" transform="translate(532,443)"/>
<path d="M0 0 C0.99 0.33 1.98 0.66 3 1 C-0.11016455 4.28788824 -3.01618925 6.83735988 -7 9 C-7.66 8.34 -8.32 7.68 -9 7 C-7.57277341 5.8001722 -6.13284224 4.6154424 -4.6875 3.4375 C-3.88699219 2.77621094 -3.08648438 2.11492187 -2.26171875 1.43359375 C-1.51535156 0.96050781 -0.76898437 0.48742187 0 0 Z " fill="#959595" transform="translate(941,300)"/>
<path d="M0 0 C0.556875 0.226875 1.11375 0.45375 1.6875 0.6875 C1.0275 1.3475 0.3675 2.0075 -0.3125 2.6875 C-1.3025 2.6875 -2.2925 2.6875 -3.3125 2.6875 C-3.3125 3.3475 -3.3125 4.0075 -3.3125 4.6875 C-5.9525 5.3475 -8.5925 6.0075 -11.3125 6.6875 C-4.51779801 -0.61051325 -4.51779801 -0.61051325 0 0 Z " fill="#898989" transform="translate(667.3125,267.3125)"/>
<path d="M0 0 C1.98 0 3.96 0 6 0 C6 1.65 6 3.3 6 5 C4.35 5 2.7 5 1 5 C0.67 3.35 0.34 1.7 0 0 Z " fill="#6A6A6A" transform="translate(366,420)"/>
<path d="M0 0 C1.98 0 3.96 0 6 0 C7.0625 2.375 7.0625 2.375 8 5 C7.67 5.66 7.34 6.32 7 7 C6.01 7 5.02 7 4 7 C3.67 5.02 3.34 3.04 3 1 C2.01 0.67 1.02 0.34 0 0 Z " fill="#C2C2C2" transform="translate(466,374)"/>
<path d="M0 0 C3.57040303 0.65902299 6.17732255 2.16229158 9.25 4.0625 C10.14203125 4.61035156 11.0340625 5.15820312 11.953125 5.72265625 C12.96632813 6.35494141 12.96632813 6.35494141 14 7 C12.29296875 7.67578125 12.29296875 7.67578125 10 8 C7.67578125 6.85546875 7.67578125 6.85546875 5.3125 5.1875 C4.52488281 4.64480469 3.73726562 4.10210937 2.92578125 3.54296875 C1 2 1 2 0 0 Z " fill="#7B7B7B" transform="translate(934,324)"/>
<path d="M0 0 C2 1.3125 2 1.3125 4 3 C4 3.99 4 4.98 4 6 C4.66 6 5.32 6 6 6 C6.99 7.485 6.99 7.485 8 9 C7.67 9.99 7.34 10.98 7 12 C6.38125 11.195625 5.7625 10.39125 5.125 9.5625 C3.25835959 6.96125481 3.25835959 6.96125481 1 6 C0.375 2.9375 0.375 2.9375 0 0 Z " fill="#BBBBBB" transform="translate(561,482)"/>
<path d="M0 0 C2.31 0 4.62 0 7 0 C7 1.32 7 2.64 7 4 C4.69 4 2.38 4 0 4 C0 2.68 0 1.36 0 0 Z " fill="#C4C4C4" transform="translate(333,473)"/>
<path d="M0 0 C-2.77276624 1.84851083 -4.39992766 2.5205764 -7.5625 3.25 C-8.34753906 3.44078125 -9.13257813 3.6315625 -9.94140625 3.828125 C-10.96041016 3.91320312 -10.96041016 3.91320312 -12 4 C-12.66 3.34 -13.32 2.68 -14 2 C-9.35150485 -0.3992233 -5.08913926 -0.19957409 0 0 Z " fill="#929292" transform="translate(450,378)"/>
<path d="M0 0 C1.98 0 3.96 0 6 0 C6 1.32 6 2.64 6 4 C3.69 4 1.38 4 -1 4 C-0.67 2.68 -0.34 1.36 0 0 Z " fill="#C9C9C9" transform="translate(257,475)"/>
<path d="M0 0 C2.375 -0.1875 2.375 -0.1875 5 0 C5.66 0.99 6.32 1.98 7 3 C6.67 3.99 6.34 4.98 6 6 C5.01 6 4.02 6 3 6 C0 2.66666667 0 2.66666667 0 0 Z " fill="#C9C9C9" transform="translate(553,462)"/>
<path d="M0 0 C0.66 0.33 1.32 0.66 2 1 C0.90344712 2.31886772 -0.20253423 3.62990057 -1.3125 4.9375 C-1.92738281 5.66839844 -2.54226563 6.39929688 -3.17578125 7.15234375 C-5 9 -5 9 -8 10 C-6.34908222 5.70761377 -3.26245434 3.1206085 0 0 Z " fill="#848484" transform="translate(951,291)"/>
<path d="M0 0 C-1 2 -1 2 -3.06640625 2.8515625 C-4.30197266 3.23441406 -4.30197266 3.23441406 -5.5625 3.625 C-6.38878906 3.88539063 -7.21507812 4.14578125 -8.06640625 4.4140625 C-8.70449219 4.60742188 -9.34257813 4.80078125 -10 5 C-10.33 4.01 -10.66 3.02 -11 2 C-6.89657963 -0.38570952 -4.61380251 -1.49270081 0 0 Z " fill="#A3A3A3" transform="translate(660,273)"/>
<path d="M0 0 C0.99 0.33 1.98 0.66 3 1 C2.34 2.98 1.68 4.96 1 7 C0.34 7 -0.32 7 -1 7 C-1.33 8.65 -1.66 10.3 -2 12 C-3.47118907 8.17490842 -2.45442741 5.71687005 -1 2 C-0.67 1.34 -0.34 0.68 0 0 Z " fill="#9D9D9D" transform="translate(970,258)"/>
<path d="M0 0 C3.82352106 1.5577308 6.29205593 3.91595258 9 7 C9 7.99 9 8.98 9 10 C7 10 7 10 5.2734375 8.3203125 C4.64695312 7.59585938 4.02046875 6.87140625 3.375 6.125 C2.74335937 5.40570313 2.11171875 4.68640625 1.4609375 3.9453125 C0 2 0 2 0 0 Z " fill="#818181" transform="translate(713,229)"/>
<path d="M0 0 C1.4606285 2.64738916 2 3.89448334 2 7 C1.67 7.66 1.34 8.32 1 9 C0.01 9 -0.98 9 -2 9 C-2.25 3.375 -2.25 3.375 0 0 Z " fill="#C0C0C0" transform="translate(587,512)"/>
<path d="M0 0 C1.5625 1.25 1.5625 1.25 3 3 C2.6875 5.1875 2.6875 5.1875 2 7 C0.68 7 -0.64 7 -2 7 C-2.33 5.35 -2.66 3.7 -3 2 C-2.01 2 -1.02 2 0 2 C0 1.34 0 0.68 0 0 Z " fill="#B7B7B7" transform="translate(570,478)"/>
<path d="M0 0 C2.31 0.33 4.62 0.66 7 1 C7 1.99 7 2.98 7 4 C4.69 4 2.38 4 0 4 C0 2.68 0 1.36 0 0 Z " fill="#C5C5C5" transform="translate(140,478)"/>
<path d="M0 0 C1.65 0 3.3 0 5 0 C5 1.65 5 3.3 5 5 C3.35 5 1.7 5 0 5 C0 3.35 0 1.7 0 0 Z " fill="#929292" transform="translate(176,447)"/>
<path d="M0 0 C0.66 0 1.32 0 2 0 C3.2890625 1.53125 3.2890625 1.53125 4.625 3.5 C5.07101562 4.1496875 5.51703125 4.799375 5.9765625 5.46875 C6.31429688 5.9740625 6.65203125 6.479375 7 7 C6.34 7 5.68 7 5 7 C4.67 7.66 4.34 8.32 4 9 C0 3.375 0 3.375 0 0 Z " fill="#C8CAC9" transform="translate(474,396)"/>
<path d="M0 0 C5.29158974 1.40071493 7.77478044 4.85487245 11 9 C7.40303663 8.42703238 5.74677205 7.10347171 3.25 4.5 C2.63640625 3.8709375 2.0228125 3.241875 1.390625 2.59375 C0 1 0 1 0 0 Z " fill="#858585" transform="translate(763,281)"/>
<path d="M0 0 C1.875 0.1875 1.875 0.1875 4 1 C5.25 3.5625 5.25 3.5625 6 6 C5.01 6 4.02 6 3 6 C3 5.34 3 4.68 3 4 C1.35 3.67 -0.3 3.34 -2 3 C-1.34 2.01 -0.68 1.02 0 0 Z " fill="#B5B5B5" transform="translate(92,456)"/>
<path d="M0 0 C5.03985731 0.44469329 7.37634988 2.71343362 11 6 C10.34 6.66 9.68 7.32 9 8 C7.49712782 6.85793642 5.99776716 5.71125043 4.5 4.5625 C3.6646875 3.92441406 2.829375 3.28632813 1.96875 2.62890625 C1.3190625 2.09136719 0.669375 1.55382812 0 1 C0 0.67 0 0.34 0 0 Z " fill="#999999" transform="translate(525,434)"/>
<path d="M0 0 C5.35152885 0.32433508 8.28280043 3.49704824 12 7 C11.67 7.66 11.34 8.32 11 9 C9.72689688 8.06558465 8.456612 7.12732889 7.1875 6.1875 C6.47980469 5.66542969 5.77210938 5.14335937 5.04296875 4.60546875 C3.21468607 3.16871123 1.60103312 1.68184237 0 0 Z " fill="#7A7A7A" transform="translate(980,343)"/>
<path d="M0 0 C-2.6855594 2.6855594 -5.37621328 3.06049974 -9 4 C-9.66 3.01 -10.32 2.02 -11 1 C-6.92630576 -1.03684712 -4.41062136 -1.0257259 0 0 Z " fill="#A8A8A8" transform="translate(917,319)"/>
<path d="M0 0 C4.20626034 1.50223584 5.73900021 4.28550034 8 8 C7.01 8 6.02 8 5 8 C0 2.65116279 0 2.65116279 0 0 Z " fill="#959595" transform="translate(739,256)"/>
<path d="M0 0 C0.66 0.33 1.32 0.66 2 1 C2 1.99 2 2.98 2 4 C1.34 4 0.68 4 0 4 C0 4.66 0 5.32 0 6 C-1.65 6 -3.3 6 -5 6 C-3.63016497 2.83884224 -3.0109362 2.0072908 0 0 Z " fill="#D2D2D2" transform="translate(599,205)"/>
<path d="M0 0 C2.97 0.495 2.97 0.495 6 1 C6 1.99 6 2.98 6 4 C3.69 4 1.38 4 -1 4 C-0.67 2.68 -0.34 1.36 0 0 Z " fill="#C5C5C5" transform="translate(160,480)"/>
<path d="M0 0 C2.97 0.495 2.97 0.495 6 1 C6 1.99 6 2.98 6 4 C5.01 4.495 5.01 4.495 4 5 C1.875 4.0625 1.875 4.0625 0 3 C0 2.01 0 1.02 0 0 Z " fill="#CDCDCD" transform="translate(106,465)"/>
<path d="M0 0 C0.99 0.33 1.98 0.66 3 1 C1.71372289 2.17260611 0.42080217 3.3379283 -0.875 4.5 C-1.59429688 5.1496875 -2.31359375 5.799375 -3.0546875 6.46875 C-5 8 -5 8 -7 8 C-7 6 -7 6 -5.57421875 4.45703125 C-4.95160156 3.91433594 -4.32898438 3.37164062 -3.6875 2.8125 C-3.07261719 2.26207031 -2.45773437 1.71164062 -1.82421875 1.14453125 C-1.22222656 0.76683594 -0.62023437 0.38914062 0 0 Z " fill="#818181" transform="translate(584,304)"/>
<path d="M0 0 C3 2 3 2 3.73046875 4.1640625 C3.88128906 4.97617187 4.03210938 5.78828125 4.1875 6.625 C4.34605469 7.44226563 4.50460937 8.25953125 4.66796875 9.1015625 C4.83232422 10.04128906 4.83232422 10.04128906 5 11 C4.34 11 3.68 11 3 11 C2.49384702 9.73160474 1.99530901 8.46016898 1.5 7.1875 C1.2215625 6.47980469 0.943125 5.77210938 0.65625 5.04296875 C0 3 0 3 0 0 Z " fill="#ADADAD" transform="translate(578,515)"/>
<path d="M0 0 C1.32 0 2.64 0 4 0 C3.67 1.65 3.34 3.3 3 5 C1.68 4.67 0.36 4.34 -1 4 C-0.67 2.68 -0.34 1.36 0 0 Z " fill="#8C8C8C" transform="translate(247,422)"/>
<path d="M0 0 C2.76276177 0.52268466 5.3260876 1.10869587 8 2 C8 2.66 8 3.32 8 4 C8.99 4.33 9.98 4.66 11 5 C7.53058454 4.54177532 4.32604951 4.10868317 1 3 C0.67 2.01 0.34 1.02 0 0 Z " fill="#A0A0A0" transform="translate(308,413)"/>
<path d="M0 0 C2.375 0.3125 2.375 0.3125 5 1 C5.66 1.99 6.32 2.98 7 4 C5.1875 4.6875 5.1875 4.6875 3 5 C1.25 3.6875 1.25 3.6875 0 2 C0 1.34 0 0.68 0 0 Z " fill="#B8B9B8" transform="translate(485,401)"/>
<path d="M0 0 C0.99 0.33 1.98 0.66 3 1 C3.94921875 3.06640625 3.94921875 3.06640625 4.6875 5.5625 C4.93886719 6.38878906 5.19023437 7.21507812 5.44921875 8.06640625 C5.63097656 8.70449219 5.81273437 9.34257812 6 10 C5.34 10 4.68 10 4 10 C3.67 8.35 3.34 6.7 3 5 C2.34 5 1.68 5 1 5 C0.67 3.35 0.34 1.7 0 0 Z " fill="#CDCDCD" transform="translate(319,386)"/>
<path d="M0 0 C6.52307692 0.61538462 6.52307692 0.61538462 8.9375 2.5625 C9.288125 3.036875 9.63875 3.51125 10 4 C7.625 4.625 7.625 4.625 5 5 C3.33333333 3.33333333 1.66666667 1.66666667 0 0 Z " fill="#A6A6A6" transform="translate(953,333)"/>
<path d="M0 0 C-1 2 -1 2 -3.75 3.125 C-6.70186896 3.91973395 -8.97219837 4.17810598 -12 4 C-8.47340299 0.47340299 -4.89254977 -0.27957427 0 0 Z " fill="#7F7F7F" transform="translate(623,286)"/>
<path d="M0 0 C2.31 0 4.62 0 7 0 C7 0.99 7 1.98 7 3 C4.69 3 2.38 3 0 3 C0 2.01 0 1.02 0 0 Z " fill="#C1C1C1" transform="translate(256,482)"/>
<path d="M0 0 C2.31 0 4.62 0 7 0 C7 0.99 7 1.98 7 3 C4.69 3 2.38 3 0 3 C0 2.01 0 1.02 0 0 Z " fill="#C0C0C0" transform="translate(314,480)"/>
<path d="M0 0 C2.31 0 4.62 0 7 0 C7 0.99 7 1.98 7 3 C4.69 3 2.38 3 0 3 C0 2.01 0 1.02 0 0 Z " fill="#BCBCBC" transform="translate(246,482)"/>
<path d="M0 0 C2.31 0 4.62 0 7 0 C7 0.99 7 1.98 7 3 C4.69 3 2.38 3 0 3 C0 2.01 0 1.02 0 0 Z " fill="#BFBFBF" transform="translate(275,481)"/>
<path d="M0 0 C2.31 0 4.62 0 7 0 C7 0.99 7 1.98 7 3 C4.69 3 2.38 3 0 3 C0 2.01 0 1.02 0 0 Z " fill="#BEBEBE" transform="translate(333,479)"/>
<path d="M0 0 C2.31 0 4.62 0 7 0 C7 0.99 7 1.98 7 3 C4.69 3 2.38 3 0 3 C0 2.01 0 1.02 0 0 Z " fill="#C3C3C3" transform="translate(353,473)"/>
<path d="M0 0 C2.31 0 4.62 0 7 0 C7 0.99 7 1.98 7 3 C4.69 3 2.38 3 0 3 C0 2.01 0 1.02 0 0 Z " fill="#C6C6C6" transform="translate(142,472)"/>
<path d="M0 0 C2.1875 1.4375 2.1875 1.4375 4 3 C3.34 3 2.68 3 2 3 C2 3.66 2 4.32 2 5 C0.35 4.67 -1.3 4.34 -3 4 C-3 3.01 -3 2.02 -3 1 C-2.01 0.67 -1.02 0.34 0 0 Z " fill="#BBBBBB" transform="translate(527,436)"/>
<path d="M0 0 C-1.07107117 0.86949317 -2.15745944 1.72014205 -3.25 2.5625 C-3.85328125 3.03816406 -4.4565625 3.51382812 -5.078125 4.00390625 C-7 5 -7 5 -9.234375 4.65234375 C-9.81703125 4.43707031 -10.3996875 4.22179687 -11 4 C-9.73760288 3.13341385 -8.46472499 2.28207941 -7.1875 1.4375 C-6.47980469 0.96183594 -5.77210938 0.48617188 -5.04296875 -0.00390625 C-3 -1 -3 -1 0 0 Z " fill="#878787" transform="translate(487,364)"/>
<path d="M0 0 C4.37859255 0.50522222 6.81651224 3.17827222 10 6 C9.01 6.33 8.02 6.66 7 7 C5.17578125 5.8203125 5.17578125 5.8203125 3.3125 4.125 C2.68988281 3.57070312 2.06726563 3.01640625 1.42578125 2.4453125 C0 1 0 1 0 0 Z " fill="#848484" transform="translate(706,209)"/>
<path d="M0 0 C4.87362847 0.45336079 7.39042389 1.7089159 11 5 C7.87709365 4.51421457 5.00419641 4.0013988 2 3 C2 2.34 2 1.68 2 1 C1.34 0.67 0.68 0.34 0 0 Z " fill="#8E8E8E" transform="translate(688,199)"/>
<path d="M0 0 C0.99 0.33 1.98 0.66 3 1 C3 2.65 3 4.3 3 6 C1.68 6 0.36 6 -1 6 C-1.33 5.01 -1.66 4.02 -2 3 C-1.34 3 -0.68 3 0 3 C0 2.01 0 1.02 0 0 Z " fill="#DFDFDF" transform="translate(581,500)"/>
<path d="M0 0 C1.98 0 3.96 0 6 0 C6.33 0.99 6.66 1.98 7 3 C4.69 3 2.38 3 0 3 C0 2.01 0 1.02 0 0 Z " fill="#BABABA" transform="translate(188,482)"/>
<path d="M0 0 C3.53586014 3.17320782 5.58578031 5.16743695 6 10 C2.51668565 6.98112756 1.20842856 4.43090471 0 0 Z " fill="#808080" transform="translate(571,477)"/>
<path d="M0 0 C2.31 0 4.62 0 7 0 C6.67 0.99 6.34 1.98 6 3 C4.02 3 2.04 3 0 3 C0 2.01 0 1.02 0 0 Z " fill="#BEBEBE" transform="translate(285,481)"/>
<path d="M0 0 C1.98 0 3.96 0 6 0 C6.33 0.99 6.66 1.98 7 3 C4.69 3 2.38 3 0 3 C0 2.01 0 1.02 0 0 Z " fill="#B8B8B8" transform="translate(217,476)"/>
<path d="M0 0 C-0.33 0.99 -0.66 1.98 -1 3 C-2.98 3.33 -4.96 3.66 -7 4 C-7 3.01 -7 2.02 -7 1 C-4 0 -4 0 0 0 Z " fill="#BEBEBE" transform="translate(409,472)"/>
<path d="M0 0 C2.31 0 4.62 0 7 0 C6.67 0.99 6.34 1.98 6 3 C4.02 3 2.04 3 0 3 C0 2.01 0 1.02 0 0 Z " fill="#BFBFBF" transform="translate(391,469)"/>
<path d="M0 0 C1.32 0 2.64 0 4 0 C4 1.65 4 3.3 4 5 C2.68 5 1.36 5 0 5 C0 3.35 0 1.7 0 0 Z " fill="#757575" transform="translate(227,451)"/>
<path d="M0 0 C1.65 0 3.3 0 5 0 C5 1.32 5 2.64 5 4 C3.35 4 1.7 4 0 4 C0 2.68 0 1.36 0 0 Z " fill="#747474" transform="translate(258,438)"/>
<path d="M0 0 C1.65 0 3.3 0 5 0 C5 1.32 5 2.64 5 4 C3.35 4 1.7 4 0 4 C0 2.68 0 1.36 0 0 Z " fill="#7A7A7A" transform="translate(212,434)"/>
<path d="M0 0 C1.32 0 2.64 0 4 0 C4 1.65 4 3.3 4 5 C2.68 5 1.36 5 0 5 C0 3.35 0 1.7 0 0 Z " fill="#5E5E5E" transform="translate(319,429)"/>
<path d="M0 0 C0.99 0 1.98 0 3 0 C3.33 1.98 3.66 3.96 4 6 C2.68 5.34 1.36 4.68 0 4 C0 2.68 0 1.36 0 0 Z " fill="#E7E9E8" transform="translate(479,397)"/>
<path d="M0 0 C3.55780196 0.60990891 6.6828589 1.5783681 10 3 C9.01 3.66 8.02 4.32 7 5 C3.3125 3.625 3.3125 3.625 0 2 C0 1.34 0 0.68 0 0 Z " fill="#8F8F8F" transform="translate(972,339)"/>
<path d="M0 0 C-0.33 0.66 -0.66 1.32 -1 2 C-3.06640625 2.4140625 -3.06640625 2.4140625 -5.5625 2.625 C-6.38878906 2.69976562 -7.21507812 2.77453125 -8.06640625 2.8515625 C-9.02353516 2.92503906 -9.02353516 2.92503906 -10 3 C-4.375 -1.3125 -4.375 -1.3125 0 0 Z " fill="#979797" transform="translate(540,333)"/>
<path d="M0 0 C0.6875 1.6875 0.6875 1.6875 1 4 C-0.4375 6.75 -0.4375 6.75 -2 9 C-2.66 8.67 -3.32 8.34 -4 8 C-4 4.09161134 -2.49432124 2.88405893 0 0 Z " fill="#949494" transform="translate(956,284)"/>
<path d="M0 0 C-2.96687001 1.64826111 -5.65626525 2.44271087 -9 3 C-9.33 2.01 -9.66 1.02 -10 0 C-6.30581799 -1.231394 -3.7943739 -0.64432764 0 0 Z " fill="#9F9F9F" transform="translate(631,285)"/>
<path d="M0 0 C-2.96687001 1.64826111 -5.65626525 2.44271087 -9 3 C-9.33 2.01 -9.66 1.02 -10 0 C-6.30581799 -1.231394 -3.7943739 -0.64432764 0 0 Z " fill="#A2A2A2" transform="translate(674,209)"/>
<path d="M0 0 C2.31 0 4.62 0 7 0 C7 0.66 7 1.32 7 2 C4.69 2.33 2.38 2.66 0 3 C0 2.01 0 1.02 0 0 Z " fill="#BCBCBC" transform="translate(392,475)"/>
<path d="M0 0 C3.41158256 1.13719419 4.11854601 2.04342944 6 5 C6 5.66 6 6.32 6 7 C3.53199953 5.84826645 1.95216435 4.95216435 0 3 C0 2.01 0 1.02 0 0 Z " fill="#C1C1C1" transform="translate(554,473)"/>
<path d="M0 0 C2.97 0.495 2.97 0.495 6 1 C6 1.99 6 2.98 6 4 C3.03 3.505 3.03 3.505 0 3 C0 2.01 0 1.02 0 0 Z " fill="#BFBFBF" transform="translate(104,471)"/>
<path d="M0 0 C3.7952131 1.49097658 5.61042731 3.75700849 8 7 C7.01 7 6.02 7 5 7 C0 1.53488372 0 1.53488372 0 0 Z " fill="#8A8A8A" transform="translate(746,264)"/>
<path d="M0 0 C0.66 0.33 1.32 0.66 2 1 C1.67 1.99 1.34 2.98 1 4 C-1.375 4.625 -1.375 4.625 -4 5 C-4.66 4.34 -5.32 3.68 -6 3 C-4.03533587 1.93224776 -2.03144641 0.93446535 0 0 Z " fill="#A0A0A0" transform="translate(652,203)"/>
<path d="M0 0 C1.98 0 3.96 0 6 0 C6.33 0.99 6.66 1.98 7 3 C4.69 2.67 2.38 2.34 0 2 C0 1.34 0 0.68 0 0 Z " fill="#BFBFBF" transform="translate(122,476)"/>
<path d="M0 0 C1.98 0 3.96 0 6 0 C6 0.99 6 1.98 6 3 C4.02 3 2.04 3 0 3 C0 2.01 0 1.02 0 0 Z " fill="#BFBFBF" transform="translate(286,475)"/>
<path d="M0 0 C1.98 0 3.96 0 6 0 C6 0.99 6 1.98 6 3 C4.02 3 2.04 3 0 3 C0 2.01 0 1.02 0 0 Z " fill="#BFBFBF" transform="translate(247,476)"/>
<path d="M0 0 C1.98 0 3.96 0 6 0 C6 0.99 6 1.98 6 3 C4.02 3 2.04 3 0 3 C0 2.01 0 1.02 0 0 Z " fill="#BEBEBE" transform="translate(179,475)"/>
<path d="M0 0 C1.98 0 3.96 0 6 0 C6 0.99 6 1.98 6 3 C4.02 3 2.04 3 0 3 C0 2.01 0 1.02 0 0 Z " fill="#BEBEBE" transform="translate(266,475)"/>
<path d="M0 0 C1.98 0 3.96 0 6 0 C6 0.99 6 1.98 6 3 C4.02 3 2.04 3 0 3 C0 2.01 0 1.02 0 0 Z " fill="#C1C1C1" transform="translate(363,472)"/>
<path d="M0 0 C1.98 0 3.96 0 6 0 C6 0.99 6 1.98 6 3 C4.02 3 2.04 3 0 3 C0 2.01 0 1.02 0 0 Z " fill="#BEBEBE" transform="translate(324,474)"/>
<path d="M0 0 C1.98 0 3.96 0 6 0 C6 0.99 6 1.98 6 3 C4.02 3 2.04 3 0 3 C0 2.01 0 1.02 0 0 Z " fill="#BFBFBF" transform="translate(314,474)"/>
<path d="M0 0 C2.97 0.495 2.97 0.495 6 1 C6 1.99 6 2.98 6 4 C4.35 3.67 2.7 3.34 1 3 C0.67 2.01 0.34 1.02 0 0 Z " fill="#C5C5C5" transform="translate(96,468)"/>
<path d="M0 0 C0.66 0 1.32 0 2 0 C2.33 2.31 2.66 4.62 3 7 C2.01 7 1.02 7 0 7 C0 4.69 0 2.38 0 0 Z " fill="#BCBCBC" transform="translate(419,433)"/>
<path d="M0 0 C0.598125 0.350625 1.19625 0.70125 1.8125 1.0625 C0.8225 1.5575 0.8225 1.5575 -0.1875 2.0625 C-0.1875 2.7225 -0.1875 3.3825 -0.1875 4.0625 C-4.0625 2.3125 -4.0625 2.3125 -5.1875 0.0625 C-2.1875 -0.9375 -2.1875 -0.9375 0 0 Z " fill="#B5B5B5" transform="translate(515.1875,425.9375)"/>
<path d="M0 0 C1.32 0.66 2.64 1.32 4 2 C3.67 2.99 3.34 3.98 3 5 C1.68 4.67 0.36 4.34 -1 4 C-0.67 2.68 -0.34 1.36 0 0 Z " fill="#B6B6B6" transform="translate(498,412)"/>
<path d="M0 0 C0.99 0.99 1.98 1.98 3 3 C2.67 3.99 2.34 4.98 2 6 C1.01 5.67 0.02 5.34 -1 5 C-1.6875 2.9375 -1.6875 2.9375 -2 1 C-1.34 0.67 -0.68 0.34 0 0 Z " fill="#BABCBB" transform="translate(482,392)"/>
<path d="M0 0 C4.21912747 0.4794463 6.79663178 1.16625119 10 4 C8.72125 3.896875 7.4425 3.79375 6.125 3.6875 C5.04605469 3.60048828 5.04605469 3.60048828 3.9453125 3.51171875 C2 3 2 3 0 0 Z " fill="#8A8A8A" transform="translate(821,320)"/>
<path d="M0 0 C0.66 0.33 1.32 0.66 2 1 C-0.475 4.465 -0.475 4.465 -3 8 C-3.66 7.34 -4.32 6.68 -5 6 C-3.35 4.02 -1.7 2.04 0 0 Z " fill="#939393" transform="translate(985,236)"/>
<path d="M0 0 C0.66 0 1.32 0 2 0 C2 1.98 2 3.96 2 6 C0.68 6 -0.64 6 -2 6 C-2 4.68 -2 3.36 -2 2 C-1.34 2 -0.68 2 0 2 C0 1.34 0 0.68 0 0 Z " fill="#C7C7C7" transform="translate(738,232)"/>
<path d="M0 0 C1.08667969 0.29197266 1.08667969 0.29197266 2.1953125 0.58984375 C2.74960937 0.74582031 3.30390625 0.90179688 3.875 1.0625 C3.215 1.7225 2.555 2.3825 1.875 3.0625 C-1.0878331 2.66745559 -3.50826241 1.46432371 -6.125 0.0625 C-3.57797384 -1.21101308 -2.6967055 -0.73941925 0 0 Z " fill="#959595" transform="translate(688.125,208.9375)"/>
<path d="M0 0 C2.35953094 2.35953094 2.49141413 3.77895617 3 7 C2.01 7.33 1.02 7.66 0 8 C-0.79953138 4.71303767 -1.09658936 3.28976808 0 0 Z " fill="#A8A8A8" transform="translate(586,502)"/>
<path d="M0 0 C1.0625 1.8125 1.0625 1.8125 2 4 C1.67 4.99 1.34 5.98 1 7 C0.34 7 -0.32 7 -1 7 C-1.33 5.35 -1.66 3.7 -2 2 C-1.34 2 -0.68 2 0 2 C0 1.34 0 0.68 0 0 Z " fill="#BBBBBB" transform="translate(575,486)"/>
<path d="M0 0 C1.65 0 3.3 0 5 0 C5.33 0.99 5.66 1.98 6 3 C4.02 3 2.04 3 0 3 C0 2.01 0 1.02 0 0 Z " fill="#BDBDBD" transform="translate(363,478)"/>
<path d="M0 0 C1.65 0 3.3 0 5 0 C5.33 0.99 5.66 1.98 6 3 C4.02 3 2.04 3 0 3 C0 2.01 0 1.02 0 0 Z " fill="#BABABA" transform="translate(237,476)"/>
<path d="M0 0 C1.65 0 3.3 0 5 0 C5.33 0.99 5.66 1.98 6 3 C4.02 3 2.04 3 0 3 C0 2.01 0 1.02 0 0 Z " fill="#B8B8B8" transform="translate(198,476)"/>
<path d="M0 0 C1.65 0 3.3 0 5 0 C5.33 0.99 5.66 1.98 6 3 C4.02 3 2.04 3 0 3 C0 2.01 0 1.02 0 0 Z " fill="#BDBDBD" transform="translate(151,473)"/>
<path d="M0 0 C0.66 0 1.32 0 2 0 C1.67 1.98 1.34 3.96 1 6 C0.01 6 -0.98 6 -2 6 C-1.125 1.125 -1.125 1.125 0 0 Z " fill="#B7B7B7" transform="translate(418,452)"/>
<path d="M0 0 C0.66 0 1.32 0 2 0 C2.33 2.31 2.66 4.62 3 7 C2.01 6.67 1.02 6.34 0 6 C0 4.02 0 2.04 0 0 Z " fill="#B8B8B8" transform="translate(424,424)"/>
<path d="M0 0 C1.98 0.495 1.98 0.495 4 1 C4 1.99 4 2.98 4 4 C2.35 3.67 0.7 3.34 -1 3 C-0.67 2.01 -0.34 1.02 0 0 Z " fill="#797979" transform="translate(279,408)"/>
<path d="M0 0 C0.66 0 1.32 0 2 0 C2.33 2.31 2.66 4.62 3 7 C2.01 6.67 1.02 6.34 0 6 C0 4.02 0 2.04 0 0 Z " fill="#BFBFBF" transform="translate(419,407)"/>
<path d="M0 0 C2 3 2 3 2 6 C1.01 5.67 0.02 5.34 -1 5 C-1 4.01 -1 3.02 -1 2 C-2.32 1.67 -3.64 1.34 -5 1 C-2 0 -2 0 0 0 Z " fill="#C7C7C7" transform="translate(414,389)"/>
<path d="M0 0 C0.66 0 1.32 0 2 0 C1.34 2.64 0.68 5.28 0 8 C-0.66 8 -1.32 8 -2 8 C-1.47731534 5.23723823 -0.89130413 2.6739124 0 0 Z " fill="#868686" transform="translate(966,266)"/>
</svg>
