<?xml version="1.0" encoding="UTF-8"?>
<svg version="1.1" xmlns="http://www.w3.org/2000/svg" width="1080" height="625">
<path d="M0 0 C1.06863281 0.01804687 2.13726563 0.03609375 3.23828125 0.0546875 C4.04652344 0.07789063 4.85476563 0.10109375 5.6875 0.125 C6.0175 1.445 6.3475 2.765 6.6875 4.125 C4.75191401 4.79720351 2.81395628 5.46258077 0.875 6.125 C-0.20394531 6.49625 -1.28289062 6.8675 -2.39453125 7.25 C-5.3125 8.125 -5.3125 8.125 -8.3125 8.125 C-8.3125 8.785 -8.3125 9.445 -8.3125 10.125 C-10.24808599 10.79720351 -12.18604372 11.46258077 -14.125 12.125 C-15.20394531 12.49625 -16.28289062 12.8675 -17.39453125 13.25 C-20.3125 14.125 -20.3125 14.125 -23.3125 14.125 C-23.3125 14.785 -23.3125 15.445 -23.3125 16.125 C-25.6225 16.455 -27.9325 16.785 -30.3125 17.125 C-30.3125 17.785 -30.3125 18.445 -30.3125 19.125 C-32.6225 19.455 -34.9325 19.785 -37.3125 20.125 C-37.3125 20.785 -37.3125 21.445 -37.3125 22.125 C-38.42109375 22.53492188 -39.5296875 22.94484375 -40.671875 23.3671875 C-42.13546029 23.91134101 -43.59899955 24.45561835 -45.0625 25 C-45.79210937 25.26941406 -46.52171875 25.53882813 -47.2734375 25.81640625 C-51.5043243 27.38910357 -51.5043243 27.38910357 -55.578125 29.3203125 C-57.3125 30.125 -57.3125 30.125 -61.3125 30.125 C-61.3125 30.785 -61.3125 31.445 -61.3125 32.125 C-62.91399886 32.79805018 -64.51881029 33.46322227 -66.125 34.125 C-67.46498047 34.681875 -67.46498047 34.681875 -68.83203125 35.25 C-71.3125 36.125 -71.3125 36.125 -74.3125 36.125 C-74.3125 36.785 -74.3125 37.445 -74.3125 38.125 C-76.24808599 38.79720351 -78.18604372 39.46258077 -80.125 40.125 C-81.20394531 40.49625 -82.28289062 40.8675 -83.39453125 41.25 C-86.3125 42.125 -86.3125 42.125 -89.3125 42.125 C-89.3125 42.785 -89.3125 43.445 -89.3125 44.125 C-92.53589513 45.47259868 -95.76705316 46.80049859 -99 48.125 C-99.91201172 48.5065625 -100.82402344 48.888125 -101.76367188 49.28125 C-103.09301758 49.82265625 -103.09301758 49.82265625 -104.44921875 50.375 C-105.26092529 50.71015625 -106.07263184 51.0453125 -106.90893555 51.390625 C-109.49718585 52.18142814 -111.62186705 52.25900818 -114.3125 52.125 C-114.3125 52.785 -114.3125 53.445 -114.3125 54.125 C-116.89202403 55.30078304 -119.47553938 56.465791 -122.0625 57.625 C-122.79210937 57.95886719 -123.52171875 58.29273438 -124.2734375 58.63671875 C-124.98242188 58.95253906 -125.69140625 59.26835937 -126.421875 59.59375 C-127.39592285 60.03364258 -127.39592285 60.03364258 -128.38964844 60.48242188 C-130.3125 61.125 -130.3125 61.125 -134.3125 61.125 C-134.3125 61.785 -134.3125 62.445 -134.3125 63.125 C-135.19292969 63.46273437 -136.07335937 63.80046875 -136.98046875 64.1484375 C-138.72263672 64.81746094 -138.72263672 64.81746094 -140.5 65.5 C-141.64855469 65.94085938 -142.79710937 66.38171875 -143.98046875 66.8359375 C-146.01587715 67.62337568 -148.04231229 68.43524831 -150.05078125 69.2890625 C-152.3125 70.125 -152.3125 70.125 -155.3125 70.125 C-155.3125 70.785 -155.3125 71.445 -155.3125 72.125 C-157.41421867 72.9644882 -159.51896625 73.79639656 -161.625 74.625 C-163.38263672 75.32109375 -163.38263672 75.32109375 -165.17578125 76.03125 C-168.3125 77.125 -168.3125 77.125 -171.3125 77.125 C-171.3125 77.785 -171.3125 78.445 -171.3125 79.125 C-174.7775 79.62 -174.7775 79.62 -178.3125 80.125 C-178.3125 80.785 -178.3125 81.445 -178.3125 82.125 C-180.9525 82.455 -183.5925 82.785 -186.3125 83.125 C-186.3125 83.785 -186.3125 84.445 -186.3125 85.125 C-189.2825 85.62 -189.2825 85.62 -192.3125 86.125 C-192.3125 86.785 -192.3125 87.445 -192.3125 88.125 C-195.7775 88.62 -195.7775 88.62 -199.3125 89.125 C-199.3125 89.785 -199.3125 90.445 -199.3125 91.125 C-199.9209375 91.33253906 -200.529375 91.54007812 -201.15625 91.75390625 C-207.87922931 94.11683574 -214.3664776 96.84339804 -220.828125 99.83813477 C-224.30034977 101.40945345 -226.43105569 102.125 -230.3125 102.125 C-230.3125 102.785 -230.3125 103.445 -230.3125 104.125 C-233.7775 104.62 -233.7775 104.62 -237.3125 105.125 C-237.3125 105.785 -237.3125 106.445 -237.3125 107.125 C-238.91399886 107.79805018 -240.51881029 108.46322227 -242.125 109.125 C-243.01832031 109.49625 -243.91164063 109.8675 -244.83203125 110.25 C-247.3125 111.125 -247.3125 111.125 -250.3125 111.125 C-250.3125 111.785 -250.3125 112.445 -250.3125 113.125 C-251.19550781 113.42792969 -252.07851563 113.73085938 -252.98828125 114.04296875 C-259.70639523 116.38817503 -266.18627499 118.9021117 -272.63671875 121.921875 C-284.2086039 127.125 -284.2086039 127.125 -289.3125 127.125 C-289.3125 127.785 -289.3125 128.445 -289.3125 129.125 C-290.13492188 129.42792969 -290.95734375 129.73085938 -291.8046875 130.04296875 C-297.12646491 132.04017159 -302.33851613 134.04190815 -307.375 136.6875 C-312.81473519 139.50450573 -318.47981123 141.299321 -324.3125 143.125 C-325.8762445 143.64208484 -327.4388652 144.16258882 -329 144.6875 C-329.71671875 144.92597656 -330.4334375 145.16445313 -331.171875 145.41015625 C-332.62083439 145.89402408 -334.06872642 146.38109795 -335.515625 146.87109375 C-350.50266119 151.92790841 -364.41796574 155.63699338 -380.375 155.375 C-381.66599609 155.36984375 -382.95699219 155.3646875 -384.28710938 155.359375 C-394.52169652 155.27404233 -394.52169652 155.27404233 -398.3125 154.125 C-398.3125 153.465 -398.3125 152.805 -398.3125 152.125 C-400.106875 151.9703125 -400.106875 151.9703125 -401.9375 151.8125 C-405.8749176 151.33608648 -408.85390375 150.11369284 -412.3125 148.125 C-412.3125 147.465 -412.3125 146.805 -412.3125 146.125 C-412.84875 146.063125 -413.385 146.00125 -413.9375 145.9375 C-417.48276157 144.72464736 -419.5717392 142.67889074 -422.3125 140.125 C-422.3125 139.465 -422.3125 138.805 -422.3125 138.125 C-422.9725 138.125 -423.6325 138.125 -424.3125 138.125 C-425.6015625 136.48046875 -425.6015625 136.48046875 -426.9375 134.3125 C-427.38351562 133.60480469 -427.82953125 132.89710938 -428.2890625 132.16796875 C-429.3125 130.125 -429.3125 130.125 -429.3125 127.125 C-429.9725 127.125 -430.6325 127.125 -431.3125 127.125 C-433.12975376 121.35039495 -432.57654335 115.06306536 -432.60766602 109.06591797 C-432.61908871 107.53978126 -432.63938309 106.01368134 -432.66918945 104.48779297 C-432.92129918 91.55554992 -431.41261204 80.02674893 -425.125 68.4375 C-423.62870261 65.63809804 -422.3171717 63.13901511 -421.3125 60.125 C-420.6525 60.125 -419.9925 60.125 -419.3125 60.125 C-419.209375 59.403125 -419.10625 58.68125 -419 57.9375 C-418.24456053 54.84706579 -417.15718685 52.70756159 -415.3125 50.125 C-414.6525 50.125 -413.9925 50.125 -413.3125 50.125 C-412.9825 48.475 -412.6525 46.825 -412.3125 45.125 C-411.6525 45.125 -410.9925 45.125 -410.3125 45.125 C-409.9825 43.805 -409.6525 42.485 -409.3125 41.125 C-408.6525 41.125 -407.9925 41.125 -407.3125 41.125 C-407.07402344 40.43664062 -406.83554687 39.74828125 -406.58984375 39.0390625 C-405.06749939 35.56606895 -403.05276513 32.58194225 -400.875 29.5 C-400.28235352 28.64148438 -400.28235352 28.64148438 -399.67773438 27.765625 C-395.72333903 22.10708923 -395.72333903 22.10708923 -393.3125 20.125 C-392.6525 20.125 -391.9925 20.125 -391.3125 20.125 C-390.9825 18.805 -390.6525 17.485 -390.3125 16.125 C-389.6525 16.125 -388.9925 16.125 -388.3125 16.125 C-387.9825 15.135 -387.6525 14.145 -387.3125 13.125 C-386.6525 13.125 -385.9925 13.125 -385.3125 13.125 C-385.065 12.361875 -384.8175 11.59875 -384.5625 10.8125 C-383.16533232 7.80858949 -382.24806259 6.63471791 -379.3125 5.125 C-376.5625 5.4375 -376.5625 5.4375 -374.3125 6.125 C-374.6425 8.765 -374.9725 11.405 -375.3125 14.125 C-375.9725 14.125 -376.6325 14.125 -377.3125 14.125 C-377.498125 15.9503125 -377.498125 15.9503125 -377.6875 17.8125 C-378.03552819 21.23477721 -379.01292893 23.94773985 -380.3125 27.125 C-384.43840365 40.71398542 -384.55385773 53.56780297 -380.3125 67.125 C-379.6525 67.125 -378.9925 67.125 -378.3125 67.125 C-377.9825 68.775 -377.6525 70.425 -377.3125 72.125 C-376.6525 72.125 -375.9925 72.125 -375.3125 72.125 C-373.64583333 73.79166667 -371.97916667 75.45833333 -370.3125 77.125 C-369.384375 77.681875 -368.45625 78.23875 -367.5 78.8125 C-366.778125 79.245625 -366.05625 79.67875 -365.3125 80.125 C-365.3125 80.785 -365.3125 81.445 -365.3125 82.125 C-363.95916562 82.4410849 -362.60477399 82.75264351 -361.25 83.0625 C-360.49589844 83.23652344 -359.74179687 83.41054688 -358.96484375 83.58984375 C-352.76034369 84.841709 -346.8052151 85.28810808 -340.5 85.25 C-339.71117432 85.24734131 -338.92234863 85.24468262 -338.10961914 85.24194336 C-328.54668742 85.83165778 -328.54668742 85.83165778 -320.3125 83.125 C-318.62971067 82.84504228 -316.94067401 82.60254697 -315.25 82.375 C-310.04917752 81.56488378 -305.28065004 80.23043412 -300.3125 78.5625 C-293.65300076 76.34372993 -287.36652701 75.2719589 -280.3125 75.125 C-280.3125 74.465 -280.3125 73.805 -280.3125 73.125 C-279.66023437 73.00382812 -279.00796875 72.88265625 -278.3359375 72.7578125 C-273.50765058 71.83203477 -268.97057285 70.70874477 -264.3125 69.125 C-262.62774879 68.69735446 -260.93972815 68.28253669 -259.25 67.875 C-249.17807913 65.40763245 -239.23292057 62.43690654 -229.2800293 59.53173828 C-226.1203486 58.61491777 -222.97204295 57.78958345 -219.75 57.125 C-216.17008531 56.35096439 -212.78198835 55.30610242 -209.3125 54.125 C-202.87536284 52.36941714 -196.35447953 51.13799717 -189.80078125 49.90625 C-186.76716453 49.22682856 -184.17706758 48.28873058 -181.3125 47.125 C-178 47 -178 47 -175.3125 47.125 C-175.3125 46.465 -175.3125 45.805 -175.3125 45.125 C-174.58804687 45.00382812 -173.86359375 44.88265625 -173.1171875 44.7578125 C-168.9524064 44.03591711 -164.95376668 43.33875556 -160.9375 42 C-158.23152355 41.09800785 -156.14330012 40.95848235 -153.3125 41.125 C-153.3125 40.465 -153.3125 39.805 -153.3125 39.125 C-152.57644531 39.00382812 -151.84039063 38.88265625 -151.08203125 38.7578125 C-150.10621094 38.59023438 -149.13039063 38.42265625 -148.125 38.25 C-147.16207031 38.08757812 -146.19914062 37.92515625 -145.20703125 37.7578125 C-142.36473893 37.22452786 -142.36473893 37.22452786 -140.015625 36.1796875 C-135.44288926 34.3955276 -130.6159625 33.6114951 -125.81835938 32.625 C-125.04169922 32.46 -124.26503906 32.295 -123.46484375 32.125 C-122.76351318 31.980625 -122.06218262 31.83625 -121.33959961 31.6875 C-119.15128321 31.08026394 -117.33877551 30.14147329 -115.3125 29.125 C-113.92912558 28.72261791 -112.53146713 28.36691552 -111.125 28.0546875 C-110.34382813 27.88066406 -109.56265625 27.70664062 -108.7578125 27.52734375 C-107.54738281 27.26630859 -107.54738281 27.26630859 -106.3125 27 C-105.50554687 26.81824219 -104.69859375 26.63648438 -103.8671875 26.44921875 C-100.18882285 25.6419209 -97.11695526 25.125 -93.3125 25.125 C-93.3125 24.465 -93.3125 23.805 -93.3125 23.125 C-87.3725 22.63 -87.3725 22.63 -81.3125 22.125 C-81.3125 21.465 -81.3125 20.805 -81.3125 20.125 C-80.57644531 20.00382812 -79.84039063 19.88265625 -79.08203125 19.7578125 C-77.61830078 19.50644531 -77.61830078 19.50644531 -76.125 19.25 C-75.16207031 19.08757812 -74.19914062 18.92515625 -73.20703125 18.7578125 C-70.38853803 18.1416237 -67.97570296 17.21620247 -65.3125 16.125 C-63.44586522 15.61421599 -61.56994084 15.13654586 -59.6875 14.6875 C-54.67837695 13.47691046 -49.72883343 12.12980395 -44.78515625 10.67578125 C-42.21714821 10.1037605 -39.93462861 10.02649427 -37.3125 10.125 C-37.3125 9.465 -37.3125 8.805 -37.3125 8.125 C-36.55106689 7.95371582 -35.78963379 7.78243164 -35.00512695 7.60595703 C-31.54410966 6.82488783 -28.08455683 6.03751161 -24.625 5.25 C-23.42681641 4.98058594 -22.22863281 4.71117187 -20.99414062 4.43359375 C-19.25874023 4.03720703 -19.25874023 4.03720703 -17.48828125 3.6328125 C-16.42520752 3.39191895 -15.36213379 3.15102539 -14.2668457 2.90283203 C-11.31739286 2.19183572 -11.31739286 2.19183572 -8.62109375 1.04296875 C-5.64686819 -0.13967593 -3.18654888 -0.07003404 0 0 Z " fill="#030303" transform="translate(752.3125,272.875)"/>
<path d="M0 0 C-0.33 2.64 -0.66 5.28 -1 8 C-1.66 8 -2.32 8 -3 8 C-3.185625 9.8253125 -3.185625 9.8253125 -3.375 11.6875 C-3.72302819 15.10977721 -4.70042893 17.82273985 -6 21 C-10.12590365 34.58898542 -10.24135773 47.44280297 -6 61 C-5.34 61 -4.68 61 -4 61 C-3.505 63.475 -3.505 63.475 -3 66 C-2.34 66 -1.68 66 -1 66 C0.66666667 67.66666667 2.33333333 69.33333333 4 71 C4.928125 71.556875 5.85625 72.11375 6.8125 72.6875 C7.534375 73.120625 8.25625 73.55375 9 74 C9 74.66 9 75.32 9 76 C10.35333438 76.3160849 11.70772601 76.62764351 13.0625 76.9375 C13.81660156 77.11152344 14.57070313 77.28554688 15.34765625 77.46484375 C21.55215631 78.716709 27.5072849 79.16310808 33.8125 79.125 C34.60132568 79.12234131 35.39015137 79.11968262 36.20288086 79.11694336 C45.76581258 79.70665778 45.76581258 79.70665778 54 77 C55.68278933 76.72004228 57.37182599 76.47754697 59.0625 76.25 C64.26332248 75.43988378 69.03184996 74.10543412 74 72.4375 C80.65949924 70.21872993 86.94597299 69.1469589 94 69 C94 68.34 94 67.68 94 67 C94.65226563 66.87882812 95.30453125 66.75765625 95.9765625 66.6328125 C100.80484942 65.70703477 105.34192715 64.58374477 110 63 C113.98822896 61.95195688 117.99409282 60.9779434 122 60 C123.5836178 59.60530627 125.1669986 59.20965871 126.75 58.8125 C128.35875 58.4103125 128.35875 58.4103125 130 58 C130 58.66 130 59.32 130 60 C130.66 60 131.32 60 132 60 C132 60.99 132 61.98 132 63 C130.68 63 129.36 63 128 63 C128 63.66 128 64.32 128 65 C122.34837244 66.87600998 117.07416938 68.3249905 111.10546875 68.59375 C108.84496703 68.89807133 108.84496703 68.89807133 106.6328125 70.48828125 C103.51154372 72.28046377 101.26047599 72.49118264 97.6875 72.6875 C96.61886719 72.75324219 95.55023438 72.81898438 94.44921875 72.88671875 C93.64097656 72.92410156 92.83273437 72.96148437 92 73 C92 73.99 92 74.98 92 76 C91.319375 76.09796875 90.63875 76.1959375 89.9375 76.296875 C79.92956024 77.84065294 70.10287572 80.15386349 60.41015625 83.0859375 C46.89789261 86.70778136 28.61286749 86.62779862 15.03125 83.33984375 C12.80581175 82.80448564 12.80581175 82.80448564 10 84 C9.34 83.01 8.68 82.02 8 81 C5.43717258 80.27034634 5.43717258 80.27034634 3 80 C3 79.34 3 78.68 3 78 C2.01 78 1.02 78 0 78 C-0.4021875 76.7934375 -0.4021875 76.7934375 -0.8125 75.5625 C-1.4003125 74.2940625 -1.4003125 74.2940625 -2 73 C-2.99 72.67 -3.98 72.34 -5 72 C-5 71.01 -5 70.02 -5 69 C-5.99 69 -6.98 69 -8 69 C-8.67031719 67.0429132 -9.33614683 65.08428887 -10 63.125 C-10.37125 62.03445313 -10.7425 60.94390625 -11.125 59.8203125 C-12 57 -12 57 -12 55 C-12.66 55 -13.32 55 -14 55 C-14 45.43 -14 35.86 -14 26 C-14.99 26.495 -14.99 26.495 -16 27 C-16 25.68 -16 24.36 -16 23 C-16.99 23.33 -17.98 23.66 -19 24 C-19.103125 24.5775 -19.20625 25.155 -19.3125 25.75 C-20.20729431 28.67841776 -21.94497819 29.49437193 -24.30078125 31.296875 C-27.82319933 34.82739059 -29.81109997 39.56786554 -32 44 C-32.99 44 -33.98 44 -35 44 C-34.95875 44.763125 -34.9175 45.52625 -34.875 46.3125 C-35 49 -35 49 -37 52 C-37.99 52 -38.98 52 -40 52 C-40.33 54.31 -40.66 56.62 -41 59 C-41.66 59 -42.32 59 -43 59 C-43.2165625 60.423125 -43.2165625 60.423125 -43.4375 61.875 C-44 65 -44 65 -45 67 C-45.99 67 -46.98 67 -48 67 C-49.52351686 73.63818061 -50.82144268 80.29225357 -52 87 C-53.98 87 -55.96 87 -58 87 C-57.179363 76.65997375 -54.07744775 68.79090686 -49.3046875 59.6015625 C-47.91712272 56.98905094 -47.91712272 56.98905094 -47 54 C-46.34 54 -45.68 54 -45 54 C-44.896875 53.278125 -44.79375 52.55625 -44.6875 51.8125 C-43.93206053 48.72206579 -42.84468685 46.58256159 -41 44 C-40.34 44 -39.68 44 -39 44 C-38.67 42.35 -38.34 40.7 -38 39 C-37.34 39 -36.68 39 -36 39 C-35.67 37.68 -35.34 36.36 -35 35 C-34.34 35 -33.68 35 -33 35 C-32.76152344 34.31164062 -32.52304687 33.62328125 -32.27734375 32.9140625 C-30.75499939 29.44106895 -28.74026513 26.45694225 -26.5625 23.375 C-25.96985352 22.51648438 -25.96985352 22.51648438 -25.36523438 21.640625 C-21.41083903 15.98208923 -21.41083903 15.98208923 -19 14 C-18.34 14 -17.68 14 -17 14 C-16.67 12.68 -16.34 11.36 -16 10 C-15.34 10 -14.68 10 -14 10 C-13.67 9.01 -13.34 8.02 -13 7 C-12.34 7 -11.68 7 -11 7 C-10.7525 6.236875 -10.505 5.47375 -10.25 4.6875 C-7.87498604 -0.41878002 -5.36892202 -1.64050395 0 0 Z " fill="#232323" transform="translate(378,279)"/>
<path d="M0 0 C1.06863281 0.01804687 2.13726563 0.03609375 3.23828125 0.0546875 C4.04652344 0.07789063 4.85476563 0.10109375 5.6875 0.125 C6.0175 1.445 6.3475 2.765 6.6875 4.125 C4.75191401 4.79720351 2.81395628 5.46258077 0.875 6.125 C-0.20394531 6.49625 -1.28289062 6.8675 -2.39453125 7.25 C-5.3125 8.125 -5.3125 8.125 -8.3125 8.125 C-8.3125 8.785 -8.3125 9.445 -8.3125 10.125 C-10.24808599 10.79720351 -12.18604372 11.46258077 -14.125 12.125 C-15.20394531 12.49625 -16.28289062 12.8675 -17.39453125 13.25 C-20.3125 14.125 -20.3125 14.125 -23.3125 14.125 C-23.3125 14.785 -23.3125 15.445 -23.3125 16.125 C-25.6225 16.455 -27.9325 16.785 -30.3125 17.125 C-30.3125 17.785 -30.3125 18.445 -30.3125 19.125 C-32.6225 19.455 -34.9325 19.785 -37.3125 20.125 C-37.3125 20.785 -37.3125 21.445 -37.3125 22.125 C-44.2425 24.6 -44.2425 24.6 -51.3125 27.125 C-51.6425 26.135 -51.9725 25.145 -52.3125 24.125 C-51.9825 23.465 -51.6525 22.805 -51.3125 22.125 C-48.25 21.5 -48.25 21.5 -45.3125 21.125 C-45.6425 20.135 -45.9725 19.145 -46.3125 18.125 C-44.3325 18.125 -42.3525 18.125 -40.3125 18.125 C-40.3125 17.465 -40.3125 16.805 -40.3125 16.125 C-42.39700717 16.4081556 -44.48008367 16.70185669 -46.5625 17 C-47.72265625 17.16242188 -48.8828125 17.32484375 -50.078125 17.4921875 C-52.95472788 18.05500111 -54.76852174 18.78190588 -57.3125 20.125 C-58.946211 20.53143542 -60.59409739 20.88387533 -62.25 21.1875 C-63.08402344 21.34347656 -63.91804687 21.49945313 -64.77734375 21.66015625 C-65.61394531 21.81355469 -66.45054687 21.96695312 -67.3125 22.125 C-68.97969815 22.45566482 -70.64652464 22.78822859 -72.3125 23.125 C-72.6425 24.115 -72.9725 25.105 -73.3125 26.125 C-76.296875 27.07421875 -76.296875 27.07421875 -80.0625 27.8125 C-81.29484375 28.06386719 -82.5271875 28.31523437 -83.796875 28.57421875 C-86.72629679 29.0331615 -89.36046796 29.24330663 -92.3125 29.125 C-92.3125 29.785 -92.3125 30.445 -92.3125 31.125 C-93.50746094 31.18107422 -93.50746094 31.18107422 -94.7265625 31.23828125 C-100.75559539 31.61234533 -104.96146247 32.22652134 -110.3125 35.125 C-117.80314702 37.47160701 -125.40518669 38.668495 -133.18359375 39.59765625 C-136.1628119 40.09977167 -138.53621061 40.97765591 -141.3125 42.125 C-144.625 42.25 -144.625 42.25 -147.3125 42.125 C-147.3125 42.785 -147.3125 43.445 -147.3125 44.125 C-148.859375 44.2796875 -148.859375 44.2796875 -150.4375 44.4375 C-154.2467803 44.91844631 -154.2467803 44.91844631 -157.125 46.5625 C-160.78570007 48.35696082 -164.13935665 48.96109083 -168.140625 49.59765625 C-170.50719965 49.97283314 -170.50719965 49.97283314 -172.3125 52.125 C-174.3359375 52.5390625 -174.3359375 52.5390625 -176.6875 52.75 C-177.45835937 52.82476562 -178.22921875 52.89953125 -179.0234375 52.9765625 C-181.11598048 53.11225641 -183.215562 53.125 -185.3125 53.125 C-185.8075 54.115 -185.8075 54.115 -186.3125 55.125 C-188.52734375 55.6875 -188.52734375 55.6875 -191.25 56.125 C-195.23565275 56.6798011 -195.23565275 56.6798011 -198.3125 59.125 C-201.4375 59.25 -201.4375 59.25 -204.3125 59.125 C-204.3125 59.785 -204.3125 60.445 -204.3125 61.125 C-205.611875 61.24875 -206.91125 61.3725 -208.25 61.5 C-216.32894142 61.96679303 -216.32894142 61.96679303 -223.3125 65.125 C-226.16778607 65.525383 -229.00986487 65.8768227 -231.875 66.1875 C-233.08446289 66.32381836 -233.08446289 66.32381836 -234.31835938 66.46289062 C-236.31597377 66.68747449 -238.3141856 66.90673236 -240.3125 67.125 C-240.6425 65.805 -240.9725 64.485 -241.3125 63.125 C-239.66701172 62.72667969 -239.66701172 62.72667969 -237.98828125 62.3203125 C-236.53380753 61.96373185 -235.07938302 61.6069504 -233.625 61.25 C-232.90376953 61.07597656 -232.18253906 60.90195312 -231.43945312 60.72265625 C-227.58189537 59.77147763 -223.98864385 58.6525868 -220.3125 57.125 C-216.6696749 56.0359641 -212.9905465 55.08767504 -209.3125 54.125 C-208.075 53.795 -206.8375 53.465 -205.5625 53.125 C-200.35880162 51.82678003 -195.06994905 50.89657367 -189.80078125 49.90625 C-186.76716453 49.22682856 -184.17706758 48.28873058 -181.3125 47.125 C-178 47 -178 47 -175.3125 47.125 C-175.3125 46.465 -175.3125 45.805 -175.3125 45.125 C-174.58804688 45.00382812 -173.86359375 44.88265625 -173.1171875 44.7578125 C-168.9524064 44.03591711 -164.95376668 43.33875556 -160.9375 42 C-158.23152355 41.09800785 -156.14330012 40.95848235 -153.3125 41.125 C-153.3125 40.465 -153.3125 39.805 -153.3125 39.125 C-152.57644531 39.00382812 -151.84039063 38.88265625 -151.08203125 38.7578125 C-150.10621094 38.59023438 -149.13039063 38.42265625 -148.125 38.25 C-147.16207031 38.08757812 -146.19914063 37.92515625 -145.20703125 37.7578125 C-142.36473893 37.22452786 -142.36473893 37.22452786 -140.015625 36.1796875 C-135.44288926 34.3955276 -130.6159625 33.6114951 -125.81835938 32.625 C-124.65336914 32.3775 -124.65336914 32.3775 -123.46484375 32.125 C-122.76351318 31.980625 -122.06218262 31.83625 -121.33959961 31.6875 C-119.15128321 31.08026394 -117.33877551 30.14147329 -115.3125 29.125 C-113.92912558 28.72261791 -112.53146713 28.36691552 -111.125 28.0546875 C-110.34382812 27.88066406 -109.56265625 27.70664062 -108.7578125 27.52734375 C-107.54738281 27.26630859 -107.54738281 27.26630859 -106.3125 27 C-105.50554687 26.81824219 -104.69859375 26.63648438 -103.8671875 26.44921875 C-100.18882285 25.6419209 -97.11695526 25.125 -93.3125 25.125 C-93.3125 24.465 -93.3125 23.805 -93.3125 23.125 C-89.3525 22.795 -85.3925 22.465 -81.3125 22.125 C-81.3125 21.465 -81.3125 20.805 -81.3125 20.125 C-80.57644531 20.00382812 -79.84039063 19.88265625 -79.08203125 19.7578125 C-78.10621094 19.59023438 -77.13039063 19.42265625 -76.125 19.25 C-75.16207031 19.08757812 -74.19914063 18.92515625 -73.20703125 18.7578125 C-70.38853803 18.1416237 -67.97570296 17.21620247 -65.3125 16.125 C-63.44586522 15.61421599 -61.56994084 15.13654586 -59.6875 14.6875 C-54.67837695 13.47691046 -49.72883343 12.12980395 -44.78515625 10.67578125 C-42.21714821 10.1037605 -39.93462861 10.02649427 -37.3125 10.125 C-37.3125 9.465 -37.3125 8.805 -37.3125 8.125 C-36.55106689 7.95371582 -35.78963379 7.78243164 -35.00512695 7.60595703 C-31.54410966 6.82488783 -28.08455683 6.03751161 -24.625 5.25 C-23.42681641 4.98058594 -22.22863281 4.71117187 -20.99414062 4.43359375 C-19.83720703 4.16933594 -18.68027344 3.90507812 -17.48828125 3.6328125 C-16.42520752 3.39191895 -15.36213379 3.15102539 -14.2668457 2.90283203 C-11.31739286 2.19183572 -11.31739286 2.19183572 -8.62109375 1.04296875 C-5.64686819 -0.13967593 -3.18654888 -0.07003404 0 0 Z " fill="#3D3D3D" transform="translate(752.3125,272.875)"/>
<path d="M0 0 C1.06863281 0.01804687 2.13726563 0.03609375 3.23828125 0.0546875 C4.04652344 0.07789063 4.85476563 0.10109375 5.6875 0.125 C6.1825 2.105 6.1825 2.105 6.6875 4.125 C4.75191401 4.79720351 2.81395628 5.46258077 0.875 6.125 C-0.20394531 6.49625 -1.28289062 6.8675 -2.39453125 7.25 C-5.3125 8.125 -5.3125 8.125 -8.3125 8.125 C-8.3125 8.785 -8.3125 9.445 -8.3125 10.125 C-10.24808599 10.79720351 -12.18604372 11.46258077 -14.125 12.125 C-15.20394531 12.49625 -16.28289062 12.8675 -17.39453125 13.25 C-20.3125 14.125 -20.3125 14.125 -23.3125 14.125 C-23.3125 14.785 -23.3125 15.445 -23.3125 16.125 C-25.6225 16.455 -27.9325 16.785 -30.3125 17.125 C-30.3125 17.785 -30.3125 18.445 -30.3125 19.125 C-32.6225 19.455 -34.9325 19.785 -37.3125 20.125 C-37.3125 20.785 -37.3125 21.445 -37.3125 22.125 C-44.2425 24.6 -44.2425 24.6 -51.3125 27.125 C-51.8075 25.64 -51.8075 25.64 -52.3125 24.125 C-51.9825 23.465 -51.6525 22.805 -51.3125 22.125 C-48.25 21.5 -48.25 21.5 -45.3125 21.125 C-45.8075 19.64 -45.8075 19.64 -46.3125 18.125 C-44.3325 18.125 -42.3525 18.125 -40.3125 18.125 C-40.3125 17.465 -40.3125 16.805 -40.3125 16.125 C-42.39700717 16.4081556 -44.48008367 16.70185669 -46.5625 17 C-47.72265625 17.16242188 -48.8828125 17.32484375 -50.078125 17.4921875 C-52.94777332 18.05364043 -54.77896391 18.77271175 -57.3125 20.125 C-58.7584483 20.49054873 -60.21944073 20.79945184 -61.6875 21.0625 C-67.1950566 22.08544885 -72.64986143 23.30321614 -78.11328125 24.5390625 C-80.94515786 25.05772122 -83.44597661 25.24331804 -86.3125 25.125 C-86.6425 24.135 -86.9725 23.145 -87.3125 22.125 C-85.3325 22.125 -83.3525 22.125 -81.3125 22.125 C-81.3125 21.465 -81.3125 20.805 -81.3125 20.125 C-80.57644531 20.00382812 -79.84039063 19.88265625 -79.08203125 19.7578125 C-78.10621094 19.59023438 -77.13039063 19.42265625 -76.125 19.25 C-75.16207031 19.08757812 -74.19914063 18.92515625 -73.20703125 18.7578125 C-70.38853803 18.1416237 -67.97570296 17.21620247 -65.3125 16.125 C-63.44586522 15.61421599 -61.56994084 15.13654586 -59.6875 14.6875 C-54.67837695 13.47691046 -49.72883343 12.12980395 -44.78515625 10.67578125 C-42.21714821 10.1037605 -39.93462861 10.02649427 -37.3125 10.125 C-37.3125 9.465 -37.3125 8.805 -37.3125 8.125 C-36.55106689 7.95371582 -35.78963379 7.78243164 -35.00512695 7.60595703 C-31.54410966 6.82488783 -28.08455683 6.03751161 -24.625 5.25 C-23.42681641 4.98058594 -22.22863281 4.71117187 -20.99414062 4.43359375 C-19.83720703 4.16933594 -18.68027344 3.90507812 -17.48828125 3.6328125 C-16.42520752 3.39191895 -15.36213379 3.15102539 -14.2668457 2.90283203 C-11.31739286 2.19183572 -11.31739286 2.19183572 -8.62109375 1.04296875 C-5.64686819 -0.13967593 -3.18654888 -0.07003404 0 0 Z " fill="#3E3E3E" transform="translate(752.3125,272.875)"/>
<path d="M0 0 C-0.99 0.33 -1.98 0.66 -3 1 C-3.33 1.99 -3.66 2.98 -4 4 C-10.6212951 8.51929665 -18.87055968 10.93890495 -26.36328125 13.66796875 C-28.52342525 14.45917079 -30.67270628 15.28319523 -32.79296875 16.17578125 C-35 17 -35 17 -38 17 C-38 17.66 -38 18.32 -38 19 C-39.23363281 19.45439453 -39.23363281 19.45439453 -40.4921875 19.91796875 C-45.81396491 21.91517159 -51.02601613 23.91690815 -56.0625 26.5625 C-61.50223519 29.37950573 -67.16731123 31.174321 -73 33 C-74.5637445 33.51708484 -76.1263652 34.03758882 -77.6875 34.5625 C-78.40421875 34.80097656 -79.1209375 35.03945313 -79.859375 35.28515625 C-81.30833439 35.76902408 -82.75622642 36.25609795 -84.203125 36.74609375 C-109.73173019 45.35976648 -109.73173019 45.35976648 -119 45 C-118.01 44.505 -118.01 44.505 -117 44 C-117 43.34 -117 42.68 -117 42 C-116.34 42 -115.68 42 -115 42 C-114.67 40.68 -114.34 39.36 -114 38 C-113.154375 37.87882812 -112.30875 37.75765625 -111.4375 37.6328125 C-102.11766972 36.28391352 -102.11766972 36.28391352 -93 34 C-92.67 33.34 -92.34 32.68 -92 32 C-89.69 32 -87.38 32 -85 32 C-85 31.34 -85 30.68 -85 30 C-83.68 30 -82.36 30 -81 30 C-81 29.34 -81 28.68 -81 28 C-79.865625 27.855625 -78.73125 27.71125 -77.5625 27.5625 C-74.19222799 27.38828522 -74.19222799 27.38828522 -73 26 C-70.49193151 25.46512518 -67.97192079 25.03594544 -65.4453125 24.59765625 C-62.76534231 24.0900515 -62.76534231 24.0900515 -60 22 C-58.68 22 -57.36 22 -56 22 C-56 21.34 -56 20.68 -56 20 C-54.02 19.67 -52.04 19.34 -50 19 C-50 18.34 -50 17.68 -50 17 C-43.5 14 -43.5 14 -39 14 C-39 13.34 -39 12.68 -39 12 C-35.7 11.34 -32.4 10.68 -29 10 C-29 9.34 -29 8.68 -29 8 C-24.8803623 6.70756464 -21.33168317 5.73747375 -17 6 C-17 5.34 -17 4.68 -17 4 C-14.92227529 3.13227971 -12.83756823 2.28126381 -10.75 1.4375 C-9.58984375 0.96183594 -8.4296875 0.48617188 -7.234375 -0.00390625 C-4.13733356 -0.95770524 -2.92678299 -1.20983356 0 0 Z " fill="#444444" transform="translate(501,383)"/>
<path d="M0 0 C-0.33 1.32 -0.66 2.64 -1 4 C-2.98 4.33 -4.96 4.66 -7 5 C-7 5.66 -7 6.32 -7 7 C-9.10171867 7.8394882 -11.20646625 8.67139656 -13.3125 9.5 C-14.48425781 9.9640625 -15.65601563 10.428125 -16.86328125 10.90625 C-20 12 -20 12 -23 12 C-23 12.66 -23 13.32 -23 14 C-25.31 14.33 -27.62 14.66 -30 15 C-30 15.66 -30 16.32 -30 17 C-33.96 17.495 -33.96 17.495 -38 18 C-38 18.66 -38 19.32 -38 20 C-40.97 20.495 -40.97 20.495 -44 21 C-44 21.66 -44 22.32 -44 23 C-46.31 23.33 -48.62 23.66 -51 24 C-51 24.66 -51 25.32 -51 26 C-51.6084375 26.20753906 -52.216875 26.41507812 -52.84375 26.62890625 C-59.56672931 28.99183574 -66.0539776 31.71839804 -72.515625 34.71313477 C-75.98784977 36.28445345 -78.11855569 37 -82 37 C-82 37.66 -82 38.32 -82 39 C-85.465 39.495 -85.465 39.495 -89 40 C-89 40.66 -89 41.32 -89 42 C-94.22270869 44.66464729 -97.0819503 45.32854177 -103 44 C-103 43.34 -103 42.68 -103 42 C-100.2948104 40.8462276 -97.58625741 39.70185241 -94.875 38.5625 C-94.11445313 38.23701172 -93.35390625 37.91152344 -92.5703125 37.57617188 C-88.37767563 35.82321594 -84.55762995 34.51691969 -80 34 C-80 33.34 -80 32.68 -80 32 C-76.04 31.505 -76.04 31.505 -72 31 C-72 30.34 -72 29.68 -72 29 C-71.01 29 -70.02 29 -69 29 C-69 28.34 -69 27.68 -69 27 C-65.44925043 25.09471974 -62.0977734 23.68939575 -58.203125 22.671875 C-53.97501671 21.38245191 -49.89740139 19.65765349 -45.79296875 18.0234375 C-43 17 -43 17 -41 17 C-41 16.34 -41 15.68 -41 15 C-39.68 15 -38.36 15 -37 15 C-37 13.68 -37 12.36 -37 11 C-35.35 11.33 -33.7 11.66 -32 12 C-31.67 11.01 -31.34 10.02 -31 9 C-29.515 8.87625 -29.515 8.87625 -28 8.75 C-24.20232838 8.22169488 -21.33759714 6.78194545 -17.98828125 4.98046875 C-15.11462493 3.56340051 -12.08136455 2.84586478 -9 2 C-5.5647952 -0.29013653 -4.014669 -0.17842973 0 0 Z " fill="#2D2D2D" transform="translate(604,338)"/>
<path d="M0 0 C0 1.32 0 2.64 0 4 C-2.31 4.33 -4.62 4.66 -7 5 C-7 5.66 -7 6.32 -7 7 C-8.60149886 7.67305018 -10.20631029 8.33822227 -11.8125 9 C-12.70582031 9.37125 -13.59914063 9.7425 -14.51953125 10.125 C-17 11 -17 11 -20 11 C-20 11.66 -20 12.32 -20 13 C-21.93558599 13.67220351 -23.87354372 14.33758077 -25.8125 15 C-26.89144531 15.37125 -27.97039062 15.7425 -29.08203125 16.125 C-32 17 -32 17 -35 17 C-35 17.66 -35 18.32 -35 19 C-38.22339513 20.34759868 -41.45455316 21.67549859 -44.6875 23 C-45.59951172 23.3815625 -46.51152344 23.763125 -47.45117188 24.15625 C-48.33740234 24.5171875 -49.22363281 24.878125 -50.13671875 25.25 C-50.94842529 25.58515625 -51.76013184 25.9203125 -52.59643555 26.265625 C-55.18468585 27.05642814 -57.30936705 27.13400818 -60 27 C-60 27.66 -60 28.32 -60 29 C-62.57952403 30.17578304 -65.16303938 31.340791 -67.75 32.5 C-68.47960937 32.83386719 -69.20921875 33.16773438 -69.9609375 33.51171875 C-70.66992188 33.82753906 -71.37890625 34.14335937 -72.109375 34.46875 C-72.75874023 34.76201172 -73.40810547 35.05527344 -74.07714844 35.35742188 C-76 36 -76 36 -80 36 C-80 36.66 -80 37.32 -80 38 C-81.40691607 38.72750788 -82.82606022 39.43140353 -84.25 40.125 C-85.43335938 40.71667969 -85.43335938 40.71667969 -86.640625 41.3203125 C-89 42 -89 42 -91.296875 41.1171875 C-91.85890625 40.74851562 -92.4209375 40.37984375 -93 40 C-91.515 39.505 -91.515 39.505 -90 39 C-90 38.34 -90 37.68 -90 37 C-89.01 37 -88.02 37 -87 37 C-87 36.34 -87 35.68 -87 35 C-86.34 35 -85.68 35 -85 35 C-85 34.34 -85 33.68 -85 33 C-84.37351562 32.87882812 -83.74703125 32.75765625 -83.1015625 32.6328125 C-81.87566406 32.38144531 -81.87566406 32.38144531 -80.625 32.125 C-79.40683594 31.88136719 -79.40683594 31.88136719 -78.1640625 31.6328125 C-75.81326077 31.13341068 -75.81326077 31.13341068 -74 29 C-69.50612646 27.15477491 -64.7969209 25.77369692 -60 25 C-60 24.34 -60 23.68 -60 23 C-59.22914063 22.81824219 -58.45828125 22.63648438 -57.6640625 22.44921875 C-56.66117188 22.19785156 -55.65828125 21.94648438 -54.625 21.6875 C-53.12839844 21.32205078 -53.12839844 21.32205078 -51.6015625 20.94921875 C-48.6915014 20.17806142 -48.6915014 20.17806142 -47 17 C-44.55209897 15.97159187 -42.2083523 15.10792623 -39.6875 14.3125 C-39.02298828 14.08755859 -38.35847656 13.86261719 -37.67382812 13.63085938 C-34.01825138 12.44126022 -30.84621538 11.72473894 -27 12 C-27 11.34 -27 10.68 -27 10 C-26.34 9.7525 -25.68 9.505 -25 9.25 C-22.70014319 8.29172633 -20.57529403 7.27494791 -18.375 6.125 C-6.28618421 0 -6.28618421 0 0 0 Z " fill="#373737" transform="translate(698,298)"/>
<path d="M0 0 C0.99 0 1.98 0 3 0 C2.731875 0.515625 2.46375 1.03125 2.1875 1.5625 C1.26847235 3.44892518 0.42947324 5.37445082 -0.375 7.3125 C-1.95859097 11.06439246 -3.92695987 14.49727702 -6 18 C-6.99 18 -7.98 18 -9 18 C-8.95875 18.763125 -8.9175 19.52625 -8.875 20.3125 C-9 23 -9 23 -11 26 C-11.99 26 -12.98 26 -14 26 C-14.33 28.31 -14.66 30.62 -15 33 C-15.66 33 -16.32 33 -17 33 C-17.2165625 34.423125 -17.2165625 34.423125 -17.4375 35.875 C-18 39 -18 39 -19 41 C-19.99 41 -20.98 41 -22 41 C-23.52351686 47.63818061 -24.82144268 54.29225357 -26 61 C-27.98 61 -29.96 61 -32 61 C-31.179363 50.65997375 -28.07744775 42.79090686 -23.3046875 33.6015625 C-21.91712272 30.98905094 -21.91712272 30.98905094 -21 28 C-20.34 28 -19.68 28 -19 28 C-18.896875 27.278125 -18.79375 26.55625 -18.6875 25.8125 C-17.93206053 22.72206579 -16.84468685 20.58256159 -15 18 C-14.34 18 -13.68 18 -13 18 C-12.67 16.35 -12.34 14.7 -12 13 C-11.34 13 -10.68 13 -10 13 C-9.67 11.68 -9.34 10.36 -9 9 C-8.34 9 -7.68 9 -7 9 C-7 8.34 -7 7.68 -7 7 C-5.35 6.34 -3.7 5.68 -2 5 C-2 4.01 -2 3.02 -2 2 C-1.34 2 -0.68 2 0 2 C0 1.34 0 0.68 0 0 Z " fill="#2F2F2F" transform="translate(352,305)"/>
<path d="M0 0 C0.33 0 0.66 0 1 0 C1 1.65 1 3.3 1 5 C2.175625 5.1546875 2.175625 5.1546875 3.375 5.3125 C6 6 6 6 8 9 C8.309375 9.99 8.61875 10.98 8.9375 12 C9.97507686 14.92962878 10.77531627 15.97756025 13 18 C13 18.66 13 19.32 13 20 C13.66 20 14.32 20 15 20 C15.2784375 20.86625 15.2784375 20.86625 15.5625 21.75 C17.70551122 25.10427843 20.48822563 26.17907996 24 28 C24 29.65 24 31.3 24 33 C25.794375 33.185625 25.794375 33.185625 27.625 33.375 C32.02704578 33.9213532 36.01663681 35.00831841 40 37 C40 37.66 40 38.32 40 39 C40.99 39.495 40.99 39.495 42 40 C42 40.66 42 41.32 42 42 C39.36 41.67 36.72 41.34 34 41 C34 40.34 34 39.68 34 39 C32.80375 38.896875 31.6075 38.79375 30.375 38.6875 C26.4375824 38.21108648 23.45859625 36.98869284 20 35 C20 34.34 20 33.68 20 33 C19.46375 32.938125 18.9275 32.87625 18.375 32.8125 C14.82973843 31.59964736 12.7407608 29.55389074 10 27 C10 26.34 10 25.68 10 25 C9.34 25 8.68 25 8 25 C6.7109375 23.35546875 6.7109375 23.35546875 5.375 21.1875 C4.92898438 20.47980469 4.48296875 19.77210938 4.0234375 19.04296875 C3 17 3 17 3 14 C2.34 14 1.68 14 1 14 C0.06380187 10.84493858 -0.1057123 8.03413498 -0.0625 4.75 C-0.05347656 3.85796875 -0.04445313 2.9659375 -0.03515625 2.046875 C-0.02355469 1.37140625 -0.01195312 0.6959375 0 0 Z " fill="#272727" transform="translate(320,386)"/>
<path d="M0 0 C1.32 0 2.64 0 4 0 C4 0.99 4 1.98 4 3 C5.32 3.33 6.64 3.66 8 4 C-0.50237652 7.79959683 -9.02580926 10.55249343 -18 13 C-19.68929024 13.51499717 -21.37698895 14.03526559 -23.0625 14.5625 C-38.72617211 19.28234822 -38.72617211 19.28234822 -46 19 C-45.34 18.67 -44.68 18.34 -44 18 C-44 17.34 -44 16.68 -44 16 C-43.34 16 -42.68 16 -42 16 C-41.67 14.68 -41.34 13.36 -41 12 C-40.154375 11.87882812 -39.30875 11.75765625 -38.4375 11.6328125 C-29.11766972 10.28391352 -29.11766972 10.28391352 -20 8 C-19.67 7.34 -19.34 6.68 -19 6 C-16.69 6 -14.38 6 -12 6 C-12 5.34 -12 4.68 -12 4 C-10.68 4 -9.36 4 -8 4 C-8 3.34 -8 2.68 -8 2 C-6.865625 1.855625 -5.73125 1.71125 -4.5625 1.5625 C-1.19222799 1.38828522 -1.19222799 1.38828522 0 0 Z " fill="#262626" transform="translate(428,409)"/>
<path d="M0 0 C2.31 0 4.62 0 7 0 C7 0.66 7 1.32 7 2 C7.59167969 1.855625 8.18335938 1.71125 8.79296875 1.5625 C12.92529941 0.59177306 16.7229762 -0.27593702 21 0 C20.67 0.99 20.34 1.98 20 3 C17.015625 3.94921875 17.015625 3.94921875 13.25 4.6875 C12.01765625 4.93886719 10.7853125 5.19023437 9.515625 5.44921875 C6.58620321 5.9081615 3.95203204 6.11830663 1 6 C1 6.66 1 7.32 1 8 C0.20335937 8.03738281 -0.59328125 8.07476562 -1.4140625 8.11328125 C-7.44309539 8.48734533 -11.64896247 9.10152134 -17 12 C-22.33817323 13.59855865 -27.4110675 15 -33 15 C-33 14.01 -33 13.02 -33 12 C-34.32 11.67 -35.64 11.34 -37 11 C-37 10.67 -37 10.34 -37 10 C-36.25234375 9.87882812 -35.5046875 9.75765625 -34.734375 9.6328125 C-33.74953125 9.46523438 -32.7646875 9.29765625 -31.75 9.125 C-30.77546875 8.96257812 -29.8009375 8.80015625 -28.796875 8.6328125 C-26.07715399 8.1376669 -26.07715399 8.1376669 -24.08691406 7.02734375 C-21.97807044 5.98920454 -20.10186539 5.43791411 -17.8125 4.9296875 C-17.03132812 4.75566406 -16.25015625 4.58164062 -15.4453125 4.40234375 C-14.63835938 4.22832031 -13.83140625 4.05429687 -13 3.875 C-12.19304688 3.69324219 -11.38609375 3.51148438 -10.5546875 3.32421875 C-6.87632285 2.5169209 -3.80445526 2 0 2 C0 1.34 0 0.68 0 0 Z " fill="#343434" transform="translate(659,296)"/>
<path d="M0 0 C1.06863281 0.01804687 2.13726563 0.03609375 3.23828125 0.0546875 C4.04652344 0.07789063 4.85476563 0.10109375 5.6875 0.125 C6.1825 2.105 6.1825 2.105 6.6875 4.125 C4.75191401 4.79720351 2.81395628 5.46258077 0.875 6.125 C-0.20394531 6.49625 -1.28289063 6.8675 -2.39453125 7.25 C-5.3125 8.125 -5.3125 8.125 -8.3125 8.125 C-8.3125 8.785 -8.3125 9.445 -8.3125 10.125 C-10.24808599 10.79720351 -12.18604372 11.46258077 -14.125 12.125 C-15.20394531 12.49625 -16.28289063 12.8675 -17.39453125 13.25 C-20.3125 14.125 -20.3125 14.125 -23.3125 14.125 C-23.3125 14.785 -23.3125 15.445 -23.3125 16.125 C-24.6325 16.455 -25.9525 16.785 -27.3125 17.125 C-27.9725 16.135 -28.6325 15.145 -29.3125 14.125 C-27.9925 14.125 -26.6725 14.125 -25.3125 14.125 C-25.3125 13.465 -25.3125 12.805 -25.3125 12.125 C-23.3325 11.795 -21.3525 11.465 -19.3125 11.125 C-19.3125 10.465 -19.3125 9.805 -19.3125 9.125 C-19.99957031 9.28097656 -20.68664062 9.43695313 -21.39453125 9.59765625 C-22.74611328 9.88962891 -22.74611328 9.88962891 -24.125 10.1875 C-25.01832031 10.38472656 -25.91164063 10.58195312 -26.83203125 10.78515625 C-29.3125 11.125 -29.3125 11.125 -32.3125 10.125 C-32.3125 9.135 -32.3125 8.145 -32.3125 7.125 C-31.70253174 6.98400879 -31.09256348 6.84301758 -30.46411133 6.69775391 C-27.68344196 6.05258577 -24.90422688 5.40135271 -22.125 4.75 C-21.16529297 4.52828125 -20.20558594 4.3065625 -19.21679688 4.078125 C-17.81977539 3.74941406 -17.81977539 3.74941406 -16.39453125 3.4140625 C-15.54093018 3.21506348 -14.6873291 3.01606445 -13.80786133 2.81103516 C-11.25680427 2.16256582 -11.25680427 2.16256582 -8.68945312 1.05664062 C-5.68048073 -0.12271832 -3.21868682 -0.07074037 0 0 Z " fill="#797979" transform="translate(752.3125,272.875)"/>
<path d="M0 0 C-0.33 2.64 -0.66 5.28 -1 8 C-1.66 8 -2.32 8 -3 8 C-3.12375 9.216875 -3.2475 10.43375 -3.375 11.6875 C-3.78891306 15.06479059 -4.54573451 17.89756695 -6 21 C-6.99 20.67 -7.98 20.34 -9 20 C-9 18.02 -9 16.04 -9 14 C-10.32 14.33 -11.64 14.66 -13 15 C-13 15.99 -13 16.98 -13 18 C-15.62596061 19.84526962 -17.95127546 20.98375849 -21 22 C-21 22.99 -21 23.98 -21 25 C-22.65 24.67 -24.3 24.34 -26 24 C-21.64784547 16.04606241 -21.64784547 16.04606241 -19 14 C-18.34 14 -17.68 14 -17 14 C-16.67 12.68 -16.34 11.36 -16 10 C-15.34 10 -14.68 10 -14 10 C-13.67 9.01 -13.34 8.02 -13 7 C-12.34 7 -11.68 7 -11 7 C-10.62875 5.8553125 -10.62875 5.8553125 -10.25 4.6875 C-7.87498604 -0.41878002 -5.36892202 -1.64050395 0 0 Z " fill="#3B3B3B" transform="translate(378,279)"/>
<path d="M0 0 C-0.66 0.66 -1.32 1.32 -2 2 C-2.99 2 -3.98 2 -5 2 C-5 2.66 -5 3.32 -5 4 C-5.6084375 4.20753906 -6.216875 4.41507812 -6.84375 4.62890625 C-13.56672931 6.99183574 -20.0539776 9.71839804 -26.515625 12.71313477 C-29.98784977 14.28445345 -32.11855569 15 -36 15 C-36 15.66 -36 16.32 -36 17 C-38.31 17.33 -40.62 17.66 -43 18 C-43 18.66 -43 19.32 -43 20 C-48.22270869 22.66464729 -51.0819503 23.32854177 -57 22 C-57 21.34 -57 20.68 -57 20 C-54.2948104 18.8462276 -51.58625741 17.70185241 -48.875 16.5625 C-48.11445313 16.23701172 -47.35390625 15.91152344 -46.5703125 15.57617188 C-42.37767563 13.82321594 -38.55762995 12.51691969 -34 12 C-34 11.34 -34 10.68 -34 10 C-31.36 9.67 -28.72 9.34 -26 9 C-26 8.34 -26 7.68 -26 7 C-25.01 7 -24.02 7 -23 7 C-23 6.34 -23 5.68 -23 5 C-16.2491402 1.06199845 -7.73457775 -2.1003991 0 0 Z " fill="#3C3C3C" transform="translate(558,360)"/>
<path d="M0 0 C0 0.66 0 1.32 0 2 C0.66 2 1.32 2 2 2 C2 2.99 2 3.98 2 5 C0.68 5 -0.64 5 -2 5 C-2 5.66 -2 6.32 -2 7 C-8.37978938 9.11771714 -14.31352025 10.3631924 -21 11 C-21.33 11.33 -21.66 11.66 -22 12 C-24.18292774 12.23481693 -26.37203174 12.41363323 -28.5625 12.5625 C-29.76003906 12.64628906 -30.95757812 12.73007812 -32.19140625 12.81640625 C-33.11824219 12.87699219 -34.04507812 12.93757813 -35 13 C-35.33 11.68 -35.66 10.36 -36 9 C-35.02160156 8.81824219 -35.02160156 8.81824219 -34.0234375 8.6328125 C-29.19515058 7.70703477 -24.65807285 6.58374477 -20 5 C-16.95602393 4.22003383 -13.90400631 3.47653752 -10.8515625 2.73046875 C-0.19251337 0 -0.19251337 0 0 0 Z " fill="#272727" transform="translate(508,337)"/>
<path d="M0 0 C0 0.66 0 1.32 0 2 C-1.65 2.33 -3.3 2.66 -5 3 C-5 3.66 -5 4.32 -5 5 C-6.98 5.33 -8.96 5.66 -11 6 C-11 7.65 -11 9.3 -11 11 C-11.99 11.33 -12.98 11.66 -14 12 C-14 11.01 -14 10.02 -14 9 C-23.47469594 12.15567463 -23.47469594 12.15567463 -32.5625 16.25 C-35.51477841 17.7529781 -37.74516839 18.59314605 -41 19 C-41 18.34 -41 17.68 -41 17 C-38.09399739 15.74335022 -36.20395416 15 -33 15 C-33 14.34 -33 13.68 -33 13 C-26.375 10.125 -26.375 10.125 -23 9 C-23 8.34 -23 7.68 -23 7 C-26.465 8.485 -26.465 8.485 -30 10 C-30 9.34 -30 8.68 -30 8 C-30.66 7.67 -31.32 7.34 -32 7 C-26.81021378 4.46277118 -21.96390034 3.31591913 -16.2578125 2.4296875 C-14.03931507 2.22679557 -14.03931507 2.22679557 -13 1 C-8.62512908 0.34376936 -4.43069564 -0.13845924 0 0 Z " fill="#0D0D0D" transform="translate(712,289)"/>
<path d="M0 0 C0 1.32 0 2.64 0 4 C-2.31 4.33 -4.62 4.66 -7 5 C-7 5.66 -7 6.32 -7 7 C-8.60149886 7.67305018 -10.20631029 8.33822227 -11.8125 9 C-12.70582031 9.37125 -13.59914063 9.7425 -14.51953125 10.125 C-17 11 -17 11 -20 11 C-20 11.66 -20 12.32 -20 13 C-21.93558599 13.67220351 -23.87354372 14.33758077 -25.8125 15 C-26.89144531 15.37125 -27.97039063 15.7425 -29.08203125 16.125 C-32 17 -32 17 -35 17 C-35 17.66 -35 18.32 -35 19 C-37.64 19.66 -40.28 20.32 -43 21 C-43.33 20.01 -43.66 19.02 -44 18 C-42.68 18 -41.36 18 -40 18 C-39.67 17.01 -39.34 16.02 -39 15 C-34.9033589 12.87289789 -31.63766855 11.57839377 -27 12 C-27 11.34 -27 10.68 -27 10 C-26.34 9.7525 -25.68 9.505 -25 9.25 C-22.70014319 8.29172633 -20.57529403 7.27494791 -18.375 6.125 C-6.28618421 0 -6.28618421 0 0 0 Z " fill="#464646" transform="translate(698,298)"/>
<path d="M0 0 C1.65 0 3.3 0 5 0 C5 0.66 5 1.32 5 2 C11.435 1.505 11.435 1.505 18 1 C18 1.66 18 2.32 18 3 C16.02 3.33 14.04 3.66 12 4 C12.33 4.99 12.66 5.98 13 7 C11.68 7 10.36 7 9 7 C9.33 7.66 9.66 8.32 10 9 C9.01 9 8.02 9 7 9 C7 9.66 7 10.32 7 11 C2.545 11.495 2.545 11.495 -2 12 C-1.34 10.68 -0.68 9.36 0 8 C2.0625 7.375 2.0625 7.375 4 7 C4.33 6.34 4.66 5.68 5 5 C3.98679687 5.2165625 2.97359375 5.433125 1.9296875 5.65625 C0.57818996 5.93781199 -0.77337625 6.2190445 -2.125 6.5 C-2.79015625 6.64308594 -3.4553125 6.78617187 -4.140625 6.93359375 C-8.16056422 7.7612283 -11.89904899 8.15330658 -16 8 C-16 7.01 -16 6.02 -16 5 C-14.27318563 4.49193553 -12.54342021 3.99389533 -10.8125 3.5 C-9.36810547 3.08234375 -9.36810547 3.08234375 -7.89453125 2.65625 C-5.14654124 2.03322392 -2.80401584 1.87697188 0 2 C0 1.34 0 0.68 0 0 Z " fill="#353535" transform="translate(715,281)"/>
<path d="M0 0 C-3 2 -3 2 -6.5625 2.5 C-10.0571192 2.65847757 -10.0571192 2.65847757 -12 5 C-15.125 5.125 -15.125 5.125 -18 5 C-18 5.66 -18 6.32 -18 7 C-19.299375 7.12375 -20.59875 7.2475 -21.9375 7.375 C-30.01644142 7.84179303 -30.01644142 7.84179303 -37 11 C-39.85528607 11.400383 -42.69736487 11.7518227 -45.5625 12.0625 C-46.77196289 12.19881836 -46.77196289 12.19881836 -48.00585938 12.33789062 C-50.00347377 12.56247449 -52.0016856 12.78173236 -54 13 C-54.33 11.68 -54.66 10.36 -55 9 C-52.43786446 8.35269196 -49.87531515 7.70710712 -47.3125 7.0625 C-46.2306543 6.78889648 -46.2306543 6.78889648 -45.12695312 6.50976562 C-43.71958329 6.15631658 -42.3109061 5.80802636 -40.90087891 5.46533203 C-39.31845968 5.07795841 -37.7422843 4.66518741 -36.16796875 4.24609375 C-34 4 -34 4 -31 6 C-24.98085525 5.59872368 -19.49076831 4.26937029 -13.80859375 2.203125 C-8.95483542 0.46201372 -5.15958532 -0.32933523 0 0 Z " fill="#1B1B1B" transform="translate(566,327)"/>
<path d="M0 0 C0.99 0.33 1.98 0.66 3 1 C2.45018048 6.91055988 0.71873211 12.24224369 -1.078125 17.88671875 C-2.08732416 21.29490406 -2.67169203 24.47068932 -3 28 C-4.98 28 -6.96 28 -9 28 C-8.16574551 17.48839349 -4.90550496 9.28749753 0 0 Z " fill="#414141" transform="translate(329,338)"/>
<path d="M0 0 C1.32 0 2.64 0 4 0 C4 0.99 4 1.98 4 3 C5.32 3.33 6.64 3.66 8 4 C-10.68774704 12 -10.68774704 12 -17 12 C-17 11.34 -17 10.68 -17 10 C-16.34 10 -15.68 10 -15 10 C-15 9.34 -15 8.68 -15 8 C-16.32 8 -17.64 8 -19 8 C-19 7.34 -19 6.68 -19 6 C-16.69 6 -14.38 6 -12 6 C-12 5.34 -12 4.68 -12 4 C-10.68 4 -9.36 4 -8 4 C-8 3.34 -8 2.68 -8 2 C-6.2984375 1.7834375 -6.2984375 1.7834375 -4.5625 1.5625 C-1.19222799 1.38828522 -1.19222799 1.38828522 0 0 Z " fill="#2B2B2B" transform="translate(428,409)"/>
<path d="M0 0 C7.92 0 15.84 0 24 0 C22 5 22 5 21 6 C17.96993855 6.10129999 14.96744712 6.13859737 11.9375 6.125 C11.10283203 6.12886719 10.26816406 6.13273437 9.40820312 6.13671875 C4.18320595 6.12857378 -0.82931989 5.75318577 -6 5 C-6 4.01 -6 3.02 -6 2 C-4.02 2 -2.04 2 0 2 C0 1.34 0 0.68 0 0 Z " fill="#2A2A2A" transform="translate(400,358)"/>
<path d="M0 0 C1.65 0 3.3 0 5 0 C1.93882432 2.62386487 1.26826873 3 -3 3 C-3 3.66 -3 4.32 -3 5 C-4.32 5 -5.64 5 -7 5 C-7 6.65 -7 8.3 -7 10 C-7.91523438 10.42152344 -8.83046875 10.84304688 -9.7734375 11.27734375 C-10.96195312 11.82519531 -12.15046875 12.37304688 -13.375 12.9375 C-14.55835938 13.48277344 -15.74171875 14.02804687 -16.9609375 14.58984375 C-18.6499011 15.37354023 -20.33464041 16.1673202 -22 17 C-24.6723621 17.13415472 -27.32250488 17.04318541 -30 17 C-30 16.01 -30 15.02 -30 14 C-21.57142857 10.71428571 -21.57142857 10.71428571 -17 10 C-17 9.34 -17 8.68 -17 8 C-15.02 7.67 -13.04 7.34 -11 7 C-11 6.34 -11 5.68 -11 5 C-4.5 2 -4.5 2 0 2 C0 1.34 0 0.68 0 0 Z " fill="#444444" transform="translate(462,395)"/>
<path d="M0 0 C0.66 0.66 1.32 1.32 2 2 C0.68 2 -0.64 2 -2 2 C-2 2.66 -2 3.32 -2 4 C-2.804375 4.268125 -3.60875 4.53625 -4.4375 4.8125 C-5.283125 5.204375 -6.12875 5.59625 -7 6 C-7.33 6.99 -7.66 7.98 -8 9 C-9.65 9.33 -11.3 9.66 -13 10 C-13 10.66 -13 11.32 -13 12 C-14.32 12.33 -15.64 12.66 -17 13 C-17.66 12.01 -18.32 11.02 -19 10 C-17.68 10 -16.36 10 -15 10 C-15 9.34 -15 8.68 -15 8 C-13.02 7.67 -11.04 7.34 -9 7 C-9 6.34 -9 5.68 -9 5 C-9.68707031 5.15597656 -10.37414062 5.31195313 -11.08203125 5.47265625 C-11.98308594 5.66730469 -12.88414062 5.86195313 -13.8125 6.0625 C-14.70582031 6.25972656 -15.59914063 6.45695312 -16.51953125 6.66015625 C-19 7 -19 7 -22 6 C-22 5.01 -22 4.02 -22 3 C-19.2735685 2.2996047 -16.54476473 1.6144225 -13.8125 0.9375 C-13.04357422 0.73833984 -12.27464844 0.53917969 -11.48242188 0.33398438 C-4.09545157 -1.47312853 -4.09545157 -1.47312853 0 0 Z " fill="#575757" transform="translate(742,277)"/>
<path d="M0 0 C0.66 0.33 1.32 0.66 2 1 C1.01 5.62 0.02 10.24 -1 15 C-1.66 14.01 -2.32 13.02 -3 12 C-3.99 12.495 -3.99 12.495 -5 13 C-5 11.68 -5 10.36 -5 9 C-5.99 9.33 -6.98 9.66 -8 10 C-8.1546875 10.8971875 -8.1546875 10.8971875 -8.3125 11.8125 C-9.39002541 15.24098994 -12.02264882 16.22625887 -15 18 C-14 16 -13 14 -12 12 C-12.99 12 -13.98 12 -15 12 C-15 12.66 -15 13.32 -15 14 C-15.66 14 -16.32 14 -17 14 C-16.67 14.99 -16.34 15.98 -16 17 C-17.65 17.66 -19.3 18.32 -21 19 C-19.47291037 15.56404834 -17.40072955 12.88087546 -15 10 C-13.35 10.33 -11.7 10.66 -10 11 C-10 10.01 -10 9.02 -10 8 C-5.77142857 4 -5.77142857 4 -2 4 C-2 3.01 -2 2.02 -2 1 C-1.34 0.67 -0.68 0.34 0 0 Z " fill="#0F0F0F" transform="translate(367,293)"/>
<path d="M0 0 C1.65 0 3.3 0 5 0 C4.01 0.33 3.02 0.66 2 1 C2 1.66 2 2.32 2 3 C-1.08205942 4.14928044 -4.16585971 5.29381663 -7.25 6.4375 C-8.12269531 6.76298828 -8.99539063 7.08847656 -9.89453125 7.42382812 C-10.73886719 7.73642578 -11.58320313 8.04902344 -12.453125 8.37109375 C-13.22817383 8.65911865 -14.00322266 8.94714355 -14.80175781 9.24389648 C-16.85307664 9.9494645 -18.88804679 10.5098754 -21 11 C-21 11.66 -21 12.32 -21 13 C-19.68 13.66 -18.36 14.32 -17 15 C-17.99 15 -18.98 15 -20 15 C-20 15.66 -20 16.32 -20 17 C-21.65 17.33 -23.3 17.66 -25 18 C-24.67 17.01 -24.34 16.02 -24 15 C-23.34 14.67 -22.68 14.34 -22 14 C-25.16552079 14.47962436 -27.60264975 15.26432006 -30.5625 16.5625 C-34 18 -34 18 -38 18 C-38 18.66 -38 19.32 -38 20 C-39.32 19.67 -40.64 19.34 -42 19 C-41.01 19 -40.02 19 -39 19 C-39 18.34 -39 17.68 -39 17 C-31.71428571 12.42857143 -31.71428571 12.42857143 -27 13 C-27 12.34 -27 11.68 -27 11 C-26.28585937 10.88398438 -25.57171875 10.76796875 -24.8359375 10.6484375 C-21.84851485 9.9653629 -19.39242761 8.93338268 -16.625 7.625 C-15.66722656 7.18027344 -14.70945312 6.73554688 -13.72265625 6.27734375 C-12.82417969 5.85582031 -11.92570312 5.43429687 -11 5 C-7.12793374 3.18829927 -4.39415044 2 0 2 C0 1.34 0 0.68 0 0 Z " fill="#1C1C1C" transform="translate(522,369)"/>
<path d="M0 0 C2.31 0 4.62 0 7 0 C7 0.66 7 1.32 7 2 C7.59167969 1.855625 8.18335938 1.71125 8.79296875 1.5625 C12.92529941 0.59177306 16.7229762 -0.27593702 21 0 C20.67 0.99 20.34 1.98 20 3 C17.015625 3.94921875 17.015625 3.94921875 13.25 4.6875 C12.01765625 4.93886719 10.7853125 5.19023437 9.515625 5.44921875 C6.58620321 5.9081615 3.95203204 6.11830663 1 6 C1 6.66 1 7.32 1 8 C-1.64 8 -4.28 8 -7 8 C-5.74458443 5.48916886 -4.49936512 5.12874554 -2 4 C-2.66 3.34 -3.32 2.68 -4 2 C-2.68 2 -1.36 2 0 2 C0 1.34 0 0.68 0 0 Z " fill="#282828" transform="translate(659,296)"/>
<path d="M0 0 C0.66 0 1.32 0 2 0 C2.33 1.32 2.66 2.64 3 4 C1.35 4.33 -0.3 4.66 -2 5 C-2 5.66 -2 6.32 -2 7 C-4.31 7.33 -6.62 7.66 -9 8 C-9 8.66 -9 9.32 -9 10 C-14.22270869 12.66464729 -17.0819503 13.32854177 -23 12 C-23 11.34 -23 10.68 -23 10 C-20.2948104 8.8462276 -17.58625741 7.70185241 -14.875 6.5625 C-14.11445313 6.23701172 -13.35390625 5.91152344 -12.5703125 5.57617188 C-8.37767563 3.82321594 -4.55762995 2.51691969 0 2 C0 1.34 0 0.68 0 0 Z " fill="#3F3F3F" transform="translate(524,370)"/>
<path d="M0 0 C0 0.99 0 1.98 0 3 C0.7425 2.649375 1.485 2.29875 2.25 1.9375 C5.1322726 0.95490707 6.21176345 0.9673198 9 2 C4.84398531 3.93947352 0.69497571 4.68390213 -3.79296875 5.4375 C-6.18838567 5.84800782 -6.18838567 5.84800782 -8 8 C-10.1640625 8.4140625 -10.1640625 8.4140625 -12.625 8.625 C-13.44226563 8.69976562 -14.25953125 8.77453125 -15.1015625 8.8515625 C-15.72804688 8.90054687 -16.35453125 8.94953125 -17 9 C-16.67 8.01 -16.34 7.02 -16 6 C-15.01 5.67 -14.02 5.34 -13 5 C-13.66 4.34 -14.32 3.68 -15 3 C-13.68 3 -12.36 3 -11 3 C-11 2.34 -11 1.68 -11 1 C-7.27569643 0.30710631 -3.78916254 -0.11144596 0 0 Z " fill="#272727" transform="translate(588,317)"/>
<path d="M0 0 C0.33 0.66 0.66 1.32 1 2 C2.90178785 2.60061233 2.90178785 2.60061233 5 3 C5.99 3.33 6.98 3.66 8 4 C8.33 2.68 8.66 1.36 9 0 C9 0.66 9 1.32 9 2 C9.60328125 2.13277344 10.2065625 2.26554687 10.828125 2.40234375 C11.62734375 2.57894531 12.4265625 2.75554687 13.25 2.9375 C14.43335938 3.19853516 14.43335938 3.19853516 15.640625 3.46484375 C17.76878703 3.947556 19.88532842 4.46163178 22 5 C22 5.66 22 6.32 22 7 C20.02 7 18.04 7 16 7 C16 7.66 16 8.32 16 9 C14.02 9.33 12.04 9.66 10 10 C9.34 9.01 8.68 8.02 8 7 C5.43717258 6.27034634 5.43717258 6.27034634 3 6 C3 5.34 3 4.68 3 4 C2.01 4 1.02 4 0 4 C0 2.68 0 1.36 0 0 Z " fill="#1C1C1C" transform="translate(378,353)"/>
<path d="M0 0 C0.33 0 0.66 0 1 0 C1 1.65 1 3.3 1 5 C1.66 5 2.32 5 3 5 C2.91227545 6.89666526 2.80408699 8.79238993 2.6875 10.6875 C2.62949219 11.74324219 2.57148438 12.79898437 2.51171875 13.88671875 C1.95470992 17.27554348 0.74756466 19.08739223 -1 22 C-1.56948052 25.11516747 -1.56948052 25.11516747 -1.6875 28.3125 C-1.75324219 29.38113281 -1.81898438 30.44976562 -1.88671875 31.55078125 C-1.92410156 32.35902344 -1.96148437 33.16726563 -2 34 C-2.33 34 -2.66 34 -3 34 C-3.32071279 22.1930182 -3.18816872 11.46222562 0 0 Z " fill="#2B2B2B" transform="translate(368,294)"/>
<path d="M0 0 C1.0828125 0.37125 1.0828125 0.37125 2.1875 0.75 C1.8575 3.39 1.5275 6.03 1.1875 8.75 C0.5275 8.75 -0.1325 8.75 -0.8125 8.75 C-0.8125 10.07 -0.8125 11.39 -0.8125 12.75 C-1.8025 12.42 -2.7925 12.09 -3.8125 11.75 C-3.8125 10.43 -3.8125 9.11 -3.8125 7.75 C-5.1325 8.08 -6.4525 8.41 -7.8125 8.75 C-8.125 6.5 -8.125 6.5 -7.8125 3.75 C-5.17968173 0.89151159 -3.95233493 -0.35131866 0 0 Z " fill="#4D4D4D" transform="translate(375.8125,278.25)"/>
<path d="M0 0 C-1.45654411 2.91308822 -3.35387648 3.05452316 -6.375 4.125 C-7.35210937 4.47820312 -8.32921875 4.83140625 -9.3359375 5.1953125 C-12 6 -12 6 -15 6 C-15 6.66 -15 7.32 -15 8 C-17.64 8.99 -20.28 9.98 -23 11 C-23 9.35 -23 7.7 -23 6 C-21.68 6 -20.36 6 -19 6 C-19 5.34 -19 4.68 -19 4 C-17.05556549 3.26245588 -15.11031226 2.52696751 -13.16015625 1.8046875 C-11.37068298 1.13808444 -9.59028692 0.44717134 -7.8125 -0.25 C-4.76229799 -1.0633872 -2.99819743 -0.88182277 0 0 Z " fill="#3E3E3E" transform="translate(478,394)"/>
<path d="M0 0 C0 0.66 0 1.32 0 2 C-2.18386418 2.67848208 -4.37230084 3.3422551 -6.5625 4 C-7.78066406 4.37125 -8.99882812 4.7425 -10.25390625 5.125 C-13.97923349 5.99514943 -17.19065949 6.15688404 -21 6 C-21.33 5.01 -21.66 4.02 -22 3 C-19.46163847 2.29757929 -16.92055937 1.61289798 -14.375 0.9375 C-13.66214844 0.73833984 -12.94929688 0.53917969 -12.21484375 0.33398438 C-7.7911325 -0.82267407 -4.54228571 -1.13915367 0 0 Z " fill="#414141" transform="translate(472,349)"/>
<path d="M0 0 C1.32 0 2.64 0 4 0 C4 1.65 4 3.3 4 5 C3.01 5.33 2.02 5.66 1 6 C1 5.01 1 4.02 1 3 C-8.47469594 6.15567463 -8.47469594 6.15567463 -17.5625 10.25 C-20.51477841 11.7529781 -22.74516839 12.59314605 -26 13 C-26 12.34 -26 11.68 -26 11 C-23.09399739 9.74335022 -21.20395416 9 -18 9 C-18 8.34 -18 7.68 -18 7 C-15.41210938 5.92578125 -15.41210938 5.92578125 -12.82421875 4.8515625 C-10.73466068 3.93193308 -10.73466068 3.93193308 -8 2 C-5.67085177 1.63858045 -3.33746522 1.30300475 -1 1 C-0.67 0.67 -0.34 0.34 0 0 Z " fill="#181818" transform="translate(697,295)"/>
<path d="M0 0 C0.33 1.32 0.66 2.64 1 4 C1.66 4 2.32 4 3 4 C2.67 6.31 2.34 8.62 2 11 C1.34 11 0.68 11 0 11 C-0.144375 11.94875 -0.28875 12.8975 -0.4375 13.875 C-1 17 -1 17 -2 19 C-2.66 19 -3.32 19 -4 19 C-3.67 16.69 -3.34 14.38 -3 12 C-3.66 12 -4.32 12 -5 12 C-4.67 10.02 -4.34 8.04 -4 6 C-3.34 6 -2.68 6 -2 6 C-1.855625 5.195625 -1.71125 4.39125 -1.5625 3.5625 C-1 1 -1 1 0 0 Z " fill="#2A2A2A" transform="translate(335,327)"/>
<path d="M0 0 C2 3 2 3 1.75 5.4375 C1.05282249 7.81952314 0.20252143 9.83546142 -1 12 C-1.66 11.67 -2.32 11.34 -3 11 C-3 9.02 -3 7.04 -3 5 C-4.32 5.33 -5.64 5.66 -7 6 C-7 6.99 -7 7.98 -7 9 C-9.88834003 11.10770759 -11.38462395 12 -15 12 C-14.67 11.34 -14.34 10.68 -14 10 C-13.34 10 -12.68 10 -12 10 C-11.67 9.01 -11.34 8.02 -11 7 C-10.01 7.33 -9.02 7.66 -8 8 C-7.9175 7.4225 -7.835 6.845 -7.75 6.25 C-6.39368324 2.18104973 -4.31919078 0 0 0 Z " fill="#2E2E2E" transform="translate(372,288)"/>
<path d="M0 0 C-0.33 1.32 -0.66 2.64 -1 4 C-2.87387477 4.3396019 -4.74916697 4.67138691 -6.625 5 C-7.66914062 5.185625 -8.71328125 5.37125 -9.7890625 5.5625 C-12.90574865 5.98715797 -15.85930812 6.07545206 -19 6 C-19 5.01 -19 4.02 -19 3 C-12.49577707 0.99134292 -6.8218683 -0.38614349 0 0 Z " fill="#545454" transform="translate(718,283)"/>
<path d="M0 0 C0.33 0.66 0.66 1.32 1 2 C0.34 2 -0.32 2 -1 2 C-1 2.66 -1 3.32 -1 4 C-3.40059817 5.20029908 -4.89360649 5.11459743 -7.5703125 5.09765625 C-8.46621094 5.09443359 -9.36210937 5.09121094 -10.28515625 5.08789062 C-11.22230469 5.07951172 -12.15945313 5.07113281 -13.125 5.0625 C-14.06988281 5.05798828 -15.01476562 5.05347656 -15.98828125 5.04882812 C-18.32558387 5.03702357 -20.66276061 5.02055759 -23 5 C-23 4.01 -23 3.02 -23 2 C-22.37432129 1.97494385 -21.74864258 1.9498877 -21.10400391 1.92407227 C-18.27745381 1.80824727 -15.45124831 1.68546015 -12.625 1.5625 C-11.14773438 1.50352539 -11.14773438 1.50352539 -9.640625 1.44335938 C-8.22910156 1.38051758 -8.22910156 1.38051758 -6.7890625 1.31640625 C-5.91975098 1.27974854 -5.05043945 1.24309082 -4.15478516 1.20532227 C-1.9516738 1.12598456 -1.9516738 1.12598456 0 0 Z " fill="#141414" transform="translate(385,423)"/>
<path d="M0 0 C-0.33 0.99 -0.66 1.98 -1 3 C-2.72672034 3.36590746 -4.45653655 3.71722195 -6.1875 4.0625 C-7.15042969 4.25972656 -8.11335937 4.45695312 -9.10546875 4.66015625 C-12.03610862 5.00423947 -14.16307068 4.74164697 -17 4 C-17 3.01 -17 2.02 -17 1 C-10.60146478 -1.39462284 -6.43534142 -2.6580758 0 0 Z " fill="#363636" transform="translate(528,335)"/>
<path d="M0 0 C0 1.32 0 2.64 0 4 C-2.31 4.33 -4.62 4.66 -7 5 C-7 5.66 -7 6.32 -7 7 C-9.12369237 7.36192504 -11.2490113 7.71431747 -13.375 8.0625 C-14.55835938 8.25972656 -15.74171875 8.45695312 -16.9609375 8.66015625 C-20 9 -20 9 -22 8 C-6.85714286 0 -6.85714286 0 0 0 Z " fill="#383838" transform="translate(698,298)"/>
<path d="M0 0 C-0.66 0 -1.32 0 -2 0 C-2 0.66 -2 1.32 -2 2 C-2.99 2 -3.98 2 -5 2 C-5 2.66 -5 3.32 -5 4 C-5.99 4.495 -5.99 4.495 -7 5 C-6.67 5.66 -6.34 6.32 -6 7 C-7.98 7.99 -7.98 7.99 -10 9 C-10.33 8.34 -10.66 7.68 -11 7 C-10.34 7 -9.68 7 -9 7 C-9 6.34 -9 5.68 -9 5 C-12.79303725 6.00193437 -15.71536341 6.81024227 -19 9 C-22.1875 9.125 -22.1875 9.125 -25 9 C-22.00275264 5.2534408 -19.45440362 4.37995743 -14.953125 3.4296875 C-11.57168906 2.68577159 -8.51722908 1.23398458 -5.375 -0.1875 C-3 -1 -3 -1 0 0 Z " fill="#1F1F1F" transform="translate(613,333)"/>
<path d="M0 0 C1.65 0 3.3 0 5 0 C8.28571429 8.42857143 8.28571429 8.42857143 9 13 C7.35 12.67 5.7 12.34 4 12 C3.67 10.35 3.34 8.7 3 7 C2.34 7 1.68 7 1 7 C0.67 4.69 0.34 2.38 0 0 Z " fill="#3B3B3B" transform="translate(320,393)"/>
<path d="M0 0 C2.90083697 0.56601697 5.61412352 0.56856689 8.5625 0.5 C6.03830407 3.02419593 4.13892137 3.28957038 0.6875 4.125 C-0.36179687 4.38539063 -1.41109375 4.64578125 -2.4921875 4.9140625 C-5.4375 5.5 -5.4375 5.5 -9.4375 5.5 C-9.4375 4.51 -9.4375 3.52 -9.4375 2.5 C-10.7575 2.17 -12.0775 1.84 -13.4375 1.5 C-13.4375 1.17 -13.4375 0.84 -13.4375 0.5 C-8.80059144 -0.36268066 -4.65246332 -0.95435145 0 0 Z " fill="#232323" transform="translate(635.4375,305.5)"/>
<path d="M0 0 C0 0.66 0 1.32 0 2 C0.66 2 1.32 2 2 2 C2 2.99 2 3.98 2 5 C-7.25153374 7.55214724 -7.25153374 7.55214724 -12 7 C-13.875 5.5 -13.875 5.5 -15 4 C-13.96875 3.71125 -12.9375 3.4225 -11.875 3.125 C-9.44764391 2.43568995 -7.07998847 1.68754326 -4.6875 0.875 C-2 0 -2 0 0 0 Z " fill="#444444" transform="translate(508,337)"/>
<path d="M0 0 C0.33 1.32 0.66 2.64 1 4 C0.01 4 -0.98 4 -2 4 C-2 4.66 -2 5.32 -2 6 C-3.40691607 6.72750788 -4.82606022 7.43140353 -6.25 8.125 C-7.03890625 8.51945312 -7.8278125 8.91390625 -8.640625 9.3203125 C-11 10 -11 10 -13.296875 9.1171875 C-14.13992188 8.56417969 -14.13992188 8.56417969 -15 8 C-14.01 7.67 -13.02 7.34 -12 7 C-12 6.34 -12 5.68 -12 5 C-11.01 5 -10.02 5 -9 5 C-9 4.34 -9 3.68 -9 3 C-8.34 3 -7.68 3 -7 3 C-7 2.34 -7 1.68 -7 1 C-2.25 0 -2.25 0 0 0 Z " fill="#2F2F2F" transform="translate(620,330)"/>
<path d="M0 0 C1.50433594 0.01353516 1.50433594 0.01353516 3.0390625 0.02734375 C3.80992187 0.03894531 4.58078125 0.05054688 5.375 0.0625 C5.705 1.0525 6.035 2.0425 6.375 3.0625 C4.31418639 3.56940584 2.25126474 4.06774619 0.1875 4.5625 C-1.53533203 4.98015625 -1.53533203 4.98015625 -3.29296875 5.40625 C-6.19318829 5.97745385 -8.68596385 6.19533779 -11.625 6.0625 C-10.965 5.7325 -10.305 5.4025 -9.625 5.0625 C-9.625 4.4025 -9.625 3.7425 -9.625 3.0625 C-8.965 3.0625 -8.305 3.0625 -7.625 3.0625 C-7.625 2.4025 -7.625 1.7425 -7.625 1.0625 C-4.98041621 -0.25979189 -2.94738699 -0.03427194 0 0 Z " fill="#424242" transform="translate(393.625,421.9375)"/>
<path d="M0 0 C-0.5859375 1.953125 -0.5859375 1.953125 -2 4 C-5.0390625 4.609375 -5.0390625 4.609375 -8.625 4.75 C-10.40777344 4.83507812 -10.40777344 4.83507812 -12.2265625 4.921875 C-13.14179688 4.94765625 -14.05703125 4.9734375 -15 5 C-15.33 3.68 -15.66 2.36 -16 1 C-5.62642369 -1.48063781 -5.62642369 -1.48063781 0 0 Z " fill="#313131" transform="translate(488,345)"/>
<path d="M0 0 C2.64 0 5.28 0 8 0 C7.67 0.66 7.34 1.32 7 2 C15.415 1.505 15.415 1.505 24 1 C24 1.33 24 1.66 24 2 C15.17634256 4.42614476 7.14504844 5.40411834 -2 5 C-1.34 3.35 -0.68 1.7 0 0 Z " fill="#1E1E1E" transform="translate(424,358)"/>
<path d="M0 0 C-0.33 1.32 -0.66 2.64 -1 4 C-1.99 4 -2.98 4 -4 4 C-4 4.66 -4 5.32 -4 6 C-5.98 6.33 -7.96 6.66 -10 7 C-10 7.66 -10 8.32 -10 9 C-12.97 8.67 -15.94 8.34 -19 8 C-18 6 -18 6 -16.00390625 5.1484375 C-15.19824219 4.89320313 -14.39257812 4.63796875 -13.5625 4.375 C-12.75941406 4.11460937 -11.95632813 3.85421875 -11.12890625 3.5859375 C-9 3 -9 3 -7 3 C-7 2.34 -7 1.68 -7 1 C-4.50935112 0.31292445 -2.62113708 0 0 0 Z " fill="#393939" transform="translate(570,352)"/>
<path d="M0 0 C2.00698975 1.3227887 4.00591923 2.65783025 6 4 C6.78375 4.495 7.5675 4.99 8.375 5.5 C8.91125 5.995 9.4475 6.49 10 7 C10 8.32 10 9.64 10 11 C7.61435923 10.42415568 5.33317216 9.77772405 3 9 C3 8.34 3 7.68 3 7 C2.01 6.67 1.02 6.34 0 6 C0 5.34 0 4.68 0 4 C-0.66 4 -1.32 4 -2 4 C-2 3.34 -2 2.68 -2 2 C-1.34 2 -0.68 2 0 2 C0 1.34 0 0.68 0 0 Z " fill="#2C2C2C" transform="translate(376,346)"/>
<path d="M0 0 C0.33 0.66 0.66 1.32 1 2 C1.66 2 2.32 2 3 2 C3.185625 2.5775 3.37125 3.155 3.5625 3.75 C5.70551122 7.10427843 8.48822563 8.17907996 12 10 C12 10.99 12 11.98 12 13 C11.34 13 10.68 13 10 13 C10 12.34 10 11.68 10 11 C9.01 11.66 8.02 12.32 7 13 C5.68 13 4.36 13 3 13 C2.02391783 10.07175348 1.91773332 8.04386724 2 5 C1.34 5 0.68 5 0 5 C0 3.35 0 1.7 0 0 Z " fill="#212121" transform="translate(332,404)"/>
<path d="M0 0 C0.99 0.33 1.98 0.66 3 1 C2.34 1 1.68 1 1 1 C1.66 2.32 2.32 3.64 3 5 C-6.33452961 8.59958985 -6.33452961 8.59958985 -11 7 C-12.1446875 6.7215625 -12.1446875 6.7215625 -13.3125 6.4375 C-13.869375 6.293125 -14.42625 6.14875 -15 6 C-14.01 6 -13.02 6 -12 6 C-12 5.34 -12 4.68 -12 4 C-7.8803623 2.70756464 -4.33168317 1.73747375 0 2 C0 1.34 0 0.68 0 0 Z " fill="#323232" transform="translate(484,387)"/>
<path d="M0 0 C0.66 0.66 1.32 1.32 2 2 C0.68 2 -0.64 2 -2 2 C-2 2.66 -2 3.32 -2 4 C-3.98 4.66 -5.96 5.32 -8 6 C-8 5.34 -8 4.68 -8 4 C-9.32 4 -10.64 4 -12 4 C-11.67 2.68 -11.34 1.36 -11 0 C-7.00904159 -0.83531688 -3.93289983 -1.20171939 0 0 Z " fill="#656565" transform="translate(742,277)"/>
<path d="M0 0 C0 0.66 0 1.32 0 2 C-3.46153846 5 -3.46153846 5 -6 5 C-6 6.32 -6 7.64 -6 9 C-6.66 9 -7.32 9 -8 9 C-8.28875 9.639375 -8.5775 10.27875 -8.875 10.9375 C-10 13 -10 13 -12 14 C-10.5 11 -10.5 11 -9 8 C-9.99 8 -10.98 8 -12 8 C-12 8.66 -12 9.32 -12 10 C-12.66 10 -13.32 10 -14 10 C-13.67 10.99 -13.34 11.98 -13 13 C-14.65 13.66 -16.3 14.32 -18 15 C-16.47291037 11.56404834 -14.40072955 8.88087546 -12 6 C-10.35 6.33 -8.7 6.66 -7 7 C-7 6.01 -7 5.02 -7 4 C-2.65714286 0 -2.65714286 0 0 0 Z " fill="#212121" transform="translate(364,297)"/>
<path d="M0 0 C0.99 0 1.98 0 3 0 C2.34 4.29 1.68 8.58 1 13 C0.34 13 -0.32 13 -1 13 C-1.33 13.66 -1.66 14.32 -2 15 C-2.66 15 -3.32 15 -4 15 C-3.50341703 9.33895411 -2.45489316 5.12325529 0 0 Z " fill="#3F3F3F" transform="translate(324,350)"/>
<path d="M0 0 C0.721875 0.37125 1.44375 0.7425 2.1875 1.125 C-3.40406709 4.02433109 -7.39496635 5.37666799 -13.8125 5.125 C-14.1425 4.135 -14.4725 3.145 -14.8125 2.125 C-13.760625 2.00125 -12.70875 1.8775 -11.625 1.75 C-7.9253014 1.31271232 -7.9253014 1.31271232 -5.1875 -0.0625 C-2.8125 -0.875 -2.8125 -0.875 0 0 Z " fill="#595959" transform="translate(573.8125,320.875)"/>
<path d="M0 0 C0 0.66 0 1.32 0 2 C0.66 2.33 1.32 2.66 2 3 C-2.29 4.65 -6.58 6.3 -11 8 C-11.33 7.01 -11.66 6.02 -12 5 C-9.82600171 0.65200343 -4.43891837 0 0 0 Z " fill="#474747" transform="translate(712,292)"/>
<path d="M0 0 C1.65 0 3.3 0 5 0 C1.93882432 2.62386487 1.26826873 3 -3 3 C-3 3.66 -3 4.32 -3 5 C-4.32 5 -5.64 5 -7 5 C-7 6.65 -7 8.3 -7 10 C-8.65 10.33 -10.3 10.66 -12 11 C-11.34 10.67 -10.68 10.34 -10 10 C-10 9.34 -10 8.68 -10 8 C-12.31 8.33 -14.62 8.66 -17 9 C-14 7 -14 7 -11 7 C-11 6.34 -11 5.68 -11 5 C-4.5 2 -4.5 2 0 2 C0 1.34 0 0.68 0 0 Z " fill="#242424" transform="translate(462,395)"/>
<path d="M0 0 C1.32 0.33 2.64 0.66 4 1 C3.67 2.65 3.34 4.3 3 6 C2.34 6 1.68 6 1 6 C1 6.66 1 7.32 1 8 C-0.32 8 -1.64 8 -3 8 C-3 7.01 -3 6.02 -3 5 C-3.99 5 -4.98 5 -6 5 C-6 4.01 -6 3.02 -6 2 C-3.525 2.495 -3.525 2.495 -1 3 C-0.67 2.01 -0.34 1.02 0 0 Z " fill="#242424" transform="translate(573,347)"/>
<path d="M0 0 C1.75094115 2.62641172 2.45274638 4.10691211 3.1875 7.0625 C3.36667969 7.75472656 3.54585938 8.44695312 3.73046875 9.16015625 C4 11 4 11 3 13 C2.01 13 1.02 13 0 13 C-1.99785435 8.8794254 -2.17835515 5.54805635 -2 1 C-1.34 0.67 -0.68 0.34 0 0 Z " fill="#2D2D2D" transform="translate(368,328)"/>
<path d="M0 0 C0.99 0 1.98 0 3 0 C2.34 1.65 1.68 3.3 1 5 C-5.27 5 -11.54 5 -18 5 C-18 4.34 -18 3.68 -18 3 C-9.585 2.505 -9.585 2.505 -1 2 C-0.67 1.34 -0.34 0.68 0 0 Z " fill="#4A4A4A" transform="translate(421,358)"/>
<path d="M0 0 C0 0.66 0 1.32 0 2 C-9.41002278 4.29612756 -9.41002278 4.29612756 -14 4 C-14.33 3.01 -14.66 2.02 -15 1 C-13.02 1 -11.04 1 -9 1 C-9 0.34 -9 -0.32 -9 -1 C-5.22102349 -2.0497157 -3.35080929 -2.10976881 0 0 Z " fill="#4E4E4E" transform="translate(680,294)"/>
<path d="M0 0 C1.32 0 2.64 0 4 0 C4 0.66 4 1.32 4 2 C4.66 2 5.32 2 6 2 C6 2.66 6 3.32 6 4 C7.32 4 8.64 4 10 4 C9.67 5.65 9.34 7.3 9 9 C6.69 8.01 4.38 7.02 2 6 C2 5.34 2 4.68 2 4 C1.01 3.67 0.02 3.34 -1 3 C-0.67 2.01 -0.34 1.02 0 0 Z " fill="#404040" transform="translate(338,415)"/>
<path d="M0 0 C-0.33 0.99 -0.66 1.98 -1 3 C-2.65204456 3.70211894 -4.31923769 4.36971413 -6 5 C-6.33 5.66 -6.66 6.32 -7 7 C-6.34 7 -5.68 7 -5 7 C-5.33 7.66 -5.66 8.32 -6 9 C-6.66 8.67 -7.32 8.34 -8 8 C-8 7.34 -8 6.68 -8 6 C-9.65 6.33 -11.3 6.66 -13 7 C-13.33 6.34 -13.66 5.68 -14 5 C-12.02 5 -10.04 5 -8 5 C-8 4.34 -8 3.68 -8 3 C-10.31 3.33 -12.62 3.66 -15 4 C-15 3.34 -15 2.68 -15 2 C-13.06302033 1.66365624 -11.12539514 1.33102835 -9.1875 1 C-7.56908203 0.7215625 -7.56908203 0.7215625 -5.91796875 0.4375 C-3 0 -3 0 0 0 Z " fill="#292929" transform="translate(720,286)"/>
<path d="M0 0 C5.4185766 -0.22577402 9.77487721 0.53329887 15 2 C15 2.33 15 2.66 15 3 C13.58603098 3.50757862 12.16868271 4.00574925 10.75 4.5 C9.56664062 4.91765625 9.56664062 4.91765625 8.359375 5.34375 C6 6 6 6 2 6 C2 5.34 2 4.68 2 4 C2.66 4 3.32 4 4 4 C4 3.34 4 2.68 4 2 C2.68 2 1.36 2 0 2 C0 1.34 0 0.68 0 0 Z " fill="#202020" transform="translate(409,415)"/>
<path d="M0 0 C1.98 0 3.96 0 6 0 C5.01 0.33 4.02 0.66 3 1 C2.7525 1.639375 2.505 2.27875 2.25 2.9375 C1 5 1 5 -2.375 6.25 C-6 7 -6 7 -10 7 C-10 7.66 -10 8.32 -10 9 C-11.65 9.33 -13.3 9.66 -15 10 C-11.66885915 5.97487148 -7.93899852 4.33870186 -3 3 C-2.01 3 -1.02 3 0 3 C0 2.01 0 1.02 0 0 Z " fill="#1A1A1A" transform="translate(648,314)"/>
<path d="M0 0 C4.09047728 0.43057656 4.93999357 0.93999357 8 4 C3.545 5.485 3.545 5.485 -1 7 C-0.67 6.01 -0.34 5.02 0 4 C-1.65 3.67 -3.3 3.34 -5 3 C-4.360625 2.690625 -3.72125 2.38125 -3.0625 2.0625 C-1.06389179 1.1654837 -1.06389179 1.1654837 0 0 Z " fill="#252525" transform="translate(528,331)"/>
<path d="M0 0 C2 2 2 2 2.375 4.3125 C1.88125259 7.85102311 0.45897686 9.46870029 -2 12 C-2.66 12 -3.32 12 -4 12 C-4.125 6.25 -4.125 6.25 -3 4 C-2.34 4 -1.68 4 -1 4 C-0.67 2.68 -0.34 1.36 0 0 Z " fill="#3D3D3D" transform="translate(340,319)"/>
<path d="M0 0 C0 0.66 0 1.32 0 2 C-1.65 2.33 -3.3 2.66 -5 3 C-5 3.66 -5 4.32 -5 5 C-6.98 5.33 -8.96 5.66 -11 6 C-11 5.01 -11 4.02 -11 3 C-11.99 2.67 -12.98 2.34 -14 2 C-11.28656037 -0.71343963 -3.70523981 -0.11578874 0 0 Z " fill="#1B1B1B" transform="translate(712,289)"/>
<path d="M0 0 C1.65 0 3.3 0 5 0 C5 0.66 5 1.32 5 2 C8.3 1.67 11.6 1.34 15 1 C14.67 1.66 14.34 2.32 14 3 C11.27734375 3.4140625 11.27734375 3.4140625 7.9375 3.625 C6.83277344 3.69976562 5.72804688 3.77453125 4.58984375 3.8515625 C3.73519531 3.90054687 2.88054687 3.94953125 2 4 C2 4.66 2 5.32 2 6 C-0.31 6 -2.62 6 -5 6 C-2.64031256 3.90250005 -1.45383006 3.03094296 1.75 2.8125 C2.86375 2.9053125 2.86375 2.9053125 4 3 C4 2.34 4 1.68 4 1 C2.68 0.67 1.36 0.34 0 0 Z " fill="#252525" transform="translate(468,348)"/>
<path d="M0 0 C0.53625 0.37125 1.0725 0.7425 1.625 1.125 C0.635 1.455 -0.355 1.785 -1.375 2.125 C-1.375 2.785 -1.375 3.445 -1.375 4.125 C-5.83 4.62 -5.83 4.62 -10.375 5.125 C-8.375 1.125 -8.375 1.125 -5.5 -0.25 C-2.375 -0.875 -2.375 -0.875 0 0 Z " fill="#444444" transform="translate(723.375,287.875)"/>
<path d="M0 0 C0.66 0 1.32 0 2 0 C2.625 2.8125 2.625 2.8125 3 6 C2.01 7.485 2.01 7.485 1 9 C0.54084493 11.96842658 0.54084493 11.96842658 0.375 15.1875 C0.30023438 16.27417969 0.22546875 17.36085938 0.1484375 18.48046875 C0.09945313 19.31191406 0.05046875 20.14335937 0 21 C-0.33 21 -0.66 21 -1 21 C-1.02888146 17.68751813 -1.04675799 14.37506833 -1.0625 11.0625 C-1.07087891 10.11697266 -1.07925781 9.17144531 -1.08789062 8.19726562 C-1.09111328 7.29814453 -1.09433594 6.39902344 -1.09765625 5.47265625 C-1.10289307 4.64000244 -1.10812988 3.80734863 -1.11352539 2.94946289 C-1 1 -1 1 0 0 Z " fill="#3C3C3C" transform="translate(366,307)"/>
<path d="M0 0 C1.32 0 2.64 0 4 0 C4 0.99 4 1.98 4 3 C5.32 3.33 6.64 3.66 8 4 C6.02 4.66 4.04 5.32 2 6 C2.33 4.68 2.66 3.36 3 2 C-2.11365014 3.0681847 -7.07227969 4.23107476 -12 6 C-12 5.34 -12 4.68 -12 4 C-10.68 4 -9.36 4 -8 4 C-8 3.34 -8 2.68 -8 2 C-6.2984375 1.7834375 -6.2984375 1.7834375 -4.5625 1.5625 C-1.19222799 1.38828522 -1.19222799 1.38828522 0 0 Z " fill="#1C1C1C" transform="translate(428,409)"/>
<path d="M0 0 C0.33 0.99 0.66 1.98 1 3 C2.32 2.67 3.64 2.34 5 2 C5 2.66 5 3.32 5 4 C4.01 4 3.02 4 2 4 C1.67 4.99 1.34 5.98 1 7 C-1.5625 8.1875 -1.5625 8.1875 -4 9 C-4.33 7.68 -4.66 6.36 -5 5 C-4.34 5 -3.68 5 -3 5 C-2.67 4.01 -2.34 3.02 -2 2 C-1.34 2 -0.68 2 0 2 C0 1.34 0 0.68 0 0 Z " fill="#343434" transform="translate(367,284)"/>
<path d="M0 0 C0 0.99 0 1.98 0 3 C-3.3 3.66 -6.6 4.32 -10 5 C-9.67 3.35 -9.34 1.7 -9 0 C-5.62182575 -0.84454356 -3.32534757 -1.10844919 0 0 Z " fill="#4A4A4A" transform="translate(598,315)"/>
<path d="M0 0 C0 0.99 0 1.98 0 3 C-6.625 4.125 -6.625 4.125 -10 3 C-10.33 2.01 -10.66 1.02 -11 0 C-6.98195309 -0.84098656 -3.98196457 -1.05404945 0 0 Z " fill="#4C4C4C" transform="translate(626,308)"/>
<path d="M0 0 C-1 2 -1 2 -3.06640625 2.8515625 C-4.30197266 3.23441406 -4.30197266 3.23441406 -5.5625 3.625 C-6.38878906 3.88539063 -7.21507812 4.14578125 -8.06640625 4.4140625 C-8.70449219 4.60742188 -9.34257813 4.80078125 -10 5 C-10.33 3.68 -10.66 2.36 -11 1 C-6.87831311 -0.62950412 -4.29299643 -1.26264601 0 0 Z " fill="#545454" transform="translate(537,369)"/>
<path d="M0 0 C0.99 0 1.98 0 3 0 C3.33 0.66 3.66 1.32 4 2 C9.94 1.505 9.94 1.505 16 1 C10.54059724 4.63960184 4.59612984 6.5073946 -2 6 C-0.68 5.67 0.64 5.34 2 5 C2 4.01 2 3.02 2 2 C1.34 2 0.68 2 0 2 C0 1.34 0 0.68 0 0 Z " fill="#1D1D1D" transform="translate(508,337)"/>
<path d="M0 0 C0.33 1.32 0.66 2.64 1 4 C1.66 4 2.32 4 3 4 C2.67 6.31 2.34 8.62 2 11 C1.67 10.01 1.34 9.02 1 8 C-0.32 8.33 -1.64 8.66 -3 9 C-3.33 8.01 -3.66 7.02 -4 6 C-3.34 6 -2.68 6 -2 6 C-1.855625 5.195625 -1.71125 4.39125 -1.5625 3.5625 C-1 1 -1 1 0 0 Z " fill="#222222" transform="translate(335,327)"/>
<path d="M0 0 C-1.305239 2.61047801 -2.35826574 2.68066423 -5.0625 3.625 C-5.79597656 3.88539063 -6.52945312 4.14578125 -7.28515625 4.4140625 C-7.85105469 4.60742188 -8.41695313 4.80078125 -9 5 C-9.66 3.68 -10.32 2.36 -11 1 C-6.87831311 -0.62950412 -4.29299643 -1.26264601 0 0 Z " fill="#515151" transform="translate(478,394)"/>
<path d="M0 0 C0 0.66 0 1.32 0 2 C-2.26949102 2.67155349 -4.5403961 3.3373963 -6.8125 4 C-8.70935547 4.556875 -8.70935547 4.556875 -10.64453125 5.125 C-14 6 -14 6 -17 6 C-17 5.34 -17 4.68 -17 4 C-15.68 4 -14.36 4 -13 4 C-13 3.34 -13 2.68 -13 2 C-11.39658445 1.66307215 -9.79223445 1.33058907 -8.1875 1 C-7.29417969 0.814375 -6.40085937 0.62875 -5.48046875 0.4375 C-3 0 -3 0 0 0 Z " fill="#191919" transform="translate(671,308)"/>
<path d="M0 0 C0.66 0 1.32 0 2 0 C4.1875 2.25 4.1875 2.25 6 5 C5.75 7.3125 5.75 7.3125 5 9 C3.0625 8.4375 3.0625 8.4375 1 7 C0.25 3.375 0.25 3.375 0 0 Z " fill="#454545" transform="translate(329,406)"/>
<path d="M0 0 C0.66 0 1.32 0 2 0 C2.33 2.31 2.66 4.62 3 7 C3.66 7 4.32 7 5 7 C5.33 8.32 5.66 9.64 6 11 C4.35 10.67 2.7 10.34 1 10 C0.37542727 6.56484998 0 3.50935186 0 0 Z " fill="#545454" transform="translate(323,395)"/>
<path d="M0 0 C-1.32 0.33 -2.64 0.66 -4 1 C-3.67 1.99 -3.34 2.98 -3 4 C-5.31 4 -7.62 4 -10 4 C-10.33 3.01 -10.66 2.02 -11 1 C-6.87831311 -0.62950412 -4.29299643 -1.26264601 0 0 Z " fill="#333333" transform="translate(461,351)"/>
<path d="M0 0 C0 0.99 0 1.98 0 3 C-2.64 3.99 -5.28 4.98 -8 6 C-8.33 4.68 -8.66 3.36 -9 2 C-5.62902617 0.50178941 -3.79557881 0 0 0 Z " fill="#535353" transform="translate(629,328)"/>
<path d="M0 0 C1.98 0 3.96 0 6 0 C6 0.66 6 1.32 6 2 C7.98 2 9.96 2 12 2 C12 2.33 12 2.66 12 3 C6.06 3.495 6.06 3.495 0 4 C0 2.68 0 1.36 0 0 Z " fill="#424242" transform="translate(693,287)"/>
<path d="M0 0 C0.53625 0.37125 1.0725 0.7425 1.625 1.125 C-0.0765625 1.8365625 -0.0765625 1.8365625 -1.8125 2.5625 C-5.13240166 3.76122083 -5.13240166 3.76122083 -6.375 5.125 C-8.37458364 5.16580783 -10.37545254 5.16754356 -12.375 5.125 C-9.05345158 1.29244413 -5.21256109 -1.92041724 0 0 Z " fill="#131313" transform="translate(600.375,336.875)"/>
<path d="M0 0 C-0.33 1.32 -0.66 2.64 -1 4 C-3.31 4.66 -5.62 5.32 -8 6 C-7.6875 4.125 -7.6875 4.125 -7 2 C-4 0 -4 0 0 0 Z " fill="#535353" transform="translate(546,363)"/>
<path d="M0 0 C0.33 0 0.66 0 1 0 C0.03644647 9.41002278 0.03644647 9.41002278 -1 14 C-1.66 14 -2.32 14 -3 14 C-3.33 14.99 -3.66 15.98 -4 17 C-3.45018084 10.95198929 -2.09570426 5.69398894 0 0 Z " fill="#1C1C1C" transform="translate(330,346)"/>
<path d="M0 0 C1.65 0.33 3.3 0.66 5 1 C4.67 3.31 4.34 5.62 4 8 C2.68 7.67 1.36 7.34 0 7 C0 5.68 0 4.36 0 3 C0.99 3 1.98 3 3 3 C3 2.34 3 1.68 3 1 C2.01 0.67 1.02 0.34 0 0 Z " fill="#6A6A6A" transform="translate(373,278)"/>
<path d="M0 0 C0.33 0.99 0.66 1.98 1 3 C-3.625 5.125 -3.625 5.125 -7 4 C-7.33 3.01 -7.66 2.02 -8 1 C-5.07175348 0.02391783 -3.04386724 -0.08226668 0 0 Z " fill="#4A4A4A" transform="translate(409,419)"/>
<path d="M0 0 C0.66 0 1.32 0 2 0 C1.34 4.29 0.68 8.58 0 13 C-1.98 13 -3.96 13 -6 13 C-5.34 12.67 -4.68 12.34 -4 12 C-3.34786708 9.97536745 -3.34786708 9.97536745 -3 8 C-3 8.66 -3 9.32 -3 10 C-2.34 10 -1.68 10 -1 10 C-0.67 6.7 -0.34 3.4 0 0 Z " fill="#313131" transform="translate(326,353)"/>
<path d="M0 0 C0 0.99 0 1.98 0 3 C-0.99 3 -1.98 3 -3 3 C-3 3.66 -3 4.32 -3 5 C-4.65 5.33 -6.3 5.66 -8 6 C-7.67 4.35 -7.34 2.7 -7 1 C-4.50935112 0.31292445 -2.62113708 0 0 0 Z " fill="#555555" transform="translate(584,347)"/>
<path d="M0 0 C0 0.66 0 1.32 0 2 C0.66 2.33 1.32 2.66 2 3 C-0.64 3.33 -3.28 3.66 -6 4 C-6.33 2.68 -6.66 1.36 -7 0 C-3.98968256 -0.93423645 -3.13349732 -1.04449911 0 0 Z " fill="#3E3E3E" transform="translate(518,336)"/>
<path d="M0 0 C-0.33 0.66 -0.66 1.32 -1 2 C-2.32 2 -3.64 2 -5 2 C-4.34 3.32 -3.68 4.64 -3 6 C-4.98 6.33 -6.96 6.66 -9 7 C-9 6.34 -9 5.68 -9 5 C-8.34 4.67 -7.68 4.34 -7 4 C-7.33 3.01 -7.66 2.02 -8 1 C-2.25 -1.125 -2.25 -1.125 0 0 Z " fill="#2F2F2F" transform="translate(659,314)"/>
<path d="M0 0 C0 0.66 0 1.32 0 2 C-2.31 2.33 -4.62 2.66 -7 3 C-7 2.34 -7 1.68 -7 1 C-8.32 0.67 -9.64 0.34 -11 0 C-11 -0.33 -11 -0.66 -11 -1 C-6.58937864 -2.0257259 -4.07369424 -2.03684712 0 0 Z " fill="#323232" transform="translate(633,307)"/>
<path d="M0 0 C0.66 0 1.32 0 2 0 C2.33 1.32 2.66 2.64 3 4 C1.35 4.33 -0.3 4.66 -2 5 C-2 5.66 -2 6.32 -2 7 C-3.32 6.67 -4.64 6.34 -6 6 C-4.71034824 4.62437146 -3.37310707 3.29233607 -2 2 C-1.34 2 -0.68 2 0 2 C0 1.34 0 0.68 0 0 Z " fill="#373737" transform="translate(524,370)"/>
<path d="M0 0 C-0.99 0.33 -1.98 0.66 -3 1 C-3 1.99 -3 2.98 -3 4 C-4.98 4.66 -6.96 5.32 -9 6 C-9 4.68 -9 3.36 -9 2 C-3.375 -1.125 -3.375 -1.125 0 0 Z " fill="#414141" transform="translate(653,318)"/>
<path d="M0 0 C0 1.65 0 3.3 0 5 C-0.99 5.33 -1.98 5.66 -3 6 C-3 5.01 -3 4.02 -3 3 C-5.31 3.66 -7.62 4.32 -10 5 C-10 4.01 -10 3.02 -10 2 C-6.38026598 0.68373308 -3.90432869 0 0 0 Z " fill="#282828" transform="translate(701,295)"/>
<path d="M0 0 C1.32 0.66 2.64 1.32 4 2 C3.34 4.31 2.68 6.62 2 9 C1.01 8.67 0.02 8.34 -1 8 C-0.67 5.36 -0.34 2.72 0 0 Z " fill="#595959" transform="translate(370,291)"/>
<path d="M0 0 C2.64 0 5.28 0 8 0 C7.67 1.32 7.34 2.64 7 4 C4.69 3.67 2.38 3.34 0 3 C0 2.01 0 1.02 0 0 Z " fill="#555555" transform="translate(710,283)"/>
<path d="M0 0 C1.134375 0.020625 2.26875 0.04125 3.4375 0.0625 C3.7675 1.3825 4.0975 2.7025 4.4375 4.0625 C-1.10096154 4.43173077 -1.10096154 4.43173077 -3.4375 2.5625 C-3.80875 2.0675 -4.18 1.5725 -4.5625 1.0625 C-3.5625 0.0625 -3.5625 0.0625 0 0 Z " fill="#393939" transform="translate(497.5625,339.9375)"/>
<path d="M0 0 C0 0.66 0 1.32 0 2 C-0.66 2 -1.32 2 -2 2 C-2.33 2.99 -2.66 3.98 -3 5 C-5.0625 5.6875 -5.0625 5.6875 -7 6 C-7.66 5.01 -8.32 4.02 -9 3 C-8.01 3 -7.02 3 -6 3 C-6 2.34 -6 1.68 -6 1 C-3 0 -3 0 0 0 Z " fill="#404040" transform="translate(614,334)"/>
<path d="M0 0 C0 0.99 0 1.98 0 3 C-3.28696233 3.79953138 -4.71023192 4.09658936 -8 3 C-8 2.01 -8 1.02 -8 0 C-4.71303767 -0.79953138 -3.28976808 -1.09658936 0 0 Z " fill="#696969" transform="translate(728,280)"/>
<path d="M0 0 C2.31 0.66 4.62 1.32 7 2 C5.875 3.5625 5.875 3.5625 4 5 C0.8125 4.6875 0.8125 4.6875 -2 4 C-2 3.34 -2 2.68 -2 2 C-1.34 2 -0.68 2 0 2 C0 1.34 0 0.68 0 0 Z " fill="#3A3A3A" transform="translate(389,355)"/>
<path d="M0 0 C0 0.66 0 1.32 0 2 C-2.64 2.33 -5.28 2.66 -8 3 C-8 2.34 -8 1.68 -8 1 C-8.99 0.67 -9.98 0.34 -11 0 C-7.01803543 -1.05404945 -4.01804691 -0.84098656 0 0 Z " fill="#4D4D4D" transform="translate(488,345)"/>
<path d="M0 0 C0 0.33 0 0.66 0 1 C-4.455 1.495 -4.455 1.495 -9 2 C-9.33 2.99 -9.66 3.98 -10 5 C-10.99 5.33 -11.98 5.66 -13 6 C-13 5.34 -13 4.68 -13 4 C-13.66 3.67 -14.32 3.34 -15 3 C-9.63560356 0.31780178 -5.98993047 -0.3152595 0 0 Z " fill="#1A1A1A" transform="translate(695,293)"/>
<path d="M0 0 C0 1.32 0 2.64 0 4 C-1.65 4.33 -3.3 4.66 -5 5 C-4.34 4.67 -3.68 4.34 -3 4 C-3 3.34 -3 2.68 -3 2 C-5.31 2.33 -7.62 2.66 -10 3 C-6.26223701 0.50815801 -4.5227786 0 0 0 Z " fill="#2F2F2F" transform="translate(455,401)"/>
<path d="M0 0 C0 0.66 0 1.32 0 2 C-1.98 2.33 -3.96 2.66 -6 3 C-5.67 3.99 -5.34 4.98 -5 6 C-6.65 5.67 -8.3 5.34 -10 5 C-9.01 4.67 -8.02 4.34 -7 4 C-7 3.34 -7 2.68 -7 2 C-7.66 1.67 -8.32 1.34 -9 1 C-5.92677456 0.08941469 -3.19902639 -0.08886184 0 0 Z " fill="#424242" transform="translate(733,282)"/>
<path d="M0 0 C1.65 0 3.3 0 5 0 C5.33 1.32 5.66 2.64 6 4 C4.35 4.33 2.7 4.66 1 5 C0.67 3.35 0.34 1.7 0 0 Z " fill="#8A8A8A" transform="translate(753,273)"/>
<path d="M0 0 C0 0.99 0 1.98 0 3 C-2.31 2.67 -4.62 2.34 -7 2 C-7 1.34 -7 0.68 -7 0 C-3.86650268 -1.04449911 -3.01031744 -0.93423645 0 0 Z " fill="#4F4F4F" transform="translate(508,380)"/>
<path d="M0 0 C-3.69172595 3.53790403 -7.09390595 3.59115883 -12 4 C-8.20200235 -0.17779742 -5.57396889 -1.54832469 0 0 Z " fill="#141414" transform="translate(551,359)"/>
<path d="M0 0 C-2.96687001 1.64826111 -5.65626525 2.44271087 -9 3 C-8.6875 1.0625 -8.6875 1.0625 -8 -1 C-4.37673261 -2.2077558 -3.35853631 -1.54311128 0 0 Z " fill="#494949" transform="translate(576,322)"/>
<path d="M0 0 C0 1.32 0 2.64 0 4 C-3.75 5.125 -3.75 5.125 -6 4 C-6 3.01 -6 2.02 -6 1 C-3 0 -3 0 0 0 Z " fill="#515151" transform="translate(698,298)"/>
<path d="M0 0 C0.78375 0.04125 1.5675 0.0825 2.375 0.125 C2.045 1.775 1.715 3.425 1.375 5.125 C-0.605 4.135 -2.585 3.145 -4.625 2.125 C-2.625 0.125 -2.625 0.125 0 0 Z " fill="#4C4C4C" transform="translate(345.625,418.875)"/>
<path d="M0 0 C-1.32 0.33 -2.64 0.66 -4 1 C-4 1.66 -4 2.32 -4 3 C-4.99 3 -5.98 3 -7 3 C-7 3.66 -7 4.32 -7 5 C-8.65 5 -10.3 5 -12 5 C-11.34 4.67 -10.68 4.34 -10 4 C-10 3.34 -10 2.68 -10 2 C-8.71211992 1.46987262 -7.41953322 0.9511671 -6.125 0.4375 C-5.40570312 0.14746094 -4.68640625 -0.14257812 -3.9453125 -0.44140625 C-2 -1 -2 -1 0 0 Z " fill="#1A1A1A" transform="translate(539,364)"/>
<path d="M0 0 C0 3 0 3 -1 5 C-1.99 5 -2.98 5 -4 5 C-4 5.66 -4 6.32 -4 7 C-4.99 7 -5.98 7 -7 7 C-6.67 6.01 -6.34 5.02 -6 4 C-5.01 3.67 -4.02 3.34 -3 3 C-3.66 2.34 -4.32 1.68 -5 1 C-3.35 0.67 -1.7 0.34 0 0 Z " fill="#2F2F2F" transform="translate(578,319)"/>
<path d="M0 0 C1.65 0 3.3 0 5 0 C5 0.66 5 1.32 5 2 C6.98 2 8.96 2 11 2 C11 2.33 11 2.66 11 3 C6.545 3.495 6.545 3.495 2 4 C2 3.34 2 2.68 2 2 C1.34 2 0.68 2 0 2 C0 1.34 0 0.68 0 0 Z " fill="#353535" transform="translate(555,324)"/>
<path d="M0 0 C1.65 0.33 3.3 0.66 5 1 C4.67 1.66 4.34 2.32 4 3 C1.35139573 3.59355614 -1.29197322 3.74209269 -4 4 C-4 3.34 -4 2.68 -4 2 C-2.68 2 -1.36 2 0 2 C0 1.34 0 0.68 0 0 Z " fill="#464646" transform="translate(653,299)"/>
<path d="M0 0 C1.32 0 2.64 0 4 0 C4 0.66 4 1.32 4 2 C4.66 2.33 5.32 2.66 6 3 C6 3.66 6 4.32 6 5 C4.68 5 3.36 5 2 5 C2 4.01 2 3.02 2 2 C1.01 1.67 0.02 1.34 -1 1 C-0.67 0.67 -0.34 0.34 0 0 Z " fill="#3F3F3F" transform="translate(356,423)"/>
<path d="M0 0 C-0.3125 1.9375 -0.3125 1.9375 -1 4 C-1.99 4.33 -2.98 4.66 -4 5 C-4.66 4.67 -5.32 4.34 -6 4 C-6 3.01 -6 2.02 -6 1 C-3 0 -3 0 0 0 Z " fill="#383838" transform="translate(431,411)"/>
<path d="M0 0 C0.99 0 1.98 0 3 0 C3 0.66 3 1.32 3 2 C4.32 2.33 5.64 2.66 7 3 C3.7 3.66 0.4 4.32 -3 5 C-3 4.34 -3 3.68 -3 3 C-2.01 2.67 -1.02 2.34 0 2 C0 1.34 0 0.68 0 0 Z " fill="#343434" transform="translate(546,327)"/>
<path d="M0 0 C0.99 0.66 1.98 1.32 3 2 C3 2.99 3 3.98 3 5 C2.34 5 1.68 5 1 5 C0.67 5.66 0.34 6.32 0 7 C-0.66 7 -1.32 7 -2 7 C-1.125 1.125 -1.125 1.125 0 0 Z " fill="#585858" transform="translate(322,358)"/>
<path d="M0 0 C1.32 0.99 2.64 1.98 4 3 C3.34 3 2.68 3 2 3 C2 3.66 2 4.32 2 5 C2.66 5.33 3.32 5.66 4 6 C2.68 6 1.36 6 0 6 C0 5.34 0 4.68 0 4 C-0.66 4 -1.32 4 -2 4 C-2 3.34 -2 2.68 -2 2 C-1.34 2 -0.68 2 0 2 C0 1.34 0 0.68 0 0 Z " fill="#4E4E4E" transform="translate(376,346)"/>
<path d="M0 0 C1.65 0 3.3 0 5 0 C5 0.66 5 1.32 5 2 C4.01 2.33 3.02 2.66 2 3 C2 3.99 2 4.98 2 6 C1.01 6 0.02 6 -1 6 C-0.67 4.02 -0.34 2.04 0 0 Z " fill="#5A5A5A" transform="translate(371,279)"/>
<path d="M0 0 C0.33 0.66 0.66 1.32 1 2 C1.99 2.33 2.98 2.66 4 3 C0.77208445 5.1519437 -0.28400809 5.20086443 -4 5 C-3.34 4.67 -2.68 4.34 -2 4 C-2 3.34 -2 2.68 -2 2 C-1.34 2 -0.68 2 0 2 C0 1.34 0 0.68 0 0 Z " fill="#424242" transform="translate(386,423)"/>
<path d="M0 0 C0.33 0.66 0.66 1.32 1 2 C3.02463255 2.65213292 3.02463255 2.65213292 5 3 C5 3.66 5 4.32 5 5 C5.99 5.33 6.98 5.66 8 6 C6.35 6 4.7 6 3 6 C3 5.34 3 4.68 3 4 C2.01 4 1.02 4 0 4 C0 2.68 0 1.36 0 0 Z " fill="#131313" transform="translate(378,353)"/>
<path d="M0 0 C0 0.99 0 1.98 0 3 C-1.65 3.33 -3.3 3.66 -5 4 C-5.33 3.01 -5.66 2.02 -6 1 C-4 0 -4 0 0 0 Z " fill="#3F3F3F" transform="translate(594,343)"/>
<path d="M0 0 C1.65 0 3.3 0 5 0 C5 0.66 5 1.32 5 2 C5.99 2.33 6.98 2.66 8 3 C6.35 3.33 4.7 3.66 3 4 C3 3.34 3 2.68 3 2 C2.01 2 1.02 2 0 2 C0 1.34 0 0.68 0 0 Z " fill="#404040" transform="translate(705,284)"/>
<path d="M0 0 C4.75 0.75 4.75 0.75 7 3 C5.35 3.33 3.7 3.66 2 4 C1.34 2.68 0.68 1.36 0 0 Z " fill="#525252" transform="translate(387,423)"/>
<path d="M0 0 C1.32 0 2.64 0 4 0 C3.34 1.32 2.68 2.64 2 4 C0.68 4 -0.64 4 -2 4 C-2 3.34 -2 2.68 -2 2 C-1.34 2 -0.68 2 0 2 C0 1.34 0 0.68 0 0 Z " fill="#313131" transform="translate(446,355)"/>
<path d="M0 0 C4.455 0.99 4.455 0.99 9 2 C6 4 6 4 2 4 C1.34 2.68 0.68 1.36 0 0 Z " fill="#2D2D2D" transform="translate(689,289)"/>
<path d="M0 0 C2 2 2 2 2 5 C1.01 5.33 0.02 5.66 -1 6 C-1 5.01 -1 4.02 -1 3 C-1.66 3 -2.32 3 -3 3 C-3 2.34 -3 1.68 -3 1 C-2.01 0.67 -1.02 0.34 0 0 Z " fill="#636363" transform="translate(752,273)"/>
</svg>
